BBB DM Sans-Bold.ufo
<glyph name="exclam" format="1">
  <advance width="343"/>
  <unicode hex="0021"/>
  <outline>
    <contour>
      <point x="97" y="248" type="line"/>
      <point x="242" y="248" type="line"/>
      <point x="261" y="700" type="line"/>
      <point x="78" y="700" type="line"/>
    </contour>
    <component base="period" xOffset="30" identifier="03B5D93F"/>
  </outline>
</glyph>
<glyph name="quotedbl" format="1">
  <advance width="411"/>
  <unicode hex="0022"/>
  <outline>
    <contour>
      <point x="243" y="534" type="line"/>
      <point x="358" y="534" type="line"/>
      <point x="371" y="755" type="line"/>
      <point x="230" y="755" type="line"/>
    </contour>
    <contour>
      <point x="53" y="534" type="line"/>
      <point x="168" y="534" type="line"/>
      <point x="181" y="755" type="line"/>
      <point x="40" y="755" type="line"/>
    </contour>
  </outline>
</glyph>
<glyph name="numbersign" format="1">
  <advance width="904"/>
  <unicode hex="0023"/>
  <outline>
    <contour>
      <point x="461" y="0" type="line"/>
      <point x="621" y="0" type="line"/>
      <point x="779" y="740" type="line"/>
      <point x="619" y="740" type="line"/>
    </contour>
    <contour>
      <point x="135" y="0" type="line"/>
      <point x="295" y="0" type="line"/>
      <point x="453" y="740" type="line"/>
      <point x="293" y="740" type="line"/>
    </contour>
    <contour>
      <point x="20" y="153" type="line"/>
      <point x="807" y="153" type="line"/>
      <point x="807" y="307" type="line"/>
      <point x="20" y="307" type="line"/>
    </contour>
    <contour>
      <point x="84" y="438" type="line"/>
      <point x="871" y="438" type="line"/>
      <point x="871" y="592" type="line"/>
      <point x="84" y="592" type="line"/>
    </contour>
  </outline>
</glyph>
<glyph name="ampersand" format="1">
  <advance width="810"/>
  <unicode hex="0026"/>
  <outline>
    <contour>
      <point x="599" y="0" type="line"/>
      <point x="798" y="0" type="line"/>
      <point x="347" y="441" type="line" smooth="yes"/>
      <point x="310" y="480"/>
      <point x="291" y="509"/>
      <point x="291" y="534" type="curve" smooth="yes"/>
      <point x="291" y="564"/>
      <point x="315" y="584"/>
      <point x="347" y="584" type="curve" smooth="yes"/>
      <point x="377" y="584"/>
      <point x="400" y="566"/>
      <point x="399" y="528" type="curve"/>
      <point x="560" y="528" type="line"/>
      <point x="563" y="625"/>
      <point x="492" y="712"/>
      <point x="349" y="712" type="curve" smooth="yes"/>
      <point x="209" y="712"/>
      <point x="130" y="632"/>
      <point x="130" y="533" type="curve" smooth="yes"/>
      <point x="130" y="479"/>
      <point x="151" y="434"/>
      <point x="214" y="373" type="curve" smooth="yes"/>
    </contour>
    <contour>
      <point x="302" y="-11" type="curve" smooth="yes"/>
      <point x="486" y="-11"/>
      <point x="608" y="88"/>
      <point x="704" y="307" type="curve" smooth="yes"/>
      <point x="729" y="365" type="line"/>
      <point x="558" y="365" type="line"/>
      <point x="544" y="331" type="line" smooth="yes"/>
      <point x="483" y="191"/>
      <point x="413" y="127"/>
      <point x="310" y="127" type="curve" smooth="yes"/>
      <point x="242" y="127"/>
      <point x="201" y="167"/>
      <point x="201" y="216" type="curve" smooth="yes"/>
      <point x="201" y="265"/>
      <point x="237" y="308"/>
      <point x="312" y="331" type="curve" smooth="yes"/>
      <point x="368" y="348" type="line"/>
      <point x="297" y="452" type="line"/>
      <point x="230" y="431" type="line" smooth="yes"/>
      <point x="99" y="390"/>
      <point x="36" y="304"/>
      <point x="36" y="204" type="curve" smooth="yes"/>
      <point x="36" y="74"/>
      <point x="139" y="-11"/>
    </contour>
  </outline>
</glyph>
<glyph name="quotesingle" format="1">
  <advance width="221"/>
  <unicode hex="0027"/>
  <outline>
    <contour>
      <point x="53" y="534" type="line"/>
      <point x="168" y="534" type="line"/>
      <point x="181" y="755" type="line"/>
      <point x="40" y="755" type="line"/>
    </contour>
  </outline>
</glyph>
<glyph name="parenleft" format="1">
  <advance width="425"/>
  <unicode hex="0028"/>
  <outline>
    <contour>
      <point x="230" y="-145" type="curve"/>
      <point x="399" y="-145" type="line"/>
      <point x="399" y="-129" type="line"/>
      <point x="281" y="4"/>
      <point x="210" y="167"/>
      <point x="210" y="333" type="curve" smooth="yes"/>
      <point x="210" y="499"/>
      <point x="281" y="662"/>
      <point x="399" y="795" type="curve"/>
      <point x="399" y="811" type="line"/>
      <point x="230" y="811" type="line"/>
      <point x="116" y="692"/>
      <point x="43" y="520"/>
      <point x="43" y="333" type="curve" smooth="yes"/>
      <point x="43" y="146"/>
      <point x="116" y="-26"/>
    </contour>
  </outline>
</glyph>
<glyph name="parenright" format="1">
  <advance width="425"/>
  <unicode hex="0029"/>
  <outline>
    <contour>
      <point x="26" y="-145" type="line"/>
      <point x="195" y="-145" type="line"/>
      <point x="309" y="-26"/>
      <point x="382" y="146"/>
      <point x="382" y="333" type="curve" smooth="yes"/>
      <point x="382" y="520"/>
      <point x="309" y="692"/>
      <point x="195" y="811" type="curve"/>
      <point x="26" y="811" type="line"/>
      <point x="26" y="795" type="line"/>
      <point x="144" y="662"/>
      <point x="215" y="499"/>
      <point x="215" y="333" type="curve" smooth="yes"/>
      <point x="215" y="167"/>
      <point x="144" y="4"/>
      <point x="26" y="-129" type="curve"/>
    </contour>
  </outline>
</glyph>
<glyph name="plus" format="1">
  <advance width="610"/>
  <unicode hex="002B"/>
  <outline>
    <contour>
      <point x="234" y="54" type="line"/>
      <point x="376" y="54" type="line"/>
      <point x="376" y="524" type="line"/>
      <point x="234" y="524" type="line"/>
    </contour>
    <contour>
      <point x="50" y="218" type="line"/>
      <point x="560" y="218" type="line"/>
      <point x="560" y="360" type="line"/>
      <point x="50" y="360" type="line"/>
    </contour>
  </outline>
</glyph>
<glyph name="comma" format="1">
  <advance width="283"/>
  <unicode hex="002C"/>
  <outline>
    <contour>
      <point x="26" y="-113" type="line"/>
      <point x="135" y="-113" type="line"/>
      <point x="242" y="164" type="line"/>
      <point x="82" y="164" type="line"/>
    </contour>
  </outline>
</glyph>
<glyph name="period" format="1">
  <advance width="283"/>
  <unicode hex="002E"/>
  <outline>
    <contour>
      <point x="142" y="-8" type="curve" smooth="yes"/>
      <point x="202" y="-8"/>
      <point x="243" y="33"/>
      <point x="243" y="84" type="curve" smooth="yes"/>
      <point x="243" y="137"/>
      <point x="202" y="178"/>
      <point x="142" y="178" type="curve" smooth="yes"/>
      <point x="81" y="178"/>
      <point x="40" y="137"/>
      <point x="40" y="84" type="curve" smooth="yes"/>
      <point x="40" y="33"/>
      <point x="81" y="-8"/>
    </contour>
  </outline>
</glyph>
<glyph name="slash" format="1">
  <advance width="450"/>
  <unicode hex="002F"/>
  <outline>
    <contour>
      <point x="18" y="-127" type="line"/>
      <point x="183" y="-127" type="line"/>
      <point x="432" y="790" type="line"/>
      <point x="267" y="790" type="line"/>
    </contour>
  </outline>
</glyph>
<glyph name="zero" format="1">
  <advance width="726"/>
  <unicode hex="0030"/>
  <outline>
    <contour>
      <point x="363" y="-12" type="curve" smooth="yes"/>
      <point x="563" y="-12"/>
      <point x="683" y="136"/>
      <point x="683" y="350" type="curve" smooth="yes"/>
      <point x="683" y="564"/>
      <point x="563" y="712"/>
      <point x="363" y="712" type="curve" smooth="yes"/>
      <point x="163" y="712"/>
      <point x="43" y="564"/>
      <point x="43" y="350" type="curve" smooth="yes"/>
      <point x="43" y="136"/>
      <point x="163" y="-12"/>
    </contour>
    <contour>
      <point x="363" y="143" type="curve" smooth="yes"/>
      <point x="274" y="143"/>
      <point x="217" y="223"/>
      <point x="217" y="350" type="curve" smooth="yes"/>
      <point x="217" y="477"/>
      <point x="274" y="557"/>
      <point x="363" y="557" type="curve" smooth="yes"/>
      <point x="452" y="557"/>
      <point x="509" y="477"/>
      <point x="509" y="350" type="curve" smooth="yes"/>
      <point x="509" y="223"/>
      <point x="452" y="143"/>
    </contour>
  </outline>
</glyph>
<glyph name="one" format="1">
  <advance width="386"/>
  <unicode hex="0031"/>
  <outline>
    <contour>
      <point x="146" y="0" type="line"/>
      <point x="324" y="0" type="line"/>
      <point x="324" y="700" type="line"/>
      <point x="224" y="700" type="line"/>
      <point x="27" y="612" type="line"/>
      <point x="27" y="474" type="line"/>
      <point x="146" y="502" type="line"/>
    </contour>
  </outline>
</glyph>
<glyph name="two" format="1">
  <advance width="571"/>
  <unicode hex="0032"/>
  <outline>
    <contour>
      <point x="39" y="0" type="line"/>
      <point x="541" y="0" type="line"/>
      <point x="541" y="139" type="line"/>
      <point x="271" y="139" type="line"/>
      <point x="397" y="237"/>
      <point x="530" y="354"/>
      <point x="530" y="501" type="curve" smooth="yes"/>
      <point x="530" y="610"/>
      <point x="453" y="712"/>
      <point x="291" y="712" type="curve" smooth="yes"/>
      <point x="154" y="712"/>
      <point x="43" y="639"/>
      <point x="37" y="471" type="curve"/>
      <point x="202" y="471" type="line"/>
      <point x="202" y="528"/>
      <point x="232" y="568"/>
      <point x="285" y="568" type="curve" smooth="yes"/>
      <point x="335" y="568"/>
      <point x="359" y="532"/>
      <point x="359" y="490" type="curve" smooth="yes"/>
      <point x="359" y="380"/>
      <point x="194" y="255"/>
      <point x="39" y="127" type="curve"/>
    </contour>
  </outline>
</glyph>
<glyph name="three" format="1">
  <advance width="605"/>
  <unicode hex="0033"/>
  <outline>
    <contour>
      <point x="301" y="-12" type="curve" smooth="yes"/>
      <point x="460" y="-12"/>
      <point x="550" y="83"/>
      <point x="550" y="200" type="curve" smooth="yes"/>
      <point x="550" y="284"/>
      <point x="503" y="348"/>
      <point x="427" y="363" type="curve"/>
      <point x="477" y="381"/>
      <point x="537" y="428"/>
      <point x="537" y="517" type="curve" smooth="yes"/>
      <point x="537" y="623"/>
      <point x="452" y="712"/>
      <point x="300" y="712" type="curve" smooth="yes"/>
      <point x="157" y="712"/>
      <point x="59" y="633"/>
      <point x="53" y="489" type="curve"/>
      <point x="217" y="489" type="line"/>
      <point x="220" y="531"/>
      <point x="246" y="569"/>
      <point x="300" y="569" type="curve" smooth="yes"/>
      <point x="340" y="569"/>
      <point x="371" y="546"/>
      <point x="371" y="503" type="curve" smooth="yes"/>
      <point x="371" y="451"/>
      <point x="324" y="431"/>
      <point x="277" y="431" type="curve" smooth="yes"/>
      <point x="225" y="431" type="line"/>
      <point x="225" y="292" type="line"/>
      <point x="277" y="292" type="line" smooth="yes"/>
      <point x="346" y="292"/>
      <point x="385" y="259"/>
      <point x="385" y="208" type="curve" smooth="yes"/>
      <point x="385" y="162"/>
      <point x="353" y="130"/>
      <point x="301" y="130" type="curve" smooth="yes"/>
      <point x="244" y="130"/>
      <point x="209" y="168"/>
      <point x="208" y="225" type="curve"/>
      <point x="42" y="225" type="line"/>
      <point x="45" y="60"/>
      <point x="163" y="-12"/>
    </contour>
  </outline>
</glyph>
<glyph name="four" format="1">
  <advance width="677"/>
  <unicode hex="0034"/>
  <outline>
    <contour>
      <point x="385" y="0" type="line"/>
      <point x="556" y="0" type="line"/>
      <point x="556" y="110" type="line"/>
      <point x="638" y="110" type="line"/>
      <point x="638" y="258" type="line"/>
      <point x="556" y="258" type="line"/>
      <point x="556" y="700" type="line"/>
      <point x="365" y="700" type="line"/>
      <point x="49" y="248" type="line"/>
      <point x="49" y="110" type="line"/>
      <point x="385" y="110" type="line"/>
    </contour>
    <contour>
      <point x="229" y="258" type="line"/>
      <point x="397" y="512" type="line"/>
      <point x="397" y="258" type="line"/>
    </contour>
  </outline>
</glyph>
<glyph name="five" format="1">
  <advance width="628"/>
  <unicode hex="0035"/>
  <outline>
    <contour>
      <point x="325" y="-12" type="curve" smooth="yes"/>
      <point x="469" y="-12"/>
      <point x="583" y="88"/>
      <point x="583" y="245" type="curve" smooth="yes"/>
      <point x="583" y="360"/>
      <point x="518" y="481"/>
      <point x="359" y="481" type="curve" smooth="yes"/>
      <point x="306" y="481"/>
      <point x="259" y="463"/>
      <point x="232" y="438" type="curve"/>
      <point x="255" y="550" type="line"/>
      <point x="537" y="550" type="line"/>
      <point x="537" y="700" type="line"/>
      <point x="130" y="700" type="line"/>
      <point x="70" y="284" type="line"/>
      <point x="235" y="284" type="line"/>
      <point x="245" y="316"/>
      <point x="282" y="344"/>
      <point x="325" y="344" type="curve" smooth="yes"/>
      <point x="376" y="344"/>
      <point x="418" y="309"/>
      <point x="418" y="243" type="curve" smooth="yes"/>
      <point x="418" y="180"/>
      <point x="376" y="133"/>
      <point x="325" y="133" type="curve" smooth="yes"/>
      <point x="275" y="133"/>
      <point x="236" y="167"/>
      <point x="229" y="205" type="curve"/>
      <point x="62" y="205" type="line"/>
      <point x="68" y="79"/>
      <point x="163" y="-12"/>
    </contour>
  </outline>
</glyph>
<glyph name="six" format="1">
  <advance width="637"/>
  <unicode hex="0036"/>
  <outline>
    <contour>
      <point x="336" y="-12" type="curve" smooth="yes"/>
      <point x="479" y="-12"/>
      <point x="585" y="92"/>
      <point x="585" y="227" type="curve" smooth="yes"/>
      <point x="585" y="369"/>
      <point x="481" y="456"/>
      <point x="368" y="456" type="curve" smooth="yes"/>
      <point x="310" y="456"/>
      <point x="244" y="428"/>
      <point x="213" y="381" type="curve"/>
      <point x="215" y="507"/>
      <point x="255" y="574"/>
      <point x="327" y="574" type="curve" smooth="yes"/>
      <point x="376" y="574"/>
      <point x="406" y="548"/>
      <point x="416" y="500" type="curve"/>
      <point x="575" y="500" type="line"/>
      <point x="566" y="608"/>
      <point x="486" y="712"/>
      <point x="329" y="712" type="curve" smooth="yes"/>
      <point x="149" y="712"/>
      <point x="44" y="568"/>
      <point x="44" y="331" type="curve" smooth="yes"/>
      <point x="44" y="165"/>
      <point x="116" y="-12"/>
    </contour>
    <contour>
      <point x="327" y="133" type="curve" smooth="yes"/>
      <point x="269" y="133"/>
      <point x="227" y="171"/>
      <point x="227" y="225" type="curve" smooth="yes"/>
      <point x="227" y="277"/>
      <point x="269" y="313"/>
      <point x="325" y="313" type="curve" smooth="yes"/>
      <point x="383" y="313"/>
      <point x="424" y="277"/>
      <point x="424" y="222" type="curve" smooth="yes"/>
      <point x="424" y="171"/>
      <point x="383" y="133"/>
    </contour>
  </outline>
</glyph>
<glyph name="seven" format="1">
  <advance width="535"/>
  <unicode hex="0037"/>
  <outline>
    <contour>
      <point x="85" y="0" type="line"/>
      <point x="260" y="0" type="line"/>
      <point x="511" y="582" type="line"/>
      <point x="511" y="700" type="line"/>
      <point x="28" y="700" type="line"/>
      <point x="28" y="554" type="line"/>
      <point x="335" y="554" type="line"/>
    </contour>
  </outline>
</glyph>
<glyph name="eight" format="1">
  <advance width="648"/>
  <unicode hex="0038"/>
  <outline>
    <contour>
      <point x="324" y="-12" type="curve" smooth="yes"/>
      <point x="473" y="-12"/>
      <point x="594" y="70"/>
      <point x="594" y="201" type="curve" smooth="yes"/>
      <point x="594" y="284"/>
      <point x="553" y="345"/>
      <point x="486" y="379" type="curve"/>
      <point x="537" y="408"/>
      <point x="576" y="461"/>
      <point x="576" y="524" type="curve" smooth="yes"/>
      <point x="576" y="620"/>
      <point x="496" y="712"/>
      <point x="324" y="712" type="curve" smooth="yes"/>
      <point x="152" y="712"/>
      <point x="71" y="620"/>
      <point x="71" y="524" type="curve" smooth="yes"/>
      <point x="71" y="459"/>
      <point x="109" y="409"/>
      <point x="161" y="379" type="curve"/>
      <point x="95" y="346"/>
      <point x="54" y="284"/>
      <point x="54" y="201" type="curve" smooth="yes"/>
      <point x="54" y="70"/>
      <point x="175" y="-12"/>
    </contour>
    <contour>
      <point x="324" y="128" type="curve" smooth="yes"/>
      <point x="257" y="128"/>
      <point x="219" y="168"/>
      <point x="219" y="216" type="curve" smooth="yes"/>
      <point x="219" y="268"/>
      <point x="257" y="305"/>
      <point x="324" y="305" type="curve" smooth="yes"/>
      <point x="391" y="305"/>
      <point x="427" y="268"/>
      <point x="427" y="216" type="curve" smooth="yes"/>
      <point x="427" y="168"/>
      <point x="391" y="128"/>
    </contour>
    <contour>
      <point x="324" y="425" type="curve" smooth="yes"/>
      <point x="268" y="425"/>
      <point x="238" y="456"/>
      <point x="238" y="499" type="curve" smooth="yes"/>
      <point x="238" y="545"/>
      <point x="268" y="576"/>
      <point x="324" y="576" type="curve" smooth="yes"/>
      <point x="380" y="576"/>
      <point x="410" y="545"/>
      <point x="410" y="500" type="curve" smooth="yes"/>
      <point x="410" y="457"/>
      <point x="380" y="425"/>
    </contour>
  </outline>
</glyph>
<glyph name="nine" format="1">
  <advance width="637"/>
  <unicode hex="0039"/>
  <outline>
    <contour>
      <point x="308" y="-12" type="curve" smooth="yes"/>
      <point x="488" y="-12"/>
      <point x="593" y="132"/>
      <point x="593" y="369" type="curve" smooth="yes"/>
      <point x="593" y="535"/>
      <point x="521" y="712"/>
      <point x="301" y="712" type="curve" smooth="yes"/>
      <point x="158" y="712"/>
      <point x="52" y="608"/>
      <point x="52" y="473" type="curve" smooth="yes"/>
      <point x="52" y="331"/>
      <point x="156" y="244"/>
      <point x="269" y="244" type="curve" smooth="yes"/>
      <point x="327" y="244"/>
      <point x="393" y="272"/>
      <point x="424" y="319" type="curve"/>
      <point x="422" y="193"/>
      <point x="382" y="126"/>
      <point x="310" y="126" type="curve" smooth="yes"/>
      <point x="261" y="126"/>
      <point x="231" y="152"/>
      <point x="221" y="200" type="curve"/>
      <point x="62" y="200" type="line"/>
      <point x="71" y="92"/>
      <point x="151" y="-12"/>
    </contour>
    <contour>
      <point x="312" y="387" type="curve" smooth="yes"/>
      <point x="254" y="387"/>
      <point x="213" y="423"/>
      <point x="213" y="478" type="curve" smooth="yes"/>
      <point x="213" y="529"/>
      <point x="254" y="567"/>
      <point x="310" y="567" type="curve" smooth="yes"/>
      <point x="368" y="567"/>
      <point x="410" y="529"/>
      <point x="410" y="475" type="curve" smooth="yes"/>
      <point x="410" y="423"/>
      <point x="368" y="387"/>
    </contour>
  </outline>
</glyph>
<glyph name="less" format="1">
  <advance width="542"/>
  <unicode hex="003C"/>
  <outline>
    <contour>
      <point x="263" y="129" type="line"/>
      <point x="478" y="129" type="line"/>
      <point x="274" y="350" type="line"/>
      <point x="478" y="571" type="line"/>
      <point x="263" y="571" type="line"/>
      <point x="60" y="350" type="line"/>
    </contour>
  </outline>
</glyph>
<glyph name="equal" format="1">
  <advance width="558"/>
  <unicode hex="003D"/>
  <outline>
    <contour>
      <point x="54" y="331" type="line"/>
      <point x="504" y="331" type="line"/>
      <point x="504" y="482" type="line"/>
      <point x="54" y="482" type="line"/>
    </contour>
    <contour>
      <point x="54" y="96" type="line"/>
      <point x="504" y="96" type="line"/>
      <point x="504" y="247" type="line"/>
      <point x="54" y="247" type="line"/>
    </contour>
  </outline>
</glyph>
<glyph name="greater" format="1">
  <advance width="542"/>
  <unicode hex="003E"/>
  <outline>
    <contour>
      <point x="64" y="129" type="line"/>
      <point x="279" y="129" type="line"/>
      <point x="482" y="350" type="line"/>
      <point x="279" y="571" type="line"/>
      <point x="64" y="571" type="line"/>
      <point x="268" y="350" type="line"/>
    </contour>
  </outline>
</glyph>
<glyph name="question" format="1">
  <advance width="538"/>
  <unicode hex="003F"/>
  <outline>
    <contour>
      <point x="123" y="239" type="line"/>
      <point x="275" y="239" type="line"/>
      <point x="279" y="298" type="line"/>
      <point x="410" y="299"/>
      <point x="503" y="369"/>
      <point x="503" y="498" type="curve" smooth="yes"/>
      <point x="503" y="637"/>
      <point x="406" y="712"/>
      <point x="267" y="712" type="curve" smooth="yes"/>
      <point x="109" y="712"/>
      <point x="25" y="616"/>
      <point x="28" y="496" type="curve"/>
      <point x="189" y="496" type="line"/>
      <point x="189" y="542"/>
      <point x="216" y="572"/>
      <point x="265" y="572" type="curve" smooth="yes"/>
      <point x="309" y="572"/>
      <point x="337" y="544"/>
      <point x="337" y="499" type="curve" smooth="yes"/>
      <point x="337" y="426"/>
      <point x="273" y="409"/>
      <point x="179" y="409" type="curve" smooth="yes"/>
      <point x="119" y="409" type="line"/>
    </contour>
    <component base="period" xOffset="59" identifier="5F677389"/>
  </outline>
</glyph>
<glyph name="at" format="1">
  <advance width="1080"/>
  <unicode hex="0040"/>
  <outline>
    <contour>
      <point x="454" y="-225" type="curve" smooth="yes"/>
      <point x="534" y="-225"/>
      <point x="608" y="-211"/>
      <point x="674" y="-182" type="curve"/>
      <point x="647" y="-73" type="line"/>
      <point x="597" y="-96"/>
      <point x="534" y="-109"/>
      <point x="470" y="-109" type="curve" smooth="yes"/>
      <point x="301" y="-109"/>
      <point x="202" y="-15"/>
      <point x="202" y="146" type="curve" smooth="yes"/>
      <point x="202" y="373"/>
      <point x="372" y="553"/>
      <point x="601" y="553" type="curve" smooth="yes"/>
      <point x="776" y="553"/>
      <point x="877" y="460"/>
      <point x="877" y="308" type="curve" smooth="yes"/>
      <point x="877" y="214"/>
      <point x="847" y="105"/>
      <point x="778" y="105" type="curve" smooth="yes"/>
      <point x="739" y="105"/>
      <point x="734" y="135"/>
      <point x="742" y="181" type="curve" smooth="yes"/>
      <point x="786" y="432" type="line"/>
      <point x="648" y="432" type="line"/>
      <point x="629" y="324" type="line"/>
      <point x="650" y="341" type="line"/>
      <point x="640" y="403"/>
      <point x="599" y="439"/>
      <point x="525" y="439" type="curve" smooth="yes"/>
      <point x="388" y="439"/>
      <point x="293" y="305"/>
      <point x="293" y="159" type="curve" smooth="yes"/>
      <point x="293" y="56"/>
      <point x="353" y="-7"/>
      <point x="452" y="-7" type="curve" smooth="yes"/>
      <point x="537" y="-7"/>
      <point x="609" y="38"/>
      <point x="641" y="112" type="curve"/>
      <point x="619" y="182" type="line"/>
      <point x="616" y="151" type="line"/>
      <point x="601" y="56"/>
      <point x="652" y="-5"/>
      <point x="754" y="-5" type="curve" smooth="yes"/>
      <point x="918" y="-5"/>
      <point x="1007" y="146"/>
      <point x="1007" y="313" type="curve" smooth="yes"/>
      <point x="1007" y="523"/>
      <point x="858" y="668"/>
      <point x="618" y="668" type="curve" smooth="yes"/>
      <point x="306" y="668"/>
      <point x="73" y="440"/>
      <point x="73" y="133" type="curve" smooth="yes"/>
      <point x="73" y="-85"/>
      <point x="224" y="-225"/>
    </contour>
    <contour>
      <point x="508" y="116" type="curve" smooth="yes"/>
      <point x="463" y="116"/>
      <point x="441" y="146"/>
      <point x="441" y="189" type="curve" smooth="yes"/>
      <point x="441" y="257"/>
      <point x="483" y="317"/>
      <point x="543" y="317" type="curve" smooth="yes"/>
      <point x="588" y="317"/>
      <point x="614" y="285"/>
      <point x="614" y="240" type="curve" smooth="yes"/>
      <point x="614" y="172"/>
      <point x="565" y="116"/>
    </contour>
  </outline>
</glyph>
<glyph name="A" format="1">
  <advance width="738"/>
  <unicode hex="0041"/>
  <outline>
    <contour>
      <point x="16" y="0" type="line"/>
      <point x="195" y="0" type="line"/>
      <point x="402" y="610" type="line"/>
      <point x="335" y="610" type="line"/>
      <point x="541" y="0" type="line"/>
      <point x="722" y="0" type="line"/>
      <point x="468" y="700" type="line"/>
      <point x="270" y="700" type="line"/>
    </contour>
    <contour>
      <point x="125" y="144" type="line"/>
      <point x="596" y="144" type="line"/>
      <point x="553" y="276" type="line"/>
      <point x="169" y="276" type="line"/>
    </contour>
    <contour>
      <point x="722" y="0" type="move" name="ogonek"/>
    </contour>
    <contour>
      <point x="369" y="700" type="move" name="top"/>
    </contour>
  </outline>
</glyph>
<glyph name="B" format="1">
  <advance width="659"/>
  <unicode hex="0042"/>
  <outline>
    <contour>
      <point x="62" y="0" type="line"/>
      <point x="389" y="0" type="line" smooth="yes"/>
      <point x="537" y="0"/>
      <point x="622" y="75"/>
      <point x="622" y="191" type="curve" smooth="yes"/>
      <point x="622" y="281"/>
      <point x="555" y="360"/>
      <point x="456" y="364" type="curve"/>
      <point x="439" y="352" type="line"/>
      <point x="531" y="358"/>
      <point x="606" y="414"/>
      <point x="606" y="518" type="curve" smooth="yes"/>
      <point x="606" y="629"/>
      <point x="521" y="700"/>
      <point x="378" y="700" type="curve" smooth="yes"/>
      <point x="62" y="700" type="line"/>
    </contour>
    <contour>
      <point x="233" y="138" type="line"/>
      <point x="233" y="293" type="line"/>
      <point x="357" y="293" type="line" smooth="yes"/>
      <point x="414" y="293"/>
      <point x="449" y="264"/>
      <point x="449" y="214" type="curve" smooth="yes"/>
      <point x="449" y="164"/>
      <point x="416" y="138"/>
      <point x="359" y="138" type="curve" smooth="yes"/>
    </contour>
    <contour>
      <point x="233" y="418" type="line"/>
      <point x="233" y="565" type="line"/>
      <point x="345" y="565" type="line" smooth="yes"/>
      <point x="401" y="565"/>
      <point x="432" y="539"/>
      <point x="432" y="491" type="curve" smooth="yes"/>
      <point x="432" y="443"/>
      <point x="401" y="418"/>
      <point x="345" y="418" type="curve" smooth="yes"/>
    </contour>
  </outline>
</glyph>
<glyph name="C" format="1">
  <advance width="754"/>
  <unicode hex="0043"/>
  <outline>
    <contour>
      <point x="388" y="-12" type="curve" smooth="yes"/>
      <point x="564" y="-12"/>
      <point x="685" y="81"/>
      <point x="711" y="233" type="curve"/>
      <point x="523" y="233" type="line"/>
      <point x="508" y="173"/>
      <point x="460" y="143"/>
      <point x="386" y="143" type="curve" smooth="yes"/>
      <point x="276" y="143"/>
      <point x="217" y="221"/>
      <point x="217" y="348" type="curve" smooth="yes"/>
      <point x="217" y="476"/>
      <point x="276" y="556"/>
      <point x="386" y="556" type="curve" smooth="yes"/>
      <point x="460" y="556"/>
      <point x="509" y="520"/>
      <point x="523" y="454" type="curve"/>
      <point x="711" y="454" type="line"/>
      <point x="685" y="618"/>
      <point x="564" y="712"/>
      <point x="388" y="712" type="curve" smooth="yes"/>
      <point x="172" y="712"/>
      <point x="43" y="562"/>
      <point x="43" y="348" type="curve" smooth="yes"/>
      <point x="43" y="135"/>
      <point x="172" y="-12"/>
    </contour>
    <contour>
      <point x="391" y="0" type="move" name="bottom"/>
    </contour>
    <contour>
      <point x="391" y="700" type="move" name="top"/>
    </contour>
  </outline>
</glyph>
<glyph name="D" format="1">
  <advance width="726"/>
  <unicode hex="0044"/>
  <outline>
    <contour>
      <point x="62" y="0" type="line"/>
      <point x="325" y="0" type="line" smooth="yes"/>
      <point x="569" y="0"/>
      <point x="683" y="143"/>
      <point x="683" y="351" type="curve" smooth="yes"/>
      <point x="683" y="558"/>
      <point x="569" y="700"/>
      <point x="325" y="700" type="curve" smooth="yes"/>
      <point x="62" y="700" type="line"/>
    </contour>
    <contour>
      <point x="233" y="148" type="line"/>
      <point x="233" y="554" type="line"/>
      <point x="314" y="554" type="line" smooth="yes"/>
      <point x="463" y="554"/>
      <point x="509" y="478"/>
      <point x="509" y="351" type="curve" smooth="yes"/>
      <point x="509" y="222"/>
      <point x="463" y="148"/>
      <point x="314" y="148" type="curve" smooth="yes"/>
    </contour>
    <contour>
      <point x="297" y="700" type="move" name="top"/>
    </contour>
  </outline>
</glyph>
<glyph name="E" format="1">
  <advance width="592"/>
  <unicode hex="0045"/>
  <outline>
    <contour>
      <point x="62" y="0" type="line"/>
      <point x="542" y="0" type="line"/>
      <point x="542" y="137" type="line"/>
      <point x="233" y="137" type="line"/>
      <point x="233" y="291" type="line"/>
      <point x="512" y="291" type="line"/>
      <point x="512" y="423" type="line"/>
      <point x="233" y="423" type="line"/>
      <point x="233" y="563" type="line"/>
      <point x="542" y="563" type="line"/>
      <point x="542" y="700" type="line"/>
      <point x="62" y="700" type="line"/>
    </contour>
    <contour>
      <point x="303" y="0" type="move" name="bottom"/>
    </contour>
    <contour>
      <point x="542" y="0" type="move" name="ogonek"/>
    </contour>
    <contour>
      <point x="303" y="700" type="move" name="top"/>
    </contour>
  </outline>
</glyph>
<glyph name="F" format="1">
  <advance width="567"/>
  <unicode hex="0046"/>
  <outline>
    <contour>
      <point x="62" y="0" type="line"/>
      <point x="233" y="0" type="line"/>
      <point x="233" y="284" type="line"/>
      <point x="467" y="284" type="line"/>
      <point x="467" y="417" type="line"/>
      <point x="233" y="417" type="line"/>
      <point x="233" y="563" type="line"/>
      <point x="539" y="563" type="line"/>
      <point x="539" y="700" type="line"/>
      <point x="62" y="700" type="line"/>
    </contour>
  </outline>
</glyph>
<glyph name="G" format="1">
  <advance width="788"/>
  <unicode hex="0047"/>
  <outline>
    <contour>
      <point x="374" y="-12" type="curve" smooth="yes"/>
      <point x="464" y="-12"/>
      <point x="524" y="17"/>
      <point x="564" y="70" type="curve"/>
      <point x="577" y="0" type="line"/>
      <point x="735" y="0" type="line"/>
      <point x="735" y="396" type="line"/>
      <point x="413" y="396" type="line"/>
      <point x="413" y="270" type="line"/>
      <point x="564" y="270" type="line"/>
      <point x="550" y="198"/>
      <point x="499" y="139"/>
      <point x="395" y="139" type="curve" smooth="yes"/>
      <point x="281" y="139"/>
      <point x="217" y="209"/>
      <point x="217" y="342" type="curve" smooth="yes"/>
      <point x="217" y="472"/>
      <point x="278" y="554"/>
      <point x="402" y="554" type="curve" smooth="yes"/>
      <point x="470" y="554"/>
      <point x="512" y="529"/>
      <point x="534" y="482" type="curve"/>
      <point x="723" y="482" type="line"/>
      <point x="690" y="626"/>
      <point x="573" y="712"/>
      <point x="403" y="712" type="curve" smooth="yes"/>
      <point x="177" y="712"/>
      <point x="43" y="559"/>
      <point x="43" y="343" type="curve" smooth="yes"/>
      <point x="43" y="129"/>
      <point x="174" y="-12"/>
    </contour>
    <contour>
      <point x="391" y="0" type="move" name="bottom"/>
    </contour>
    <contour>
      <point x="400" y="700" type="move" name="top"/>
    </contour>
  </outline>
</glyph>
<glyph name="H" format="1">
  <advance width="732"/>
  <unicode hex="0048"/>
  <outline>
    <contour>
      <point x="499" y="0" type="line"/>
      <point x="670" y="0" type="line"/>
      <point x="670" y="700" type="line"/>
      <point x="499" y="700" type="line"/>
    </contour>
    <contour>
      <point x="62" y="0" type="line"/>
      <point x="233" y="0" type="line"/>
      <point x="233" y="700" type="line"/>
      <point x="62" y="700" type="line"/>
    </contour>
    <contour>
      <point x="213" y="289" type="line"/>
      <point x="523" y="289" type="line"/>
      <point x="523" y="427" type="line"/>
      <point x="213" y="427" type="line"/>
    </contour>
  </outline>
</glyph>
<glyph name="J" format="1">
  <advance width="564"/>
  <unicode hex="004A"/>
  <outline>
    <contour>
      <point x="271" y="-12" type="curve" smooth="yes"/>
      <point x="410" y="-12"/>
      <point x="502" y="68"/>
      <point x="502" y="219" type="curve" smooth="yes"/>
      <point x="502" y="700" type="line"/>
      <point x="331" y="700" type="line"/>
      <point x="331" y="219" type="line" smooth="yes"/>
      <point x="331" y="167"/>
      <point x="307" y="141"/>
      <point x="266" y="141" type="curve" smooth="yes"/>
      <point x="222" y="141"/>
      <point x="196" y="170"/>
      <point x="196" y="230" type="curve"/>
      <point x="26" y="230" type="line"/>
      <point x="26" y="72"/>
      <point x="127" y="-12"/>
    </contour>
  </outline>
</glyph>
<glyph name="M" format="1">
  <advance width="919"/>
  <unicode hex="004D"/>
  <outline>
    <contour>
      <point x="62" y="0" type="line"/>
      <point x="233" y="0" type="line"/>
      <point x="233" y="579" type="line"/>
      <point x="177" y="529" type="line"/>
      <point x="391" y="100" type="line"/>
      <point x="529" y="100" type="line"/>
      <point x="742" y="529" type="line"/>
      <point x="686" y="579" type="line"/>
      <point x="686" y="0" type="line"/>
      <point x="857" y="0" type="line"/>
      <point x="857" y="700" type="line"/>
      <point x="652" y="700" type="line"/>
      <point x="424" y="222" type="line"/>
      <point x="495" y="233" type="line"/>
      <point x="268" y="700" type="line"/>
      <point x="62" y="700" type="line"/>
    </contour>
  </outline>
</glyph>
<glyph name="N" format="1">
  <advance width="752"/>
  <unicode hex="004E"/>
  <outline>
    <contour>
      <point x="62" y="0" type="line"/>
      <point x="233" y="0" type="line"/>
      <point x="233" y="425" type="line"/>
      <point x="519" y="0" type="line"/>
      <point x="690" y="0" type="line"/>
      <point x="690" y="700" type="line"/>
      <point x="519" y="700" type="line"/>
      <point x="519" y="273" type="line"/>
      <point x="233" y="700" type="line"/>
      <point x="62" y="700" type="line"/>
    </contour>
    <contour>
      <point x="376" y="0" type="move" name="bottom"/>
    </contour>
    <contour>
      <point x="376" y="700" type="move" name="top"/>
    </contour>
  </outline>
</glyph>
<glyph name="O" format="1">
  <advance width="798"/>
  <unicode hex="004F"/>
  <outline>
    <contour>
      <point x="399" y="-12" type="curve" smooth="yes"/>
      <point x="609" y="-12"/>
      <point x="755" y="136"/>
      <point x="755" y="350" type="curve" smooth="yes"/>
      <point x="755" y="564"/>
      <point x="609" y="712"/>
      <point x="399" y="712" type="curve" smooth="yes"/>
      <point x="189" y="712"/>
      <point x="43" y="564"/>
      <point x="43" y="350" type="curve" smooth="yes"/>
      <point x="43" y="136"/>
      <point x="189" y="-12"/>
    </contour>
    <contour>
      <point x="399" y="143" type="curve" smooth="yes"/>
      <point x="286" y="143"/>
      <point x="217" y="223"/>
      <point x="217" y="350" type="curve" smooth="yes"/>
      <point x="217" y="477"/>
      <point x="286" y="557"/>
      <point x="399" y="557" type="curve" smooth="yes"/>
      <point x="512" y="557"/>
      <point x="581" y="477"/>
      <point x="581" y="350" type="curve" smooth="yes"/>
      <point x="581" y="223"/>
      <point x="512" y="143"/>
    </contour>
    <contour>
      <point x="400" y="700" type="move" name="top"/>
    </contour>
  </outline>
</glyph>
<glyph name="P" format="1">
  <advance width="634"/>
  <unicode hex="0050"/>
  <outline>
    <contour>
      <point x="62" y="0" type="line"/>
      <point x="233" y="0" type="line"/>
      <point x="233" y="250" type="line"/>
      <point x="349" y="250" type="line" smooth="yes"/>
      <point x="528" y="250"/>
      <point x="607" y="358"/>
      <point x="607" y="474" type="curve" smooth="yes"/>
      <point x="607" y="603"/>
      <point x="521" y="700"/>
      <point x="349" y="700" type="curve" smooth="yes"/>
      <point x="62" y="700" type="line"/>
    </contour>
    <contour>
      <point x="233" y="386" type="line"/>
      <point x="233" y="562" type="line"/>
      <point x="336" y="562" type="line" smooth="yes"/>
      <point x="404" y="562"/>
      <point x="433" y="528"/>
      <point x="433" y="474" type="curve" smooth="yes"/>
      <point x="433" y="420"/>
      <point x="404" y="386"/>
      <point x="336" y="386" type="curve" smooth="yes"/>
    </contour>
  </outline>
</glyph>
<glyph name="Q" format="1">
  <advance width="788"/>
  <unicode hex="0051"/>
  <outline>
    <contour>
      <point x="562" y="-120" type="line"/>
      <point x="769" y="-120" type="line"/>
      <point x="580" y="107" type="line"/>
      <point x="417" y="75" type="line"/>
    </contour>
    <component base="O" identifier="38483A8A"/>
  </outline>
</glyph>
<glyph name="R" format="1">
  <advance width="652"/>
  <unicode hex="0052"/>
  <outline>
    <contour>
      <point x="62" y="0" type="line"/>
      <point x="233" y="0" type="line"/>
      <point x="233" y="263" type="line"/>
      <point x="349" y="263" type="line" smooth="yes"/>
      <point x="529" y="263"/>
      <point x="607" y="367"/>
      <point x="607" y="479" type="curve" smooth="yes"/>
      <point x="607" y="601"/>
      <point x="521" y="700"/>
      <point x="349" y="700" type="curve" smooth="yes"/>
      <point x="62" y="700" type="line"/>
    </contour>
    <contour>
      <point x="420" y="0" type="line"/>
      <point x="613" y="0" type="line"/>
      <point x="466" y="304" type="line"/>
      <point x="283" y="304" type="line"/>
    </contour>
    <contour>
      <point x="233" y="384" type="line"/>
      <point x="233" y="558" type="line"/>
      <point x="339" y="558" type="line" smooth="yes"/>
      <point x="403" y="558"/>
      <point x="433" y="524"/>
      <point x="433" y="472" type="curve" smooth="yes"/>
      <point x="433" y="417"/>
      <point x="403" y="384"/>
      <point x="339" y="384" type="curve" smooth="yes"/>
    </contour>
    <contour>
      <point x="321" y="0" type="move" name="bottom"/>
    </contour>
    <contour>
      <point x="301" y="700" type="move" name="top"/>
    </contour>
  </outline>
</glyph>
<glyph name="S" format="1">
  <advance width="616"/>
  <unicode hex="0053"/>
  <outline>
    <contour>
      <point x="316" y="-12" type="curve" smooth="yes"/>
      <point x="480" y="-12"/>
      <point x="572" y="86"/>
      <point x="572" y="204" type="curve" smooth="yes"/>
      <point x="572" y="337"/>
      <point x="475" y="382"/>
      <point x="368" y="418" type="curve" smooth="yes"/>
      <point x="293" y="443"/>
      <point x="233" y="463"/>
      <point x="233" y="515" type="curve" smooth="yes"/>
      <point x="233" y="552"/>
      <point x="264" y="570"/>
      <point x="301" y="569" type="curve" smooth="yes"/>
      <point x="339" y="568"/>
      <point x="371" y="542"/>
      <point x="374" y="502" type="curve"/>
      <point x="559" y="502" type="line"/>
      <point x="552" y="636"/>
      <point x="449" y="712"/>
      <point x="302" y="712" type="curve" smooth="yes"/>
      <point x="161" y="712"/>
      <point x="52" y="638"/>
      <point x="52" y="505" type="curve" smooth="yes"/>
      <point x="52" y="398"/>
      <point x="117" y="341"/>
      <point x="225" y="305" type="curve" smooth="yes"/>
      <point x="312" y="276"/>
      <point x="389" y="253"/>
      <point x="389" y="192" type="curve" smooth="yes"/>
      <point x="389" y="150"/>
      <point x="356" y="131"/>
      <point x="315" y="131" type="curve" smooth="yes"/>
      <point x="265" y="131"/>
      <point x="228" y="162"/>
      <point x="224" y="212" type="curve"/>
      <point x="42" y="212" type="line"/>
      <point x="47" y="63"/>
      <point x="165" y="-12"/>
    </contour>
    <contour>
      <point x="314" y="0" type="move" name="bottom"/>
    </contour>
    <contour>
      <point x="306" y="700" type="move" name="top"/>
    </contour>
  </outline>
</glyph>
<glyph name="T" format="1">
  <advance width="621"/>
  <unicode hex="0054"/>
  <outline>
    <contour>
      <point x="225" y="0" type="line"/>
      <point x="396" y="0" type="line"/>
      <point x="396" y="563" type="line"/>
      <point x="597" y="563" type="line"/>
      <point x="597" y="700" type="line"/>
      <point x="24" y="700" type="line"/>
      <point x="24" y="563" type="line"/>
      <point x="225" y="563" type="line"/>
    </contour>
    <contour>
      <point x="307" y="0" type="move" name="bottom"/>
    </contour>
    <contour>
      <point x="308" y="700" type="move" name="top"/>
    </contour>
  </outline>
</glyph>
<glyph name="U" format="1">
  <advance width="705"/>
  <unicode hex="0055"/>
  <outline>
    <contour>
      <point x="349" y="-12" type="curve" smooth="yes"/>
      <point x="511" y="-12"/>
      <point x="647" y="84"/>
      <point x="647" y="278" type="curve" smooth="yes"/>
      <point x="647" y="700" type="line"/>
      <point x="476" y="700" type="line"/>
      <point x="476" y="277" type="line" smooth="yes"/>
      <point x="476" y="194"/>
      <point x="433" y="146"/>
      <point x="352" y="146" type="curve" smooth="yes"/>
      <point x="271" y="146"/>
      <point x="230" y="194"/>
      <point x="230" y="277" type="curve" smooth="yes"/>
      <point x="230" y="700" type="line"/>
      <point x="59" y="700" type="line"/>
      <point x="59" y="278" type="line" smooth="yes"/>
      <point x="59" y="84"/>
      <point x="186" y="-12"/>
    </contour>
    <contour>
      <point x="434" y="2" type="move" name="ogonek"/>
    </contour>
    <contour>
      <point x="353" y="700" type="move" name="top"/>
    </contour>
  </outline>
</glyph>
<glyph name="V" format="1">
  <advance width="730"/>
  <unicode hex="0056"/>
  <outline>
    <contour>
      <point x="258" y="0" type="line"/>
      <point x="472" y="0" type="line"/>
      <point x="721" y="700" type="line"/>
      <point x="540" y="700" type="line"/>
      <point x="365" y="172" type="line"/>
      <point x="191" y="700" type="line"/>
      <point x="9" y="700" type="line"/>
    </contour>
  </outline>
</glyph>
<glyph name="W" format="1">
  <advance width="1051"/>
  <unicode hex="0057"/>
  <outline>
    <contour>
      <point x="202" y="0" type="line"/>
      <point x="409" y="0" type="line"/>
      <point x="537" y="509" type="line"/>
      <point x="513" y="509" type="line"/>
      <point x="637" y="0" type="line"/>
      <point x="844" y="0" type="line"/>
      <point x="1027" y="700" type="line"/>
      <point x="843" y="700" type="line"/>
      <point x="721" y="90" type="line"/>
      <point x="765" y="90" type="line"/>
      <point x="621" y="700" type="line"/>
      <point x="433" y="700" type="line"/>
      <point x="284" y="91" type="line"/>
      <point x="328" y="91" type="line"/>
      <point x="207" y="700" type="line"/>
      <point x="24" y="700" type="line"/>
    </contour>
    <contour>
      <point x="525" y="0" type="move" name="bottom"/>
    </contour>
    <contour>
      <point x="525" y="700" type="move" name="top"/>
    </contour>
  </outline>
</glyph>
<glyph name="X" format="1">
  <advance width="715"/>
  <unicode hex="0058"/>
  <outline>
    <contour>
      <point x="492" y="0" type="line"/>
      <point x="691" y="0" type="line"/>
      <point x="223" y="700" type="line"/>
      <point x="24" y="700" type="line"/>
    </contour>
    <contour>
      <point x="29" y="0" type="line"/>
      <point x="223" y="0" type="line"/>
      <point x="378" y="265" type="line"/>
      <point x="280" y="398" type="line"/>
    </contour>
    <contour>
      <point x="431" y="304" type="line"/>
      <point x="682" y="700" type="line"/>
      <point x="488" y="700" type="line"/>
      <point x="333" y="437" type="line"/>
    </contour>
  </outline>
</glyph>
<glyph name="Y" format="1">
  <advance width="671"/>
  <unicode hex="0059"/>
  <outline>
    <contour>
      <point x="250" y="0" type="line"/>
      <point x="421" y="0" type="line"/>
      <point x="421" y="232" type="line"/>
      <point x="663" y="700" type="line"/>
      <point x="471" y="700" type="line"/>
      <point x="318" y="367" type="line"/>
      <point x="356" y="367" type="line"/>
      <point x="202" y="700" type="line"/>
      <point x="8" y="700" type="line"/>
      <point x="250" y="232" type="line"/>
    </contour>
    <contour>
      <point x="336" y="700" type="move" name="top"/>
    </contour>
  </outline>
</glyph>
<glyph name="Z" format="1">
  <advance width="596"/>
  <unicode hex="005A"/>
  <outline>
    <contour>
      <point x="50" y="0" type="line"/>
      <point x="546" y="0" type="line"/>
      <point x="546" y="140" type="line"/>
      <point x="244" y="140" type="line"/>
      <point x="546" y="570" type="line"/>
      <point x="546" y="700" type="line"/>
      <point x="50" y="700" type="line"/>
      <point x="50" y="560" type="line"/>
      <point x="350" y="560" type="line"/>
      <point x="50" y="130" type="line"/>
    </contour>
    <contour>
      <point x="298" y="700" type="move" name="top"/>
    </contour>
  </outline>
</glyph>
<glyph name="bracketleft" format="1">
  <advance width="412"/>
  <unicode hex="005B"/>
  <outline>
    <contour>
      <point x="62" y="-189" type="line"/>
      <point x="362" y="-189" type="line"/>
      <point x="362" y="-50" type="line"/>
      <point x="222" y="-50" type="line"/>
      <point x="222" y="673" type="line"/>
      <point x="362" y="673" type="line"/>
      <point x="362" y="811" type="line"/>
      <point x="62" y="811" type="line"/>
    </contour>
  </outline>
</glyph>
<glyph name="backslash" format="1">
  <advance width="450"/>
  <unicode hex="005C"/>
  <outline>
    <contour>
      <point x="267" y="-127" type="line"/>
      <point x="432" y="-127" type="line"/>
      <point x="183" y="790" type="line"/>
      <point x="18" y="790" type="line"/>
    </contour>
  </outline>
</glyph>
<glyph name="bracketright" format="1">
  <advance width="412"/>
  <unicode hex="005D"/>
  <outline>
    <contour>
      <point x="50" y="-189" type="line"/>
      <point x="350" y="-189" type="line"/>
      <point x="350" y="811" type="line"/>
      <point x="50" y="811" type="line"/>
      <point x="50" y="673" type="line"/>
      <point x="190" y="673" type="line"/>
      <point x="190" y="-50" type="line"/>
      <point x="50" y="-50" type="line"/>
    </contour>
  </outline>
</glyph>
<glyph name="asciicircum" format="1">
  <advance width="709"/>
  <unicode hex="005E"/>
  <outline>
    <contour>
      <point x="30" y="161" type="line"/>
      <point x="202" y="161" type="line"/>
      <point x="355" y="502" type="line"/>
      <point x="507" y="161" type="line"/>
      <point x="679" y="161" type="line"/>
      <point x="438" y="700" type="line"/>
      <point x="272" y="700" type="line"/>
    </contour>
  </outline>
</glyph>
<glyph name="underscore" format="1">
  <advance width="720"/>
  <unicode hex="005F"/>
  <outline>
    <contour>
      <point x="50" y="-205" type="line"/>
      <point x="670" y="-205" type="line"/>
      <point x="670" y="-41" type="line"/>
      <point x="50" y="-41" type="line"/>
    </contour>
  </outline>
</glyph>
<glyph name="grave" format="1">
  <advance width="261"/>
  <unicode hex="0060"/>
  <outline>
    <contour>
      <point x="251" y="534" type="line"/>
      <point x="251" y="652" type="line"/>
      <point x="10" y="768" type="line"/>
      <point x="10" y="635" type="line"/>
    </contour>
    <contour>
      <point x="196" y="496" type="move" name="_top"/>
    </contour>
  </outline>
</glyph>
<glyph name="a" format="1">
  <advance width="611"/>
  <unicode hex="0061"/>
  <outline>
    <contour>
      <point x="414" y="0" type="line"/>
      <point x="555" y="0" type="line"/>
      <point x="555" y="305" type="line" smooth="yes"/>
      <point x="555" y="441"/>
      <point x="452" y="508"/>
      <point x="308" y="508" type="curve" smooth="yes"/>
      <point x="167" y="508"/>
      <point x="73" y="431"/>
      <point x="64" y="321" type="curve"/>
      <point x="227" y="321" type="line"/>
      <point x="234" y="355"/>
      <point x="266" y="371"/>
      <point x="307" y="371" type="curve" smooth="yes"/>
      <point x="347" y="371"/>
      <point x="384" y="354"/>
      <point x="384" y="305" type="curve" smooth="yes"/>
      <point x="384" y="92" type="line"/>
    </contour>
    <contour>
      <point x="237" y="-12" type="curve" smooth="yes"/>
      <point x="345" y="-12"/>
      <point x="401" y="54"/>
      <point x="419" y="138" type="curve"/>
      <point x="384" y="276" type="line"/>
      <point x="384" y="187"/>
      <point x="362" y="116"/>
      <point x="283" y="116" type="curve" smooth="yes"/>
      <point x="255" y="116"/>
      <point x="231" y="126"/>
      <point x="231" y="152" type="curve" smooth="yes"/>
      <point x="231" y="176"/>
      <point x="250" y="192"/>
      <point x="287" y="192" type="curve" smooth="yes"/>
      <point x="414" y="192" type="line"/>
      <point x="414" y="287" type="line"/>
      <point x="266" y="287" type="line" smooth="yes"/>
      <point x="110" y="287"/>
      <point x="50" y="219"/>
      <point x="50" y="135" type="curve" smooth="yes"/>
      <point x="50" y="53"/>
      <point x="108" y="-12"/>
    </contour>
    <contour>
      <point x="555" y="0" type="move" name="ogonek"/>
    </contour>
    <contour>
      <point x="307" y="496" type="move" name="top"/>
    </contour>
  </outline>
</glyph>
<glyph name="c" format="1">
  <advance width="629"/>
  <unicode hex="0063"/>
  <outline>
    <contour>
      <point x="319" y="-12" type="curve" smooth="yes"/>
      <point x="453" y="-12"/>
      <point x="553" y="66"/>
      <point x="579" y="190" type="curve"/>
      <point x="396" y="190" type="line"/>
      <point x="385" y="154"/>
      <point x="356" y="134"/>
      <point x="318" y="134" type="curve" smooth="yes"/>
      <point x="260" y="134"/>
      <point x="224" y="182"/>
      <point x="224" y="248" type="curve" smooth="yes"/>
      <point x="224" y="314"/>
      <point x="260" y="362"/>
      <point x="318" y="362" type="curve" smooth="yes"/>
      <point x="356" y="362"/>
      <point x="385" y="340"/>
      <point x="396" y="306" type="curve"/>
      <point x="579" y="306" type="line"/>
      <point x="553" y="434"/>
      <point x="453" y="508"/>
      <point x="319" y="508" type="curve" smooth="yes"/>
      <point x="159" y="508"/>
      <point x="50" y="397"/>
      <point x="50" y="248" type="curve" smooth="yes"/>
      <point x="50" y="98"/>
      <point x="159" y="-12"/>
    </contour>
    <contour>
      <point x="315" y="0" type="move" name="bottom"/>
    </contour>
    <contour>
      <point x="324" y="496" type="move" name="top"/>
    </contour>
  </outline>
</glyph>
<glyph name="e" format="1">
  <advance width="626"/>
  <unicode hex="0065"/>
  <outline>
    <contour>
      <point x="320" y="-12" type="curve" smooth="yes"/>
      <point x="440" y="-12"/>
      <point x="536" y="65"/>
      <point x="567" y="164" type="curve"/>
      <point x="391" y="164" type="line"/>
      <point x="376" y="143"/>
      <point x="352" y="126"/>
      <point x="318" y="126" type="curve" smooth="yes"/>
      <point x="253" y="126"/>
      <point x="219" y="170"/>
      <point x="219" y="220" type="curve" smooth="yes"/>
      <point x="219" y="250" type="line" smooth="yes"/>
      <point x="219" y="333"/>
      <point x="262" y="372"/>
      <point x="321" y="372" type="curve" smooth="yes"/>
      <point x="368" y="372"/>
      <point x="403" y="341"/>
      <point x="407" y="300" type="curve"/>
      <point x="170" y="300" type="line"/>
      <point x="170" y="205" type="line"/>
      <point x="579" y="205" type="line"/>
      <point x="581" y="222"/>
      <point x="582" y="240"/>
      <point x="582" y="254" type="curve" smooth="yes"/>
      <point x="582" y="405"/>
      <point x="468" y="508"/>
      <point x="319" y="508" type="curve" smooth="yes"/>
      <point x="156" y="508"/>
      <point x="50" y="393"/>
      <point x="50" y="240" type="curve" smooth="yes"/>
      <point x="50" y="92"/>
      <point x="160" y="-12"/>
    </contour>
    <contour>
      <point x="316" y="-4" type="move" name="bottom"/>
    </contour>
    <contour>
      <point x="418" y="11" type="move" name="ogonek"/>
    </contour>
    <contour>
      <point x="318" y="496" type="move" name="top"/>
    </contour>
  </outline>
</glyph>
<glyph name="f" format="1">
  <advance width="385"/>
  <unicode hex="0066"/>
  <outline>
    <contour>
      <point x="80" y="0" type="line"/>
      <point x="251" y="0" type="line"/>
      <point x="251" y="528" type="line" smooth="yes"/>
      <point x="251" y="561"/>
      <point x="265" y="575"/>
      <point x="303" y="575" type="curve" smooth="yes"/>
      <point x="336" y="575" type="line"/>
      <point x="336" y="720" type="line"/>
      <point x="277" y="720" type="line" smooth="yes"/>
      <point x="161" y="720"/>
      <point x="80" y="671"/>
      <point x="80" y="526" type="curve" smooth="yes"/>
    </contour>
    <contour>
      <point x="18" y="354" type="line"/>
      <point x="343" y="354" type="line"/>
      <point x="343" y="496" type="line"/>
      <point x="18" y="496" type="line"/>
    </contour>
  </outline>
</glyph>
<glyph name="g" format="1">
  <advance width="585"/>
  <unicode hex="0067"/>
  <outline>
    <contour>
      <point x="282" y="-232" type="curve" smooth="yes"/>
      <point x="440" y="-232"/>
      <point x="514" y="-149"/>
      <point x="514" y="-59" type="curve" smooth="yes"/>
      <point x="514" y="35"/>
      <point x="451" y="83"/>
      <point x="321" y="96" type="curve" smooth="yes"/>
      <point x="239" y="105"/>
      <point x="211" y="112"/>
      <point x="185" y="128" type="curve"/>
      <point x="128" y="40" type="line"/>
      <point x="270" y="189" type="line"/>
      <point x="159" y="223" type="line"/>
      <point x="45" y="94" type="line"/>
      <point x="45" y="71" type="line"/>
      <point x="78" y="35"/>
      <point x="171" y="-1"/>
      <point x="290" y="-11" type="curve" smooth="yes"/>
      <point x="349" y="-16"/>
      <point x="362" y="-32"/>
      <point x="362" y="-62" type="curve" smooth="yes"/>
      <point x="362" y="-91"/>
      <point x="328" y="-107"/>
      <point x="282" y="-107" type="curve" smooth="yes"/>
      <point x="232" y="-107"/>
      <point x="189" y="-91"/>
      <point x="189" y="-58" type="curve" smooth="yes"/>
      <point x="189" y="-23"/>
      <point x="222" y="1"/>
      <point x="275" y="15" type="curve"/>
      <point x="230" y="105" type="line"/>
      <point x="116" y="71"/>
      <point x="40" y="11"/>
      <point x="40" y="-75" type="curve" smooth="yes"/>
      <point x="40" y="-179"/>
      <point x="133" y="-232"/>
    </contour>
    <contour>
      <point x="284" y="140" type="curve" smooth="yes"/>
      <point x="410" y="140"/>
      <point x="490" y="222"/>
      <point x="490" y="324" type="curve" smooth="yes"/>
      <point x="490" y="426"/>
      <point x="410" y="508"/>
      <point x="284" y="508" type="curve" smooth="yes"/>
      <point x="157" y="508"/>
      <point x="77" y="426"/>
      <point x="77" y="324" type="curve" smooth="yes"/>
      <point x="77" y="222"/>
      <point x="157" y="140"/>
    </contour>
    <contour>
      <point x="284" y="267" type="curve" smooth="yes"/>
      <point x="247" y="267"/>
      <point x="218" y="287"/>
      <point x="218" y="323" type="curve" smooth="yes"/>
      <point x="218" y="359"/>
      <point x="247" y="379"/>
      <point x="284" y="379" type="curve" smooth="yes"/>
      <point x="320" y="379"/>
      <point x="349" y="359"/>
      <point x="349" y="323" type="curve" smooth="yes"/>
      <point x="349" y="287"/>
      <point x="320" y="267"/>
    </contour>
    <contour>
      <point x="366" y="384" type="line"/>
      <point x="555" y="404" type="line"/>
      <point x="555" y="496" type="line"/>
      <point x="346" y="496" type="line"/>
    </contour>
    <contour>
      <point x="284" y="496" type="move" name="top"/>
    </contour>
  </outline>
</glyph>
<glyph name="h" format="1">
  <advance width="643"/>
  <unicode hex="0068"/>
  <outline>
    <contour>
      <point x="417" y="0" type="line"/>
      <point x="587" y="0" type="line"/>
      <point x="587" y="270" type="line" smooth="yes"/>
      <point x="587" y="420"/>
      <point x="521" y="508"/>
      <point x="392" y="508" type="curve" smooth="yes"/>
      <point x="296" y="508"/>
      <point x="236" y="455"/>
      <point x="211" y="386" type="curve"/>
      <point x="233" y="255" type="line"/>
      <point x="233" y="323"/>
      <point x="272" y="365"/>
      <point x="329" y="365" type="curve" smooth="yes"/>
      <point x="394" y="365"/>
      <point x="417" y="323"/>
      <point x="417" y="255" type="curve" smooth="yes"/>
    </contour>
    <contour>
      <point x="62" y="0" type="line"/>
      <point x="233" y="0" type="line"/>
      <point x="233" y="720" type="line"/>
      <point x="62" y="720" type="line"/>
    </contour>
    <contour>
      <point x="327" y="0" type="move" name="bottom"/>
    </contour>
    <contour>
      <point x="327" y="360" type="move" name="center"/>
    </contour>
    <contour>
      <point x="146" y="720" type="move" name="top"/>
    </contour>
  </outline>
</glyph>
<glyph name="i" format="1">
  <advance width="295"/>
  <unicode hex="0069"/>
  <outline>
    <contour>
      <point x="62" y="0" type="line"/>
      <point x="233" y="0" type="line"/>
      <point x="233" y="496" type="line"/>
      <point x="62" y="496" type="line"/>
    </contour>
    <contour>
      <point x="148" y="541" type="curve" smooth="yes"/>
      <point x="209" y="541"/>
      <point x="250" y="579"/>
      <point x="250" y="630" type="curve" smooth="yes"/>
      <point x="250" y="682"/>
      <point x="209" y="720"/>
      <point x="148" y="720" type="curve" smooth="yes"/>
      <point x="88" y="720"/>
      <point x="47" y="682"/>
      <point x="47" y="630" type="curve" smooth="yes"/>
      <point x="47" y="579"/>
      <point x="88" y="541"/>
    </contour>
    <contour>
      <point x="233" y="0" type="move" name="ogonek"/>
    </contour>
  </outline>
</glyph>
<glyph name="j" format="1">
  <advance width="294"/>
  <unicode hex="006A"/>
  <outline>
    <contour>
      <point x="-31" y="-220" type="line"/>
      <point x="36" y="-220" type="line" smooth="yes"/>
      <point x="152" y="-220"/>
      <point x="233" y="-171"/>
      <point x="233" y="-26" type="curve" smooth="yes"/>
      <point x="233" y="496" type="line"/>
      <point x="62" y="496" type="line"/>
      <point x="62" y="-28" type="line" smooth="yes"/>
      <point x="62" y="-61"/>
      <point x="48" y="-75"/>
      <point x="10" y="-75" type="curve" smooth="yes"/>
      <point x="-31" y="-75" type="line"/>
    </contour>
    <contour>
      <point x="148" y="541" type="curve" smooth="yes"/>
      <point x="209" y="541"/>
      <point x="250" y="579"/>
      <point x="250" y="630" type="curve" smooth="yes"/>
      <point x="250" y="682"/>
      <point x="209" y="720"/>
      <point x="148" y="720" type="curve" smooth="yes"/>
      <point x="88" y="720"/>
      <point x="47" y="682"/>
      <point x="47" y="630" type="curve" smooth="yes"/>
      <point x="47" y="579"/>
      <point x="88" y="541"/>
    </contour>
  </outline>
</glyph>
<glyph name="k" format="1">
  <advance width="630"/>
  <unicode hex="006B"/>
  <outline>
    <contour>
      <point x="408" y="0" type="line"/>
      <point x="619" y="0" type="line"/>
      <point x="334" y="338" type="line"/>
      <point x="335" y="198" type="line"/>
      <point x="582" y="496" type="line"/>
      <point x="382" y="496" type="line"/>
      <point x="209" y="273" type="line"/>
    </contour>
    <contour>
      <point x="62" y="0" type="line"/>
      <point x="233" y="0" type="line"/>
      <point x="233" y="720" type="line"/>
      <point x="62" y="720" type="line"/>
    </contour>
    <contour>
      <point x="314" y="0" type="move" name="bottom"/>
    </contour>
  </outline>
</glyph>
<glyph name="o" format="1">
  <advance width="620"/>
  <unicode hex="006F"/>
  <outline>
    <contour>
      <point x="310" y="-12" type="curve" smooth="yes"/>
      <point x="456" y="-12"/>
      <point x="570" y="98"/>
      <point x="570" y="248" type="curve" smooth="yes"/>
      <point x="570" y="398"/>
      <point x="456" y="508"/>
      <point x="310" y="508" type="curve" smooth="yes"/>
      <point x="164" y="508"/>
      <point x="50" y="398"/>
      <point x="50" y="248" type="curve" smooth="yes"/>
      <point x="50" y="98"/>
      <point x="164" y="-12"/>
    </contour>
    <contour>
      <point x="310" y="136" type="curve" smooth="yes"/>
      <point x="261" y="136"/>
      <point x="224" y="174"/>
      <point x="224" y="248" type="curve" smooth="yes"/>
      <point x="224" y="322"/>
      <point x="261" y="360"/>
      <point x="310" y="360" type="curve" smooth="yes"/>
      <point x="359" y="360"/>
      <point x="396" y="322"/>
      <point x="396" y="248" type="curve" smooth="yes"/>
      <point x="396" y="174"/>
      <point x="359" y="136"/>
    </contour>
    <contour>
      <point x="310" y="0" type="move" name="bottom"/>
    </contour>
    <contour>
      <point x="310" y="248" type="move" name="center"/>
    </contour>
    <contour>
      <point x="381" y="0" type="move" name="ogonek"/>
    </contour>
    <contour>
      <point x="310" y="496" type="move" name="top"/>
    </contour>
    <contour>
      <point x="600" y="496" type="move" name="topright"/>
    </contour>
  </outline>
</glyph>
<glyph name="p" format="1">
  <advance width="675"/>
  <unicode hex="0070"/>
  <outline>
    <contour>
      <point x="62" y="-220" type="line"/>
      <point x="233" y="-220" type="line"/>
      <point x="233" y="53" type="line"/>
      <point x="267" y="12"/>
      <point x="315" y="-12"/>
      <point x="383" y="-12" type="curve" smooth="yes"/>
      <point x="516" y="-12"/>
      <point x="625" y="98"/>
      <point x="625" y="247" type="curve" smooth="yes"/>
      <point x="625" y="396"/>
      <point x="516" y="508"/>
      <point x="383" y="508" type="curve" smooth="yes"/>
      <point x="307" y="508"/>
      <point x="264" y="476"/>
      <point x="233" y="436" type="curve"/>
      <point x="213" y="496" type="line"/>
      <point x="62" y="496" type="line"/>
    </contour>
    <contour>
      <point x="338" y="137" type="curve" smooth="yes"/>
      <point x="272" y="137"/>
      <point x="225" y="185"/>
      <point x="225" y="248" type="curve" smooth="yes"/>
      <point x="225" y="309"/>
      <point x="272" y="359"/>
      <point x="338" y="359" type="curve" smooth="yes"/>
      <point x="403" y="359"/>
      <point x="451" y="309"/>
      <point x="451" y="247" type="curve" smooth="yes"/>
      <point x="451" y="185"/>
      <point x="403" y="137"/>
    </contour>
  </outline>
</glyph>
<glyph name="q" format="1">
  <advance width="675"/>
  <unicode hex="0071"/>
  <outline>
    <contour>
      <point x="442" y="-220" type="line"/>
      <point x="613" y="-220" type="line"/>
      <point x="613" y="496" type="line"/>
      <point x="462" y="496" type="line"/>
      <point x="442" y="443" type="line"/>
      <point x="408" y="484"/>
      <point x="360" y="508"/>
      <point x="292" y="508" type="curve" smooth="yes"/>
      <point x="159" y="508"/>
      <point x="50" y="398"/>
      <point x="50" y="249" type="curve" smooth="yes"/>
      <point x="50" y="100"/>
      <point x="159" y="-12"/>
      <point x="292" y="-12" type="curve" smooth="yes"/>
      <point x="368" y="-12"/>
      <point x="411" y="20"/>
      <point x="442" y="60" type="curve"/>
    </contour>
    <contour>
      <point x="337" y="137" type="curve" smooth="yes"/>
      <point x="272" y="137"/>
      <point x="224" y="187"/>
      <point x="224" y="249" type="curve" smooth="yes"/>
      <point x="224" y="311"/>
      <point x="272" y="359"/>
      <point x="337" y="359" type="curve" smooth="yes"/>
      <point x="403" y="359"/>
      <point x="450" y="311"/>
      <point x="450" y="248" type="curve" smooth="yes"/>
      <point x="450" y="187"/>
      <point x="403" y="137"/>
    </contour>
  </outline>
</glyph>
<glyph name="r" format="1">
  <advance width="428"/>
  <unicode hex="0072"/>
  <outline>
    <contour>
      <point x="62" y="0" type="line"/>
      <point x="233" y="0" type="line"/>
      <point x="233" y="390" type="line"/>
      <point x="213" y="496" type="line"/>
      <point x="62" y="496" type="line"/>
    </contour>
    <contour>
      <point x="233" y="203" type="line"/>
      <point x="233" y="299"/>
      <point x="280" y="327"/>
      <point x="361" y="327" type="curve" smooth="yes"/>
      <point x="408" y="327" type="line"/>
      <point x="408" y="508" type="line"/>
      <point x="277" y="508"/>
      <point x="188" y="387"/>
      <point x="188" y="253" type="curve"/>
    </contour>
    <contour>
      <point x="144" y="0" type="move" name="bottom"/>
    </contour>
    <contour>
      <point x="259" y="496" type="move" name="top"/>
    </contour>
  </outline>
</glyph>
<glyph name="s" format="1">
  <advance width="549"/>
  <unicode hex="0073"/>
  <outline>
    <contour>
      <point x="280" y="-12" type="curve" smooth="yes"/>
      <point x="420" y="-12"/>
      <point x="506" y="61"/>
      <point x="505" y="158" type="curve" smooth="yes"/>
      <point x="504" y="263"/>
      <point x="421" y="282"/>
      <point x="304" y="310" type="curve" smooth="yes"/>
      <point x="250" y="323"/>
      <point x="210" y="332"/>
      <point x="210" y="353" type="curve" smooth="yes"/>
      <point x="210" y="368"/>
      <point x="230" y="381"/>
      <point x="266" y="381" type="curve" smooth="yes"/>
      <point x="297" y="381"/>
      <point x="318" y="371"/>
      <point x="326" y="352" type="curve"/>
      <point x="484" y="352" type="line"/>
      <point x="470" y="446"/>
      <point x="395" y="508"/>
      <point x="266" y="508" type="curve" smooth="yes"/>
      <point x="126" y="508"/>
      <point x="47" y="434"/>
      <point x="47" y="344" type="curve" smooth="yes"/>
      <point x="47" y="242"/>
      <point x="155" y="220"/>
      <point x="247" y="196" type="curve" smooth="yes"/>
      <point x="301" y="182"/>
      <point x="335" y="177"/>
      <point x="335" y="150" type="curve" smooth="yes"/>
      <point x="335" y="134"/>
      <point x="318" y="114"/>
      <point x="276" y="114" type="curve" smooth="yes"/>
      <point x="240" y="114"/>
      <point x="211" y="133"/>
      <point x="204" y="160" type="curve"/>
      <point x="35" y="160" type="line"/>
      <point x="43" y="63"/>
      <point x="138" y="-12"/>
    </contour>
    <contour>
      <point x="276" y="0" type="move" name="bottom"/>
    </contour>
    <contour>
      <point x="276" y="496" type="move" name="top"/>
    </contour>
  </outline>
</glyph>
<glyph name="t" format="1">
  <advance width="454"/>
  <unicode hex="0074"/>
  <outline>
    <contour>
      <point x="307" y="0" type="curve" smooth="yes"/>
      <point x="404" y="0" type="line"/>
      <point x="404" y="145" type="line"/>
      <point x="333" y="145" type="line" smooth="yes"/>
      <point x="295" y="145"/>
      <point x="281" y="159"/>
      <point x="281" y="192" type="curve" smooth="yes"/>
      <point x="281" y="354" type="line"/>
      <point x="403" y="354" type="line"/>
      <point x="403" y="496" type="line"/>
      <point x="281" y="496" type="line"/>
      <point x="281" y="642" type="line"/>
      <point x="128" y="642" type="line"/>
      <point x="110" y="496" type="line"/>
      <point x="26" y="496" type="line"/>
      <point x="26" y="354" type="line"/>
      <point x="110" y="354" type="line"/>
      <point x="110" y="194" type="line" smooth="yes"/>
      <point x="110" y="49"/>
      <point x="191" y="0"/>
    </contour>
    <contour>
      <point x="257" y="0" type="move" name="bottom"/>
    </contour>
    <contour>
      <point x="387" y="700" type="move" name="topright"/>
    </contour>
  </outline>
</glyph>
<glyph name="u" format="1">
  <advance width="643"/>
  <unicode hex="0075"/>
  <outline>
    <contour>
      <point x="251" y="-12" type="curve" smooth="yes"/>
      <point x="347" y="-12"/>
      <point x="407" y="41"/>
      <point x="432" y="110" type="curve"/>
      <point x="410" y="241" type="line"/>
      <point x="410" y="173"/>
      <point x="371" y="131"/>
      <point x="314" y="131" type="curve" smooth="yes"/>
      <point x="249" y="131"/>
      <point x="226" y="173"/>
      <point x="226" y="241" type="curve" smooth="yes"/>
      <point x="226" y="496" type="line"/>
      <point x="56" y="496" type="line"/>
      <point x="56" y="226" type="line" smooth="yes"/>
      <point x="56" y="76"/>
      <point x="122" y="-12"/>
    </contour>
    <contour>
      <point x="432" y="0" type="line"/>
      <point x="581" y="0" type="line"/>
      <point x="581" y="496" type="line"/>
      <point x="410" y="496" type="line"/>
      <point x="410" y="120" type="line"/>
    </contour>
    <contour>
      <point x="322" y="0" type="move" name="bottom"/>
    </contour>
    <contour>
      <point x="582" y="0" type="move" name="ogonek"/>
    </contour>
    <contour>
      <point x="318" y="496" type="move" name="top"/>
    </contour>
    <contour>
      <point x="582" y="496" type="move" name="topright"/>
    </contour>
  </outline>
</glyph>
<glyph name="v" format="1">
  <advance width="585"/>
  <unicode hex="0076"/>
  <outline>
    <contour>
      <point x="187" y="0" type="line"/>
      <point x="398" y="0" type="line"/>
      <point x="575" y="496" type="line"/>
      <point x="396" y="496" type="line"/>
      <point x="293" y="160" type="line"/>
      <point x="190" y="496" type="line"/>
      <point x="10" y="496" type="line"/>
    </contour>
  </outline>
</glyph>
<glyph name="w" format="1">
  <advance width="850"/>
  <unicode hex="0077"/>
  <outline>
    <contour>
      <point x="156" y="0" type="line"/>
      <point x="334" y="0" type="line"/>
      <point x="449" y="418" type="line"/>
      <point x="401" y="418" type="line"/>
      <point x="516" y="0" type="line"/>
      <point x="694" y="0" type="line"/>
      <point x="840" y="496" type="line"/>
      <point x="672" y="496" type="line"/>
      <point x="583" y="85" type="line"/>
      <point x="625" y="86" type="line"/>
      <point x="519" y="496" type="line"/>
      <point x="331" y="496" type="line"/>
      <point x="225" y="86" type="line"/>
      <point x="267" y="85" type="line"/>
      <point x="178" y="496" type="line"/>
      <point x="10" y="496" type="line"/>
    </contour>
    <contour>
      <point x="425" y="0" type="move" name="bottom"/>
    </contour>
    <contour>
      <point x="425" y="496" type="move" name="top"/>
    </contour>
  </outline>
</glyph>
<glyph name="x" format="1">
  <advance width="623"/>
  <unicode hex="0078"/>
  <outline>
    <contour>
      <point x="16" y="0" type="line"/>
      <point x="200" y="0" type="line"/>
      <point x="312" y="148" type="line"/>
      <point x="423" y="0" type="line"/>
      <point x="607" y="0" type="line"/>
      <point x="418" y="248" type="line"/>
      <point x="607" y="496" type="line"/>
      <point x="423" y="496" type="line"/>
      <point x="312" y="348" type="line"/>
      <point x="200" y="496" type="line"/>
      <point x="16" y="496" type="line"/>
      <point x="205" y="248" type="line"/>
    </contour>
  </outline>
</glyph>
<glyph name="y" format="1">
  <advance width="637"/>
  <unicode hex="0079"/>
  <outline>
    <contour>
      <point x="131" y="-220" type="line"/>
      <point x="313" y="-220" type="line"/>
      <point x="619" y="496" type="line"/>
      <point x="435" y="496" type="line"/>
      <point x="319" y="184" type="line"/>
      <point x="204" y="496" type="line"/>
      <point x="18" y="496" type="line"/>
      <point x="207" y="19" type="line"/>
      <point x="238" y="19" type="line"/>
    </contour>
    <contour>
      <point x="328" y="496" type="move" name="top"/>
    </contour>
  </outline>
</glyph>
<glyph name="z" format="1">
  <advance width="505"/>
  <unicode hex="007A"/>
  <outline>
    <contour>
      <point x="30" y="0" type="line"/>
      <point x="463" y="0" type="line"/>
      <point x="463" y="141" type="line"/>
      <point x="221" y="141" type="line"/>
      <point x="458" y="360" type="line"/>
      <point x="458" y="496" type="line"/>
      <point x="32" y="496" type="line"/>
      <point x="32" y="355" type="line"/>
      <point x="262" y="355" type="line"/>
      <point x="30" y="136" type="line"/>
    </contour>
    <contour>
      <point x="251" y="496" type="move" name="top"/>
    </contour>
  </outline>
</glyph>
<glyph name="braceleft" format="1">
  <advance width="499"/>
  <unicode hex="007B"/>
  <outline>
    <contour>
      <point x="356" y="-194" type="curve" smooth="yes"/>
      <point x="428" y="-194" type="line"/>
      <point x="428" y="-54" type="line"/>
      <point x="389" y="-54" type="line" smooth="yes"/>
      <point x="346" y="-54"/>
      <point x="329" y="-34"/>
      <point x="329" y="4" type="curve" smooth="yes"/>
      <point x="329" y="48"/>
      <point x="346" y="100"/>
      <point x="346" y="170" type="curve" smooth="yes"/>
      <point x="346" y="242"/>
      <point x="313" y="293"/>
      <point x="239" y="308" type="curve"/>
      <point x="239" y="310" type="line"/>
      <point x="313" y="324"/>
      <point x="346" y="376"/>
      <point x="346" y="447" type="curve" smooth="yes"/>
      <point x="346" y="517"/>
      <point x="329" y="570"/>
      <point x="329" y="614" type="curve" smooth="yes"/>
      <point x="329" y="652"/>
      <point x="346" y="671"/>
      <point x="389" y="671" type="curve" smooth="yes"/>
      <point x="428" y="671" type="line"/>
      <point x="428" y="811" type="line"/>
      <point x="356" y="811" type="line" smooth="yes"/>
      <point x="242" y="811"/>
      <point x="165" y="747"/>
      <point x="165" y="631" type="curve" smooth="yes"/>
      <point x="165" y="565"/>
      <point x="186" y="516"/>
      <point x="186" y="454" type="curve" smooth="yes"/>
      <point x="186" y="407"/>
      <point x="158" y="380"/>
      <point x="91" y="377" type="curve"/>
      <point x="91" y="241" type="line"/>
      <point x="158" y="238"/>
      <point x="186" y="208"/>
      <point x="186" y="164" type="curve" smooth="yes"/>
      <point x="186" y="102"/>
      <point x="165" y="53"/>
      <point x="165" y="-13" type="curve" smooth="yes"/>
      <point x="165" y="-130"/>
      <point x="242" y="-194"/>
    </contour>
  </outline>
</glyph>
<glyph name="braceright" format="1">
  <advance width="499"/>
  <unicode hex="007D"/>
  <outline>
    <contour>
      <point x="71" y="-194" type="line"/>
      <point x="143" y="-194" type="line" smooth="yes"/>
      <point x="257" y="-194"/>
      <point x="334" y="-130"/>
      <point x="334" y="-13" type="curve" smooth="yes"/>
      <point x="334" y="53"/>
      <point x="313" y="102"/>
      <point x="313" y="164" type="curve" smooth="yes"/>
      <point x="313" y="208"/>
      <point x="341" y="238"/>
      <point x="408" y="241" type="curve"/>
      <point x="408" y="377" type="line"/>
      <point x="341" y="380"/>
      <point x="313" y="407"/>
      <point x="313" y="454" type="curve" smooth="yes"/>
      <point x="313" y="516"/>
      <point x="334" y="565"/>
      <point x="334" y="631" type="curve" smooth="yes"/>
      <point x="334" y="747"/>
      <point x="257" y="811"/>
      <point x="143" y="811" type="curve" smooth="yes"/>
      <point x="71" y="811" type="line"/>
      <point x="71" y="671" type="line"/>
      <point x="110" y="671" type="line" smooth="yes"/>
      <point x="153" y="671"/>
      <point x="170" y="652"/>
      <point x="170" y="614" type="curve" smooth="yes"/>
      <point x="170" y="570"/>
      <point x="153" y="517"/>
      <point x="153" y="447" type="curve" smooth="yes"/>
      <point x="153" y="376"/>
      <point x="186" y="324"/>
      <point x="260" y="310" type="curve"/>
      <point x="260" y="308" type="line"/>
      <point x="186" y="293"/>
      <point x="153" y="242"/>
      <point x="153" y="170" type="curve" smooth="yes"/>
      <point x="153" y="100"/>
      <point x="170" y="48"/>
      <point x="170" y="4" type="curve" smooth="yes"/>
      <point x="170" y="-34"/>
      <point x="153" y="-54"/>
      <point x="110" y="-54" type="curve" smooth="yes"/>
      <point x="71" y="-54" type="line"/>
    </contour>
  </outline>
</glyph>
<glyph name="asciitilde" format="1">
  <advance width="636"/>
  <unicode hex="007E"/>
  <outline>
    <contour>
      <point x="409" y="208" type="curve" smooth="yes"/>
      <point x="508" y="208"/>
      <point x="584" y="271"/>
      <point x="609" y="425" type="curve"/>
      <point x="482" y="425" type="line"/>
      <point x="476" y="379"/>
      <point x="453" y="359"/>
      <point x="419" y="359" type="curve" smooth="yes"/>
      <point x="361" y="359"/>
      <point x="315" y="425"/>
      <point x="227" y="425" type="curve" smooth="yes"/>
      <point x="128" y="425"/>
      <point x="53" y="362"/>
      <point x="28" y="208" type="curve"/>
      <point x="153" y="208" type="line"/>
      <point x="160" y="253"/>
      <point x="183" y="274"/>
      <point x="217" y="274" type="curve"/>
      <point x="276" y="274"/>
      <point x="321" y="208"/>
    </contour>
  </outline>
</glyph>
<glyph name="exclamdown" format="1">
  <advance width="343"/>
  <unicode hex="00A1"/>
  <outline>
    <contour>
      <point x="78" y="-136" type="line"/>
      <point x="261" y="-136" type="line"/>
      <point x="242" y="316" type="line"/>
      <point x="97" y="316" type="line"/>
    </contour>
    <contour>
      <point x="172" y="386" type="curve" smooth="yes"/>
      <point x="232" y="386"/>
      <point x="273" y="427"/>
      <point x="273" y="480" type="curve" smooth="yes"/>
      <point x="273" y="531"/>
      <point x="232" y="572"/>
      <point x="172" y="572" type="curve" smooth="yes"/>
      <point x="111" y="572"/>
      <point x="70" y="531"/>
      <point x="70" y="480" type="curve" smooth="yes"/>
      <point x="70" y="427"/>
      <point x="111" y="386"/>
    </contour>
  </outline>
</glyph>
<glyph name="cent" format="1">
  <advance width="629"/>
  <unicode hex="00A2"/>
  <outline>
    <contour>
      <point x="239" y="-104" type="line"/>
      <point x="393" y="-104" type="line"/>
      <point x="393" y="87" type="line"/>
      <point x="239" y="87" type="line"/>
    </contour>
    <contour>
      <point x="239" y="409" type="line"/>
      <point x="393" y="409" type="line"/>
      <point x="393" y="600" type="line"/>
      <point x="239" y="600" type="line"/>
    </contour>
    <component base="c"/>
  </outline>
</glyph>
<glyph name="sterling" format="1">
  <advance width="642"/>
  <unicode hex="00A3"/>
  <outline>
    <contour>
      <point x="66" y="0" type="line"/>
      <point x="588" y="0" type="line"/>
      <point x="588" y="134" type="line"/>
      <point x="241" y="134" type="line"/>
      <point x="291" y="179"/>
      <point x="307" y="239"/>
      <point x="307" y="284" type="curve" smooth="yes"/>
      <point x="307" y="359"/>
      <point x="260" y="439"/>
      <point x="260" y="487" type="curve" smooth="yes"/>
      <point x="260" y="541"/>
      <point x="296" y="572"/>
      <point x="344" y="572" type="curve" smooth="yes"/>
      <point x="398" y="572"/>
      <point x="425" y="535"/>
      <point x="427" y="485" type="curve"/>
      <point x="584" y="485" type="line"/>
      <point x="579" y="612"/>
      <point x="501" y="712"/>
      <point x="340" y="712" type="curve" smooth="yes"/>
      <point x="198" y="712"/>
      <point x="98" y="631"/>
      <point x="98" y="492" type="curve" smooth="yes"/>
      <point x="98" y="415"/>
      <point x="145" y="343"/>
      <point x="145" y="285" type="curve" smooth="yes"/>
      <point x="145" y="197"/>
      <point x="119" y="145"/>
      <point x="66" y="95" type="curve"/>
    </contour>
    <contour>
      <point x="36" y="287" type="line"/>
      <point x="463" y="287" type="line"/>
      <point x="463" y="402" type="line"/>
      <point x="36" y="402" type="line"/>
    </contour>
  </outline>
</glyph>
<glyph name="currency" format="1">
  <advance width="577"/>
  <unicode hex="00A4"/>
  <outline>
    <contour>
      <point x="289" y="116" type="curve" smooth="yes"/>
      <point x="411" y="116"/>
      <point x="498" y="187"/>
      <point x="498" y="298" type="curve" smooth="yes"/>
      <point x="498" y="410"/>
      <point x="412" y="478"/>
      <point x="290" y="478" type="curve" smooth="yes"/>
      <point x="169" y="478"/>
      <point x="82" y="410"/>
      <point x="82" y="298" type="curve" smooth="yes"/>
      <point x="82" y="187"/>
      <point x="167" y="116"/>
    </contour>
    <contour>
      <point x="126" y="70" type="line"/>
      <point x="241" y="185" type="line"/>
      <point x="159" y="236" type="line"/>
      <point x="60" y="137" type="line"/>
    </contour>
    <contour>
      <point x="451" y="70" type="line"/>
      <point x="517" y="137" type="line"/>
      <point x="423" y="231" type="line"/>
      <point x="352" y="169" type="line"/>
    </contour>
    <contour>
      <point x="289" y="216" type="curve" smooth="yes"/>
      <point x="250" y="216"/>
      <point x="216" y="241"/>
      <point x="216" y="297" type="curve" smooth="yes"/>
      <point x="216" y="354"/>
      <point x="251" y="379"/>
      <point x="289" y="379" type="curve" smooth="yes"/>
      <point x="328" y="379"/>
      <point x="363" y="354"/>
      <point x="363" y="297" type="curve" smooth="yes"/>
      <point x="363" y="241"/>
      <point x="327" y="216"/>
    </contour>
    <contour>
      <point x="155" y="366" type="line"/>
      <point x="232" y="422" type="line"/>
      <point x="126" y="528" type="line"/>
      <point x="60" y="461" type="line"/>
    </contour>
    <contour>
      <point x="410" y="354" type="line"/>
      <point x="517" y="461" type="line"/>
      <point x="451" y="528" type="line"/>
      <point x="345" y="422" type="line"/>
    </contour>
  </outline>
</glyph>
<glyph name="yen" format="1">
  <advance width="681"/>
  <unicode hex="00A5"/>
  <outline>
    <contour>
      <point x="255" y="0" type="line"/>
      <point x="426" y="0" type="line"/>
      <point x="426" y="232" type="line"/>
      <point x="669" y="700" type="line"/>
      <point x="477" y="700" type="line"/>
      <point x="313" y="325" type="line"/>
      <point x="370" y="325" type="line"/>
      <point x="206" y="700" type="line"/>
      <point x="12" y="700" type="line"/>
      <point x="255" y="232" type="line"/>
    </contour>
    <contour>
      <point x="55" y="134" type="line"/>
      <point x="626" y="134" type="line"/>
      <point x="626" y="248" type="line"/>
      <point x="55" y="248" type="line"/>
    </contour>
    <contour>
      <point x="290" y="309" type="line"/>
      <point x="290" y="425" type="line"/>
      <point x="55" y="425" type="line"/>
      <point x="55" y="310" type="line"/>
    </contour>
    <contour>
      <point x="432" y="309" type="line"/>
      <point x="626" y="310" type="line"/>
      <point x="626" y="425" type="line"/>
      <point x="432" y="425" type="line"/>
    </contour>
  </outline>
</glyph>
<glyph name="section" format="1">
  <advance width="634"/>
  <unicode hex="00A7"/>
  <outline>
    <contour>
      <point x="312" y="-232" type="curve" smooth="yes"/>
      <point x="453" y="-232"/>
      <point x="562" y="-158"/>
      <point x="562" y="-25" type="curve" smooth="yes"/>
      <point x="562" y="15"/>
      <point x="553" y="47"/>
      <point x="535" y="73" type="curve"/>
      <point x="571" y="111"/>
      <point x="590" y="160"/>
      <point x="590" y="214" type="curve" smooth="yes"/>
      <point x="590" y="337"/>
      <point x="493" y="392"/>
      <point x="386" y="428" type="curve" smooth="yes"/>
      <point x="311" y="453"/>
      <point x="251" y="463"/>
      <point x="251" y="515" type="curve" smooth="yes"/>
      <point x="251" y="552"/>
      <point x="282" y="570"/>
      <point x="319" y="569" type="curve" smooth="yes"/>
      <point x="357" y="568"/>
      <point x="389" y="542"/>
      <point x="392" y="502" type="curve"/>
      <point x="577" y="502" type="line"/>
      <point x="570" y="636"/>
      <point x="467" y="712"/>
      <point x="320" y="712" type="curve" smooth="yes"/>
      <point x="179" y="712"/>
      <point x="70" y="638"/>
      <point x="70" y="505" type="curve" smooth="yes"/>
      <point x="70" y="465"/>
      <point x="79" y="433"/>
      <point x="97" y="407" type="curve"/>
      <point x="61" y="369"/>
      <point x="42" y="320"/>
      <point x="42" y="266" type="curve" smooth="yes"/>
      <point x="42" y="143"/>
      <point x="139" y="88"/>
      <point x="246" y="52" type="curve" smooth="yes"/>
      <point x="321" y="27"/>
      <point x="381" y="17"/>
      <point x="381" y="-35" type="curve" smooth="yes"/>
      <point x="381" y="-72"/>
      <point x="350" y="-90"/>
      <point x="313" y="-89" type="curve" smooth="yes"/>
      <point x="275" y="-88"/>
      <point x="243" y="-62"/>
      <point x="240" y="-22" type="curve"/>
      <point x="55" y="-22" type="line"/>
      <point x="62" y="-156"/>
      <point x="165" y="-232"/>
    </contour>
    <contour>
      <point x="394" y="163" type="curve"/>
      <point x="379" y="168"/>
      <point x="365" y="173"/>
      <point x="352" y="178" type="curve" smooth="yes"/>
      <point x="265" y="210"/>
      <point x="225" y="240"/>
      <point x="225" y="278" type="curve" smooth="yes"/>
      <point x="225" y="294"/>
      <point x="230" y="307"/>
      <point x="238" y="317" type="curve"/>
      <point x="249" y="313"/>
      <point x="260" y="309"/>
      <point x="279" y="302" type="curve" smooth="yes"/>
      <point x="364" y="272"/>
      <point x="407" y="242"/>
      <point x="407" y="202" type="curve" smooth="yes"/>
      <point x="407" y="186"/>
      <point x="402" y="173"/>
    </contour>
  </outline>
</glyph>
<glyph name="copyright" format="1">
  <advance width="779"/>
  <unicode hex="00A9"/>
  <outline>
    <contour>
      <point x="390" y="-7" type="curve" smooth="yes"/>
      <point x="599" y="-7"/>
      <point x="742" y="142"/>
      <point x="742" y="353" type="curve" smooth="yes"/>
      <point x="742" y="564"/>
      <point x="599" y="712"/>
      <point x="390" y="712" type="curve" smooth="yes"/>
      <point x="181" y="712"/>
      <point x="38" y="564"/>
      <point x="38" y="353" type="curve" smooth="yes"/>
      <point x="38" y="142"/>
      <point x="181" y="-7"/>
    </contour>
    <contour>
      <point x="391" y="128" type="curve" smooth="yes"/>
      <point x="497" y="128"/>
      <point x="579" y="193"/>
      <point x="600" y="292" type="curve"/>
      <point x="453" y="292" type="line"/>
      <point x="443" y="264"/>
      <point x="424" y="243"/>
      <point x="386" y="243" type="curve" smooth="yes"/>
      <point x="338" y="243"/>
      <point x="307" y="280"/>
      <point x="307" y="353" type="curve" smooth="yes"/>
      <point x="307" y="427"/>
      <point x="338" y="463"/>
      <point x="386" y="463" type="curve" smooth="yes"/>
      <point x="421" y="463"/>
      <point x="444" y="443"/>
      <point x="453" y="414" type="curve"/>
      <point x="600" y="414" type="line"/>
      <point x="579" y="516"/>
      <point x="497" y="578"/>
      <point x="391" y="578" type="curve" smooth="yes"/>
      <point x="262" y="578"/>
      <point x="169" y="491"/>
      <point x="169" y="353" type="curve" smooth="yes"/>
      <point x="169" y="215"/>
      <point x="262" y="128"/>
    </contour>
    <contour>
      <point x="390" y="49" type="curve" smooth="yes"/>
      <point x="210" y="49"/>
      <point x="98" y="170"/>
      <point x="98" y="353" type="curve" smooth="yes"/>
      <point x="98" y="538"/>
      <point x="210" y="656"/>
      <point x="390" y="656" type="curve" smooth="yes"/>
      <point x="570" y="656"/>
      <point x="682" y="538"/>
      <point x="682" y="353" type="curve" smooth="yes"/>
      <point x="682" y="170"/>
      <point x="570" y="49"/>
    </contour>
  </outline>
</glyph>
<glyph name="ordfeminine" format="1">
  <advance width="469"/>
  <unicode hex="00AA"/>
  <outline>
    <contour>
      <point x="194" y="349" type="curve" smooth="yes"/>
      <point x="250" y="349"/>
      <point x="287" y="368"/>
      <point x="310" y="396" type="curve"/>
      <point x="320" y="354" type="line"/>
      <point x="439" y="354" type="line"/>
      <point x="439" y="706" type="line"/>
      <point x="320" y="706" type="line"/>
      <point x="310" y="662" type="line"/>
      <point x="286" y="691"/>
      <point x="249" y="711"/>
      <point x="191" y="711" type="curve" smooth="yes"/>
      <point x="99" y="711"/>
      <point x="25" y="642"/>
      <point x="25" y="530" type="curve" smooth="yes"/>
      <point x="25" y="418"/>
      <point x="99" y="349"/>
    </contour>
    <contour>
      <point x="234" y="450" type="curve" smooth="yes"/>
      <point x="194" y="450"/>
      <point x="158" y="477"/>
      <point x="158" y="529" type="curve" smooth="yes"/>
      <point x="158" y="581"/>
      <point x="194" y="609"/>
      <point x="234" y="609" type="curve" smooth="yes"/>
      <point x="274" y="609"/>
      <point x="310" y="582"/>
      <point x="310" y="530" type="curve" smooth="yes"/>
      <point x="310" y="478"/>
      <point x="274" y="450"/>
    </contour>
  </outline>
</glyph>
<glyph name="guillemetleft" format="1">
  <advance width="557"/>
  <unicode hex="00AB"/>
  <outline>
    <contour>
      <point x="349" y="120" type="line"/>
      <point x="507" y="120" type="line"/>
      <point x="420" y="295" type="line"/>
      <point x="507" y="470" type="line"/>
      <point x="349" y="470" type="line"/>
      <point x="265" y="295" type="line"/>
    </contour>
    <contour>
      <point x="124" y="120" type="line"/>
      <point x="282" y="120" type="line"/>
      <point x="195" y="295" type="line"/>
      <point x="282" y="470" type="line"/>
      <point x="124" y="470" type="line"/>
      <point x="40" y="295" type="line"/>
    </contour>
  </outline>
</glyph>
<glyph name="logicalnot" format="1">
  <advance width="717"/>
  <unicode hex="00AC"/>
  <outline>
    <contour>
      <point x="491" y="180" type="line"/>
      <point x="662" y="180" type="line"/>
      <point x="662" y="442" type="line"/>
      <point x="47" y="442" type="line"/>
      <point x="47" y="312" type="line"/>
      <point x="491" y="312" type="line"/>
    </contour>
  </outline>
</glyph>
<glyph name="registered" format="1">
  <advance width="514"/>
  <unicode hex="00AE"/>
  <outline>
    <contour>
      <point x="257" y="280" type="curve" smooth="yes"/>
      <point x="384" y="280"/>
      <point x="474" y="370"/>
      <point x="474" y="496" type="curve" smooth="yes"/>
      <point x="474" y="623"/>
      <point x="384" y="712"/>
      <point x="257" y="712" type="curve" smooth="yes"/>
      <point x="130" y="712"/>
      <point x="39" y="623"/>
      <point x="39" y="496" type="curve" smooth="yes"/>
      <point x="39" y="370"/>
      <point x="130" y="280"/>
    </contour>
    <contour>
      <point x="284" y="393" type="line"/>
      <point x="366" y="393" type="line"/>
      <point x="308" y="487" type="line"/>
      <point x="233" y="487" type="line"/>
    </contour>
    <contour>
      <point x="257" y="336" type="curve" smooth="yes"/>
      <point x="160" y="336"/>
      <point x="99" y="401"/>
      <point x="99" y="496" type="curve" smooth="yes"/>
      <point x="99" y="592"/>
      <point x="160" y="656"/>
      <point x="257" y="656" type="curve" smooth="yes"/>
      <point x="353" y="656"/>
      <point x="415" y="592"/>
      <point x="415" y="496" type="curve" smooth="yes"/>
      <point x="415" y="401"/>
      <point x="353" y="336"/>
    </contour>
    <contour>
      <point x="166" y="393" type="line"/>
      <point x="238" y="393" type="line"/>
      <point x="238" y="467" type="line"/>
      <point x="277" y="467" type="line" smooth="yes"/>
      <point x="323" y="467"/>
      <point x="354" y="495"/>
      <point x="354" y="536" type="curve" smooth="yes"/>
      <point x="354" y="578"/>
      <point x="323" y="605"/>
      <point x="277" y="605" type="curve" smooth="yes"/>
      <point x="166" y="605" type="line"/>
    </contour>
    <contour>
      <point x="237" y="516" type="line"/>
      <point x="237" y="545" type="line"/>
      <point x="265" y="545" type="line" smooth="yes"/>
      <point x="274" y="545"/>
      <point x="281" y="541"/>
      <point x="281" y="531" type="curve" smooth="yes"/>
      <point x="281" y="520"/>
      <point x="274" y="516"/>
      <point x="265" y="516" type="curve" smooth="yes"/>
    </contour>
  </outline>
</glyph>
<glyph name="macron" format="1">
  <advance width="420"/>
  <unicode hex="00AF"/>
  <outline>
    <contour>
      <point x="10" y="566" type="line"/>
      <point x="410" y="566" type="line"/>
      <point x="410" y="684" type="line"/>
      <point x="10" y="684" type="line"/>
    </contour>
    <contour>
      <point x="210" y="496" type="move" name="_top"/>
    </contour>
  </outline>
</glyph>
<glyph name="degree" format="1">
  <advance width="377"/>
  <unicode hex="00B0"/>
  <outline>
    <contour>
      <point x="188" y="408" type="curve" smooth="yes"/>
      <point x="269" y="408"/>
      <point x="341" y="467"/>
      <point x="341" y="559" type="curve" smooth="yes"/>
      <point x="341" y="653"/>
      <point x="270" y="712"/>
      <point x="189" y="712" type="curve" smooth="yes"/>
      <point x="108" y="712"/>
      <point x="36" y="653"/>
      <point x="36" y="559" type="curve" smooth="yes"/>
      <point x="36" y="467"/>
      <point x="107" y="408"/>
    </contour>
    <contour>
      <point x="188" y="509" type="curve" smooth="yes"/>
      <point x="165" y="509"/>
      <point x="141" y="526"/>
      <point x="141" y="560" type="curve" smooth="yes"/>
      <point x="141" y="594"/>
      <point x="166" y="611"/>
      <point x="189" y="611" type="curve" smooth="yes"/>
      <point x="212" y="611"/>
      <point x="236" y="594"/>
      <point x="236" y="560" type="curve" smooth="yes"/>
      <point x="236" y="526"/>
      <point x="211" y="509"/>
    </contour>
  </outline>
</glyph>
<glyph name="plusminus" format="1">
  <advance width="630"/>
  <unicode hex="00B1"/>
  <outline>
    <contour>
      <point x="60" y="0" type="line"/>
      <point x="570" y="0" type="line"/>
      <point x="570" y="151" type="line"/>
      <point x="60" y="151" type="line"/>
    </contour>
    <contour>
      <point x="244" y="183" type="line"/>
      <point x="386" y="183" type="line"/>
      <point x="386" y="553" type="line"/>
      <point x="244" y="553" type="line"/>
    </contour>
    <contour>
      <point x="60" y="297" type="line"/>
      <point x="570" y="297" type="line"/>
      <point x="570" y="439" type="line"/>
      <point x="60" y="439" type="line"/>
    </contour>
  </outline>
</glyph>
<glyph name="twosuperior" format="1">
  <advance width="383"/>
  <unicode hex="00B2"/>
  <outline>
    <contour>
      <point x="39" y="352" type="line"/>
      <point x="348" y="352" type="line"/>
      <point x="348" y="452" type="line"/>
      <point x="145" y="452" type="line"/>
      <point x="116" y="423" type="line"/>
      <point x="235" y="482" type="line"/>
      <point x="318" y="522"/>
      <point x="353" y="554"/>
      <point x="353" y="603" type="curve" smooth="yes"/>
      <point x="353" y="657"/>
      <point x="308" y="714"/>
      <point x="205" y="714" type="curve" smooth="yes"/>
      <point x="100" y="714"/>
      <point x="39" y="661"/>
      <point x="34" y="586" type="curve"/>
      <point x="162" y="586" type="line"/>
      <point x="164" y="609"/>
      <point x="174" y="622"/>
      <point x="192" y="622" type="curve" smooth="yes"/>
      <point x="207" y="622"/>
      <point x="217" y="611"/>
      <point x="217" y="594" type="curve" smooth="yes"/>
      <point x="217" y="568"/>
      <point x="198" y="546"/>
      <point x="161" y="522" type="curve"/>
      <point x="39" y="448" type="line"/>
    </contour>
  </outline>
</glyph>
<glyph name="threesuperior" format="1">
  <advance width="374"/>
  <unicode hex="00B3"/>
  <outline>
    <contour>
      <point x="189" y="348" type="curve" smooth="yes"/>
      <point x="285" y="348"/>
      <point x="349" y="387"/>
      <point x="349" y="449" type="curve" smooth="yes"/>
      <point x="349" y="491"/>
      <point x="323" y="517"/>
      <point x="275" y="530" type="curve"/>
      <point x="275" y="533" type="line"/>
      <point x="317" y="542"/>
      <point x="343" y="567"/>
      <point x="343" y="609" type="curve" smooth="yes"/>
      <point x="343" y="669"/>
      <point x="282" y="714"/>
      <point x="189" y="714" type="curve" smooth="yes"/>
      <point x="73" y="714"/>
      <point x="23" y="656"/>
      <point x="21" y="592" type="curve"/>
      <point x="143" y="592" type="line"/>
      <point x="146" y="613"/>
      <point x="156" y="623"/>
      <point x="175" y="623" type="curve" smooth="yes"/>
      <point x="195" y="623"/>
      <point x="206" y="612"/>
      <point x="206" y="594" type="curve" smooth="yes"/>
      <point x="206" y="571"/>
      <point x="192" y="561"/>
      <point x="167" y="561" type="curve" smooth="yes"/>
      <point x="139" y="561" type="line"/>
      <point x="139" y="505" type="line"/>
      <point x="173" y="505" type="line" smooth="yes"/>
      <point x="197" y="505"/>
      <point x="212" y="494"/>
      <point x="212" y="471" type="curve" smooth="yes"/>
      <point x="212" y="449"/>
      <point x="199" y="439"/>
      <point x="181" y="439" type="curve" smooth="yes"/>
      <point x="162" y="439"/>
      <point x="150" y="448"/>
      <point x="148" y="470" type="curve"/>
      <point x="15" y="470" type="line"/>
      <point x="20" y="396"/>
      <point x="71" y="348"/>
    </contour>
  </outline>
</glyph>
<glyph name="acute" format="1">
  <advance width="261"/>
  <unicode hex="00B4"/>
  <outline>
    <contour>
      <point x="10" y="534" type="line"/>
      <point x="251" y="635" type="line"/>
      <point x="251" y="768" type="line"/>
      <point x="10" y="652" type="line"/>
    </contour>
    <contour>
      <point x="55" y="496" type="move" name="_top"/>
    </contour>
  </outline>
</glyph>
<glyph name="micro" format="1">
  <advance width="650"/>
  <unicode hex="00B5"/>
  <outline>
    <contour>
      <point x="62" y="-220" type="line"/>
      <point x="233" y="-220" type="line"/>
      <point x="233" y="-11" type="line"/>
      <point x="241" y="-12"/>
      <point x="249" y="-12"/>
      <point x="258" y="-12" type="curve" smooth="yes"/>
      <point x="339" y="-12"/>
      <point x="394" y="26"/>
      <point x="425" y="79" type="curve"/>
      <point x="439" y="0" type="line"/>
      <point x="588" y="0" type="line"/>
      <point x="588" y="496" type="line"/>
      <point x="417" y="496" type="line"/>
      <point x="417" y="241" type="line" smooth="yes"/>
      <point x="417" y="173"/>
      <point x="378" y="131"/>
      <point x="321" y="131" type="curve" smooth="yes"/>
      <point x="256" y="131"/>
      <point x="233" y="173"/>
      <point x="233" y="241" type="curve" smooth="yes"/>
      <point x="233" y="496" type="line"/>
      <point x="62" y="496" type="line"/>
    </contour>
  </outline>
</glyph>
<glyph name="paragraph" format="1">
  <advance width="694"/>
  <unicode hex="00B6"/>
  <outline>
    <contour>
      <point x="288" y="-100" type="line"/>
      <point x="429" y="-100" type="line"/>
      <point x="429" y="570" type="line"/>
      <point x="491" y="570" type="line"/>
      <point x="491" y="-100" type="line"/>
      <point x="632" y="-100" type="line"/>
      <point x="632" y="700" type="line"/>
      <point x="265" y="700" type="line" smooth="yes"/>
      <point x="96" y="700"/>
      <point x="27" y="596"/>
      <point x="27" y="485" type="curve" smooth="yes"/>
      <point x="27" y="374"/>
      <point x="96" y="271"/>
      <point x="265" y="271" type="curve" smooth="yes"/>
      <point x="288" y="271" type="line"/>
    </contour>
  </outline>
</glyph>
<glyph name="periodcentered" format="1">
  <advance width="283"/>
  <unicode hex="00B7"/>
  <outline>
    <contour>
      <point x="142" y="222" type="curve" smooth="yes"/>
      <point x="202" y="222"/>
      <point x="243" y="263"/>
      <point x="243" y="314" type="curve" smooth="yes"/>
      <point x="243" y="367"/>
      <point x="202" y="408"/>
      <point x="142" y="408" type="curve" smooth="yes"/>
      <point x="81" y="408"/>
      <point x="40" y="367"/>
      <point x="40" y="314" type="curve" smooth="yes"/>
      <point x="40" y="263"/>
      <point x="81" y="222"/>
    </contour>
  </outline>
</glyph>
<glyph name="cedilla" format="1">
  <advance width="313"/>
  <unicode hex="00B8"/>
  <outline>
    <contour>
      <point x="10" y="-267" type="line"/>
      <point x="164" y="-267" type="line" smooth="yes"/>
      <point x="233" y="-267"/>
      <point x="303" y="-233"/>
      <point x="303" y="-151" type="curve" smooth="yes"/>
      <point x="303" y="-68"/>
      <point x="233" y="-37"/>
      <point x="173" y="-37" type="curve"/>
      <point x="173" y="7" type="line"/>
      <point x="70" y="7" type="line"/>
      <point x="70" y="-122" type="line"/>
      <point x="141" y="-122" type="line" smooth="yes"/>
      <point x="166" y="-122"/>
      <point x="181" y="-128"/>
      <point x="181" y="-147" type="curve" smooth="yes"/>
      <point x="181" y="-167"/>
      <point x="166" y="-173"/>
      <point x="141" y="-173" type="curve" smooth="yes"/>
      <point x="10" y="-173" type="line"/>
    </contour>
    <contour>
      <point x="114" y="4" type="move" name="_bottom"/>
    </contour>
  </outline>
</glyph>
<glyph name="onesuperior" format="1">
  <advance width="261"/>
  <unicode hex="00B9"/>
  <outline>
    <contour>
      <point x="92" y="352" type="line"/>
      <point x="221" y="352" type="line"/>
      <point x="221" y="704" type="line"/>
      <point x="152" y="704" type="line"/>
      <point x="20" y="650" type="line"/>
      <point x="20" y="571" type="line"/>
      <point x="92" y="585" type="line"/>
    </contour>
  </outline>
</glyph>
<glyph name="ordmasculine" format="1">
  <advance width="458"/>
  <unicode hex="00BA"/>
  <outline>
    <contour>
      <point x="228" y="350" type="curve" smooth="yes"/>
      <point x="350" y="350"/>
      <point x="433" y="426"/>
      <point x="433" y="532" type="curve" smooth="yes"/>
      <point x="433" y="638"/>
      <point x="351" y="712"/>
      <point x="229" y="712" type="curve" smooth="yes"/>
      <point x="107" y="712"/>
      <point x="25" y="638"/>
      <point x="25" y="532" type="curve" smooth="yes"/>
      <point x="25" y="426"/>
      <point x="106" y="350"/>
    </contour>
    <contour>
      <point x="228" y="450" type="curve" smooth="yes"/>
      <point x="189" y="450"/>
      <point x="157" y="477"/>
      <point x="157" y="531" type="curve" smooth="yes"/>
      <point x="157" y="587"/>
      <point x="190" y="613"/>
      <point x="228" y="613" type="curve" smooth="yes"/>
      <point x="267" y="613"/>
      <point x="301" y="587"/>
      <point x="301" y="531" type="curve" smooth="yes"/>
      <point x="301" y="477"/>
      <point x="266" y="450"/>
    </contour>
  </outline>
</glyph>
<glyph name="guillemetright" format="1">
  <advance width="557"/>
  <unicode hex="00BB"/>
  <outline>
    <contour>
      <point x="275" y="120" type="line"/>
      <point x="433" y="120" type="line"/>
      <point x="517" y="295" type="line"/>
      <point x="433" y="470" type="line"/>
      <point x="275" y="470" type="line"/>
      <point x="362" y="295" type="line"/>
    </contour>
    <contour>
      <point x="50" y="120" type="line"/>
      <point x="208" y="120" type="line"/>
      <point x="292" y="295" type="line"/>
      <point x="208" y="470" type="line"/>
      <point x="50" y="470" type="line"/>
      <point x="137" y="295" type="line"/>
    </contour>
  </outline>
</glyph>
<glyph name="onequarter" format="1">
  <advance width="786"/>
  <unicode hex="00BC"/>
  <outline>
    <contour>
      <point x="88" y="0" type="line"/>
      <point x="253" y="0" type="line"/>
      <point x="637" y="700" type="line"/>
      <point x="472" y="700" type="line"/>
    </contour>
    <contour>
      <point x="587" y="0" type="line"/>
      <point x="716" y="0" type="line"/>
      <point x="716" y="62" type="line"/>
      <point x="756" y="62" type="line"/>
      <point x="756" y="135" type="line"/>
      <point x="716" y="135" type="line"/>
      <point x="716" y="352" type="line"/>
      <point x="538" y="352" type="line"/>
      <point x="392" y="130" type="line"/>
      <point x="392" y="62" type="line"/>
      <point x="587" y="62" type="line"/>
    </contour>
    <contour>
      <point x="515" y="138" type="line"/>
      <point x="593" y="267" type="line"/>
      <point x="593" y="138" type="line"/>
    </contour>
    <component base="onesuperior" xOffset="20" identifier="6172FC3E"/>
  </outline>
</glyph>
<glyph name="onehalf" format="1">
  <advance width="821"/>
  <unicode hex="00BD"/>
  <outline>
    <contour>
      <point x="88" y="0" type="line"/>
      <point x="253" y="0" type="line"/>
      <point x="636" y="700" type="line"/>
      <point x="471" y="700" type="line"/>
    </contour>
    <component base="onesuperior" xOffset="20" identifier="D7F12618"/>
    <component base="twosuperior" xOffset="409" yOffset="-353" identifier="E118F3D5"/>
  </outline>
</glyph>
<glyph name="threequarters" format="1">
  <advance width="901"/>
  <unicode hex="00BE"/>
  <outline>
    <contour>
      <point x="203" y="0" type="line"/>
      <point x="368" y="0" type="line"/>
      <point x="751" y="700" type="line"/>
      <point x="586" y="700" type="line"/>
    </contour>
    <contour>
      <point x="702" y="0" type="line"/>
      <point x="831" y="0" type="line"/>
      <point x="831" y="62" type="line"/>
      <point x="871" y="62" type="line"/>
      <point x="871" y="135" type="line"/>
      <point x="831" y="135" type="line"/>
      <point x="831" y="352" type="line"/>
      <point x="642" y="352" type="line"/>
      <point x="507" y="130" type="line"/>
      <point x="507" y="62" type="line"/>
      <point x="702" y="62" type="line"/>
    </contour>
    <contour>
      <point x="630" y="135" type="line"/>
      <point x="708" y="277" type="line"/>
      <point x="708" y="135" type="line"/>
    </contour>
    <component base="threesuperior" xOffset="35" identifier="CF86265D"/>
  </outline>
</glyph>
<glyph name="questiondown" format="1">
  <advance width="538"/>
  <unicode hex="00BF"/>
  <outline>
    <contour>
      <point x="271" y="-148" type="curve" smooth="yes"/>
      <point x="429" y="-148"/>
      <point x="513" y="-52"/>
      <point x="510" y="68" type="curve"/>
      <point x="349" y="68" type="line"/>
      <point x="349" y="22"/>
      <point x="322" y="-8"/>
      <point x="273" y="-8" type="curve" smooth="yes"/>
      <point x="229" y="-8"/>
      <point x="201" y="20"/>
      <point x="201" y="65" type="curve" smooth="yes"/>
      <point x="201" y="138"/>
      <point x="265" y="155"/>
      <point x="359" y="155" type="curve" smooth="yes"/>
      <point x="419" y="155" type="line"/>
      <point x="415" y="325" type="line"/>
      <point x="263" y="325" type="line"/>
      <point x="259" y="266" type="line"/>
      <point x="128" y="265"/>
      <point x="35" y="195"/>
      <point x="35" y="66" type="curve" smooth="yes"/>
      <point x="35" y="-73"/>
      <point x="132" y="-148"/>
    </contour>
    <contour>
      <point x="337" y="386" type="curve" smooth="yes"/>
      <point x="398" y="386"/>
      <point x="439" y="427"/>
      <point x="439" y="480" type="curve" smooth="yes"/>
      <point x="439" y="531"/>
      <point x="398" y="572"/>
      <point x="337" y="572" type="curve" smooth="yes"/>
      <point x="277" y="572"/>
      <point x="236" y="531"/>
      <point x="236" y="480" type="curve" smooth="yes"/>
      <point x="236" y="427"/>
      <point x="277" y="386"/>
    </contour>
  </outline>
</glyph>
<glyph name="AE" format="1">
  <advance width="966"/>
  <unicode hex="00C6"/>
  <outline>
    <contour>
      <point x="16" y="0" type="line"/>
      <point x="201" y="0" type="line"/>
      <point x="492" y="573" type="line"/>
      <point x="492" y="0" type="line"/>
      <point x="916" y="0" type="line"/>
      <point x="916" y="135" type="line"/>
      <point x="663" y="135" type="line"/>
      <point x="663" y="293" type="line"/>
      <point x="886" y="293" type="line"/>
      <point x="886" y="423" type="line"/>
      <point x="663" y="423" type="line"/>
      <point x="663" y="565" type="line"/>
      <point x="916" y="565" type="line"/>
      <point x="916" y="700" type="line"/>
      <point x="375" y="700" type="line"/>
    </contour>
    <contour>
      <point x="164" y="118" type="line"/>
      <point x="574" y="118" type="line"/>
      <point x="574" y="248" type="line"/>
      <point x="236" y="248" type="line"/>
    </contour>
    <contour>
      <point x="488" y="0" type="move" name="bottom"/>
    </contour>
    <contour>
      <point x="588" y="700" type="move" name="top"/>
    </contour>
  </outline>
</glyph>
<glyph name="Eth" format="1">
  <advance width="731"/>
  <unicode hex="00D0"/>
  <outline>
    <contour>
      <point x="4" y="280" type="line"/>
      <point x="391" y="280" type="line"/>
      <point x="391" y="422" type="line"/>
      <point x="4" y="422" type="line"/>
    </contour>
    <component base="D" xOffset="5"/>
  </outline>
</glyph>
<glyph name="multiply" format="1">
  <advance width="532"/>
  <unicode hex="00D7"/>
  <outline>
    <contour>
      <point x="150" y="73" type="line"/>
      <point x="266" y="189" type="line"/>
      <point x="382" y="73" type="line"/>
      <point x="482" y="173" type="line"/>
      <point x="366" y="289" type="line"/>
      <point x="482" y="405" type="line"/>
      <point x="382" y="505" type="line"/>
      <point x="266" y="389" type="line"/>
      <point x="150" y="505" type="line"/>
      <point x="50" y="405" type="line"/>
      <point x="166" y="289" type="line"/>
      <point x="50" y="173" type="line"/>
    </contour>
  </outline>
</glyph>
<glyph name="Oslash" format="1">
  <advance width="782"/>
  <unicode hex="00D8"/>
  <outline>
    <contour>
      <point x="22" y="0" type="line"/>
      <point x="176" y="0" type="line"/>
      <point x="760" y="700" type="line"/>
      <point x="606" y="700" type="line"/>
    </contour>
    <component base="O" xOffset="-1" identifier="6D738E5F"/>
  </outline>
</glyph>
<glyph name="Thorn" format="1">
  <advance width="634"/>
  <unicode hex="00DE"/>
  <outline>
    <contour>
      <point x="62" y="0" type="line"/>
      <point x="233" y="0" type="line"/>
      <point x="233" y="125" type="line"/>
      <point x="349" y="125" type="line" smooth="yes"/>
      <point x="528" y="125"/>
      <point x="607" y="233"/>
      <point x="607" y="349" type="curve" smooth="yes"/>
      <point x="607" y="478"/>
      <point x="521" y="575"/>
      <point x="349" y="575" type="curve" smooth="yes"/>
      <point x="233" y="575" type="line"/>
      <point x="233" y="700" type="line"/>
      <point x="62" y="700" type="line"/>
    </contour>
    <contour>
      <point x="233" y="261" type="line"/>
      <point x="233" y="437" type="line"/>
      <point x="336" y="437" type="line" smooth="yes"/>
      <point x="404" y="437"/>
      <point x="433" y="403"/>
      <point x="433" y="349" type="curve" smooth="yes"/>
      <point x="433" y="295"/>
      <point x="404" y="261"/>
      <point x="336" y="261" type="curve" smooth="yes"/>
    </contour>
  </outline>
</glyph>
<glyph name="germandbls" format="1">
  <advance width="749"/>
  <unicode hex="00DF"/>
  <outline>
    <contour>
      <point x="507" y="-10" type="curve" smooth="yes"/>
      <point x="639" y="-10"/>
      <point x="725" y="62"/>
      <point x="725" y="168" type="curve" smooth="yes"/>
      <point x="725" y="248"/>
      <point x="684" y="296"/>
      <point x="581" y="335" type="curve" smooth="yes"/>
      <point x="501" y="364"/>
      <point x="489" y="376"/>
      <point x="489" y="394" type="curve" smooth="yes"/>
      <point x="489" y="434"/>
      <point x="599" y="458"/>
      <point x="599" y="544" type="curve" smooth="yes"/>
      <point x="599" y="650"/>
      <point x="500" y="732"/>
      <point x="346" y="732" type="curve" smooth="yes"/>
      <point x="170" y="732"/>
      <point x="62" y="637"/>
      <point x="62" y="498" type="curve" smooth="yes"/>
      <point x="62" y="0" type="line"/>
      <point x="232" y="0" type="line"/>
      <point x="232" y="486" type="line" smooth="yes"/>
      <point x="232" y="551"/>
      <point x="265" y="590"/>
      <point x="337" y="590" type="curve" smooth="yes"/>
      <point x="393" y="590"/>
      <point x="429" y="566"/>
      <point x="429" y="525" type="curve" smooth="yes"/>
      <point x="429" y="461"/>
      <point x="318" y="452"/>
      <point x="318" y="366" type="curve" smooth="yes"/>
      <point x="318" y="304"/>
      <point x="365" y="269"/>
      <point x="477" y="229" type="curve" smooth="yes"/>
      <point x="545" y="205"/>
      <point x="560" y="187"/>
      <point x="560" y="158" type="curve" smooth="yes"/>
      <point x="560" y="129"/>
      <point x="540" y="114"/>
      <point x="504" y="114" type="curve" smooth="yes"/>
      <point x="463" y="114"/>
      <point x="436" y="140"/>
      <point x="431" y="181" type="curve"/>
      <point x="274" y="181" type="line"/>
      <point x="290" y="58"/>
      <point x="375" y="-10"/>
    </contour>
  </outline>
</glyph>
<glyph name="ae" format="1">
  <advance width="969"/>
  <unicode hex="00E6"/>
  <outline>
    <contour>
      <point x="254" y="-12" type="curve" smooth="yes"/>
      <point x="358" y="-12"/>
      <point x="415" y="23"/>
      <point x="456" y="75" type="curve"/>
      <point x="504" y="21"/>
      <point x="577" y="-12"/>
      <point x="663" y="-12" type="curve" smooth="yes"/>
      <point x="788" y="-12"/>
      <point x="887" y="71"/>
      <point x="914" y="176" type="curve"/>
      <point x="742" y="176" type="line"/>
      <point x="728" y="150"/>
      <point x="701" y="126"/>
      <point x="661" y="126" type="curve" smooth="yes"/>
      <point x="608" y="126"/>
      <point x="575" y="159"/>
      <point x="568" y="201" type="curve"/>
      <point x="922" y="201" type="line"/>
      <point x="924" y="218"/>
      <point x="925" y="236"/>
      <point x="925" y="250" type="curve" smooth="yes"/>
      <point x="925" y="407"/>
      <point x="811" y="508"/>
      <point x="662" y="508" type="curve" smooth="yes"/>
      <point x="599" y="508"/>
      <point x="541" y="488"/>
      <point x="497" y="455" type="curve"/>
      <point x="453" y="490"/>
      <point x="390" y="508"/>
      <point x="316" y="508" type="curve" smooth="yes"/>
      <point x="179" y="508"/>
      <point x="85" y="431"/>
      <point x="76" y="325" type="curve"/>
      <point x="239" y="325" type="line"/>
      <point x="246" y="355"/>
      <point x="278" y="371"/>
      <point x="316" y="371" type="curve" smooth="yes"/>
      <point x="355" y="371"/>
      <point x="392" y="354"/>
      <point x="392" y="305" type="curve" smooth="yes"/>
      <point x="392" y="295" type="line"/>
      <point x="262" y="295" type="line" smooth="yes"/>
      <point x="106" y="295"/>
      <point x="50" y="223"/>
      <point x="50" y="137" type="curve" smooth="yes"/>
      <point x="50" y="55"/>
      <point x="125" y="-12"/>
    </contour>
    <contour>
      <point x="283" y="116" type="curve" smooth="yes"/>
      <point x="255" y="116"/>
      <point x="231" y="132"/>
      <point x="231" y="158" type="curve" smooth="yes"/>
      <point x="231" y="182"/>
      <point x="250" y="201"/>
      <point x="287" y="201" type="curve" smooth="yes"/>
      <point x="382" y="201" type="line"/>
      <point x="382" y="201" type="line"/>
      <point x="367" y="150"/>
      <point x="334" y="116"/>
    </contour>
    <contour>
      <point x="571" y="296" type="line"/>
      <point x="585" y="347"/>
      <point x="621" y="372"/>
      <point x="664" y="372" type="curve" smooth="yes"/>
      <point x="711" y="372"/>
      <point x="746" y="343"/>
      <point x="750" y="296" type="curve"/>
    </contour>
    <contour>
      <point x="498" y="0" type="move" name="bottom"/>
    </contour>
    <contour>
      <point x="498" y="496" type="move" name="top"/>
    </contour>
  </outline>
</glyph>
<glyph name="eth" format="1">
  <advance width="664"/>
  <unicode hex="00F0"/>
  <outline>
    <contour>
      <point x="327" y="-12" type="curve" smooth="yes"/>
      <point x="486" y="-12"/>
      <point x="614" y="105"/>
      <point x="614" y="306" type="curve" smooth="yes"/>
      <point x="614" y="417"/>
      <point x="558" y="589"/>
      <point x="432" y="700" type="curve"/>
      <point x="275" y="700" type="line"/>
      <point x="353" y="630"/>
      <point x="429" y="511"/>
      <point x="450" y="406" type="curve"/>
      <point x="478" y="445" type="line"/>
      <point x="420" y="480"/>
      <point x="378" y="499"/>
      <point x="314" y="499" type="curve" smooth="yes"/>
      <point x="162" y="499"/>
      <point x="50" y="391"/>
      <point x="50" y="245" type="curve" smooth="yes"/>
      <point x="50" y="99"/>
      <point x="165" y="-12"/>
    </contour>
    <contour>
      <point x="332" y="134" type="curve" smooth="yes"/>
      <point x="274" y="134"/>
      <point x="225" y="176"/>
      <point x="225" y="244" type="curve" smooth="yes"/>
      <point x="225" y="312"/>
      <point x="274" y="354"/>
      <point x="332" y="354" type="curve" smooth="yes"/>
      <point x="390" y="354"/>
      <point x="439" y="312"/>
      <point x="439" y="244" type="curve" smooth="yes"/>
      <point x="439" y="176"/>
      <point x="390" y="134"/>
    </contour>
    <contour>
      <point x="276" y="523" type="line"/>
      <point x="571" y="613" type="line"/>
      <point x="571" y="710" type="line"/>
      <point x="276" y="620" type="line"/>
    </contour>
  </outline>
</glyph>
<glyph name="divide" format="1">
  <advance width="556"/>
  <unicode hex="00F7"/>
  <outline>
    <contour>
      <point x="48" y="218" type="line"/>
      <point x="508" y="218" type="line"/>
      <point x="508" y="360" type="line"/>
      <point x="48" y="360" type="line"/>
    </contour>
    <component base="period" xOffset="137" yOffset="-5" identifier="9315A896"/>
    <component base="period" xOffset="137" yOffset="413" identifier="0A9C85AF"/>
  </outline>
</glyph>
<glyph name="oslash" format="1">
  <advance width="580"/>
  <unicode hex="00F8"/>
  <outline>
    <contour>
      <point x="17" y="0" type="line"/>
      <point x="139" y="0" type="line"/>
      <point x="563" y="496" type="line"/>
      <point x="441" y="496" type="line"/>
    </contour>
    <contour>
      <point x="290" y="-12" type="curve" smooth="yes"/>
      <point x="436" y="-12"/>
      <point x="550" y="98"/>
      <point x="550" y="248" type="curve" smooth="yes"/>
      <point x="550" y="398"/>
      <point x="436" y="508"/>
      <point x="290" y="508" type="curve" smooth="yes"/>
      <point x="144" y="508"/>
      <point x="30" y="398"/>
      <point x="30" y="248" type="curve" smooth="yes"/>
      <point x="30" y="98"/>
      <point x="144" y="-12"/>
    </contour>
    <contour>
      <point x="290" y="117" type="curve" smooth="yes"/>
      <point x="233" y="117"/>
      <point x="189" y="161"/>
      <point x="189" y="248" type="curve" smooth="yes"/>
      <point x="189" y="335"/>
      <point x="233" y="379"/>
      <point x="290" y="379" type="curve" smooth="yes"/>
      <point x="347" y="379"/>
      <point x="391" y="335"/>
      <point x="391" y="248" type="curve" smooth="yes"/>
      <point x="391" y="161"/>
      <point x="347" y="117"/>
    </contour>
  </outline>
</glyph>
<glyph name="thorn" format="1">
  <advance width="675"/>
  <unicode hex="00FE"/>
  <outline>
    <contour>
      <point x="62" y="-220" type="line"/>
      <point x="233" y="-220" type="line"/>
      <point x="233" y="53" type="line"/>
      <point x="267" y="12"/>
      <point x="315" y="-12"/>
      <point x="383" y="-12" type="curve" smooth="yes"/>
      <point x="516" y="-12"/>
      <point x="625" y="98"/>
      <point x="625" y="247" type="curve" smooth="yes"/>
      <point x="625" y="396"/>
      <point x="516" y="508"/>
      <point x="383" y="508" type="curve" smooth="yes"/>
      <point x="307" y="508"/>
      <point x="264" y="476"/>
      <point x="233" y="436" type="curve"/>
      <point x="233" y="720" type="line"/>
      <point x="62" y="720" type="line"/>
    </contour>
    <contour>
      <point x="338" y="137" type="curve" smooth="yes"/>
      <point x="272" y="137"/>
      <point x="225" y="185"/>
      <point x="225" y="248" type="curve" smooth="yes"/>
      <point x="225" y="309"/>
      <point x="272" y="359"/>
      <point x="338" y="359" type="curve" smooth="yes"/>
      <point x="403" y="359"/>
      <point x="451" y="309"/>
      <point x="451" y="247" type="curve" smooth="yes"/>
      <point x="451" y="185"/>
      <point x="403" y="137"/>
    </contour>
  </outline>
</glyph>
<glyph name="Aogonek" format="1">
  <advance width="745"/>
  <unicode hex="0104"/>
  <outline>
    <contour>
      <point x="630" y="-217" type="curve" smooth="yes"/>
      <point x="667" y="-217"/>
      <point x="700" y="-211"/>
      <point x="729" y="-202" type="curve"/>
      <point x="729" y="-106" type="line"/>
      <point x="700" y="-116"/>
      <point x="675" y="-121"/>
      <point x="654" y="-121" type="curve" smooth="yes"/>
      <point x="625" y="-121"/>
      <point x="609" y="-108"/>
      <point x="609" y="-86" type="curve" smooth="yes"/>
      <point x="609" y="-66"/>
      <point x="622" y="-46"/>
      <point x="675" y="-22" type="curve" smooth="yes"/>
      <point x="722" y="0" type="line"/>
      <point x="685" y="83" type="line"/>
      <point x="646" y="66" type="line" smooth="yes"/>
      <point x="519" y="12"/>
      <point x="483" y="-38"/>
      <point x="483" y="-100" type="curve" smooth="yes"/>
      <point x="483" y="-180"/>
      <point x="548" y="-217"/>
    </contour>
    <component base="A" identifier="BB2B9AC3"/>
    <contour>
      <point x="722" y="0" type="move" name="_ogonek"/>
    </contour>
  </outline>
</glyph>
<glyph name="dcaron" format="1">
  <advance width="855"/>
  <unicode hex="010F"/>
  <outline>
    <contour>
      <point x="689" y="470" type="line"/>
      <point x="784" y="470"/>
      <point x="829" y="532"/>
      <point x="829" y="622" type="curve" smooth="yes"/>
      <point x="829" y="658"/>
      <point x="823" y="698"/>
      <point x="809" y="740" type="curve"/>
      <point x="678" y="740" type="line"/>
      <point x="678" y="617" type="line"/>
      <point x="741" y="617" type="line"/>
      <point x="741" y="601" type="line" smooth="yes"/>
      <point x="741" y="556"/>
      <point x="723" y="535"/>
      <point x="689" y="535" type="curve"/>
    </contour>
    <component base="d" identifier="2DE0FB7B"/>
  </outline>
</glyph>
<glyph name="dcroat" format="1">
  <advance width="692"/>
  <unicode hex="0111"/>
  <outline>
    <contour>
      <point x="306" y="561" type="line"/>
      <point x="679" y="561" type="line"/>
      <point x="679" y="653" type="line"/>
      <point x="306" y="653" type="line"/>
    </contour>
    <component base="d" identifier="CE7B6673"/>
  </outline>
</glyph>
<glyph name="Gcommaaccent" format="1">
  <advance width="788"/>
  <unicode hex="0122"/>
  <outline>
    <contour>
      <point x="325" y="-310" type="line"/>
      <point x="420" y="-310"/>
      <point x="465" y="-248"/>
      <point x="465" y="-158" type="curve" smooth="yes"/>
      <point x="465" y="-122"/>
      <point x="459" y="-82"/>
      <point x="445" y="-40" type="curve"/>
      <point x="314" y="-40" type="line"/>
      <point x="314" y="-163" type="line"/>
      <point x="377" y="-163" type="line"/>
      <point x="377" y="-179" type="line" smooth="yes"/>
      <point x="377" y="-224"/>
      <point x="359" y="-245"/>
      <point x="325" y="-245" type="curve"/>
    </contour>
    <component base="G" identifier="DB6D7537"/>
    <contour>
      <point x="382" y="0" type="move" name="_bottom"/>
    </contour>
  </outline>
</glyph>
<glyph name="gcommaaccent" format="1">
  <advance width="585"/>
  <unicode hex="0123"/>
  <outline>
    <contour>
      <point x="246" y="598" type="curve"/>
      <point x="377" y="598" type="line"/>
      <point x="377" y="721" type="line"/>
      <point x="314" y="721" type="line"/>
      <point x="314" y="737" type="line" smooth="yes"/>
      <point x="314" y="782"/>
      <point x="332" y="803"/>
      <point x="366" y="803" type="curve"/>
      <point x="366" y="868" type="line"/>
      <point x="271" y="868"/>
      <point x="226" y="806"/>
      <point x="226" y="716" type="curve" smooth="yes"/>
      <point x="226" y="680"/>
      <point x="232" y="640"/>
    </contour>
    <component base="g"/>
  </outline>
</glyph>
<glyph name="Kcommaaccent" format="1">
  <advance width="697"/>
  <unicode hex="0136"/>
  <outline>
    <contour>
      <point x="303" y="-310" type="line"/>
      <point x="398" y="-310"/>
      <point x="443" y="-248"/>
      <point x="443" y="-158" type="curve" smooth="yes"/>
      <point x="443" y="-122"/>
      <point x="437" y="-82"/>
      <point x="423" y="-40" type="curve"/>
      <point x="292" y="-40" type="line"/>
      <point x="292" y="-163" type="line"/>
      <point x="355" y="-163" type="line"/>
      <point x="355" y="-179" type="line" smooth="yes"/>
      <point x="355" y="-224"/>
      <point x="337" y="-245"/>
      <point x="303" y="-245" type="curve"/>
    </contour>
    <component base="K" identifier="A9324662"/>
    <contour>
      <point x="360" y="0" type="move" name="_bottom"/>
    </contour>
  </outline>
</glyph>
<glyph name="kcommaaccent" format="1">
  <advance width="630"/>
  <unicode hex="0137"/>
  <outline>
    <contour>
      <point x="254" y="-310" type="line"/>
      <point x="349" y="-310"/>
      <point x="394" y="-248"/>
      <point x="394" y="-158" type="curve" smooth="yes"/>
      <point x="394" y="-122"/>
      <point x="388" y="-82"/>
      <point x="375" y="-40" type="curve"/>
      <point x="244" y="-40" type="line"/>
      <point x="244" y="-163" type="line"/>
      <point x="307" y="-163" type="line"/>
      <point x="307" y="-179" type="line" smooth="yes"/>
      <point x="307" y="-224"/>
      <point x="288" y="-245"/>
      <point x="254" y="-245" type="curve"/>
    </contour>
    <component base="k" identifier="72F0CEF2"/>
  </outline>
</glyph>
<glyph name="Lcommaaccent" format="1">
  <advance width="577"/>
  <unicode hex="013B"/>
  <outline>
    <contour>
      <point x="213" y="-310" type="line"/>
      <point x="308" y="-310"/>
      <point x="353" y="-248"/>
      <point x="353" y="-158" type="curve" smooth="yes"/>
      <point x="353" y="-122"/>
      <point x="347" y="-82"/>
      <point x="333" y="-40" type="curve"/>
      <point x="202" y="-40" type="line"/>
      <point x="202" y="-163" type="line"/>
      <point x="265" y="-163" type="line"/>
      <point x="265" y="-179" type="line" smooth="yes"/>
      <point x="265" y="-224"/>
      <point x="247" y="-245"/>
      <point x="213" y="-245" type="curve"/>
    </contour>
    <component base="L" identifier="82332C3C"/>
    <contour>
      <point x="270" y="5" type="move" name="_commaaccent"/>
    </contour>
  </outline>
</glyph>
<glyph name="lcommaaccent" format="1">
  <advance width="295"/>
  <unicode hex="013C"/>
  <outline>
    <contour>
      <point x="91" y="-310" type="line"/>
      <point x="185" y="-310"/>
      <point x="231" y="-248"/>
      <point x="231" y="-158" type="curve" smooth="yes"/>
      <point x="231" y="-122"/>
      <point x="225" y="-82"/>
      <point x="211" y="-40" type="curve"/>
      <point x="80" y="-40" type="line"/>
      <point x="80" y="-163" type="line"/>
      <point x="143" y="-163" type="line"/>
      <point x="143" y="-179" type="line" smooth="yes"/>
      <point x="143" y="-224"/>
      <point x="125" y="-245"/>
      <point x="91" y="-245" type="curve"/>
    </contour>
    <component base="l" identifier="323579EB"/>
  </outline>
</glyph>
<glyph name="Lcaron" format="1">
  <advance width="577"/>
  <unicode hex="013D"/>
  <outline>
    <contour>
      <point x="346" y="430" type="line"/>
      <point x="441" y="430"/>
      <point x="486" y="492"/>
      <point x="486" y="582" type="curve" smooth="yes"/>
      <point x="486" y="618"/>
      <point x="480" y="658"/>
      <point x="466" y="700" type="curve"/>
      <point x="335" y="700" type="line"/>
      <point x="335" y="577" type="line"/>
      <point x="398" y="577" type="line"/>
      <point x="398" y="561" type="line" smooth="yes"/>
      <point x="398" y="516"/>
      <point x="380" y="495"/>
      <point x="346" y="495" type="curve"/>
    </contour>
    <component base="L" identifier="324A509E"/>
    <contour>
      <point x="403" y="742" type="move" name="_bottom"/>
    </contour>
  </outline>
</glyph>
<glyph name="lcaron" format="1">
  <advance width="474"/>
  <unicode hex="013E"/>
  <outline>
    <contour>
      <point x="309" y="470" type="line"/>
      <point x="404" y="470"/>
      <point x="448" y="532"/>
      <point x="448" y="622" type="curve" smooth="yes"/>
      <point x="448" y="658"/>
      <point x="443" y="698"/>
      <point x="429" y="740" type="curve"/>
      <point x="298" y="740" type="line"/>
      <point x="298" y="617" type="line"/>
      <point x="361" y="617" type="line"/>
      <point x="361" y="601" type="line" smooth="yes"/>
      <point x="361" y="556"/>
      <point x="343" y="535"/>
      <point x="309" y="535" type="curve"/>
    </contour>
    <component base="l" identifier="10F8DA4C"/>
  </outline>
</glyph>
<glyph name="ldot" format="1">
  <advance width="441"/>
  <unicode hex="0140"/>
  <outline>
    <contour>
      <point x="62" y="0" type="line"/>
      <point x="233" y="0" type="line"/>
      <point x="233" y="720" type="line"/>
      <point x="62" y="720" type="line"/>
    </contour>
    <contour>
      <point x="337" y="290" type="curve" smooth="yes"/>
      <point x="379" y="290"/>
      <point x="411" y="322"/>
      <point x="411" y="363" type="curve" smooth="yes"/>
      <point x="411" y="405"/>
      <point x="379" y="438"/>
      <point x="337" y="438" type="curve" smooth="yes"/>
      <point x="295" y="438"/>
      <point x="263" y="405"/>
      <point x="263" y="363" type="curve" smooth="yes"/>
      <point x="263" y="322"/>
      <point x="295" y="290"/>
    </contour>
  </outline>
</glyph>
<glyph name="Lslash" format="1">
  <advance width="600"/>
  <unicode hex="0141"/>
  <outline>
    <contour>
      <point x="20" y="253" type="line"/>
      <point x="339" y="348" type="line"/>
      <point x="339" y="492" type="line"/>
      <point x="20" y="397" type="line"/>
    </contour>
    <component base="L" xOffset="23"/>
  </outline>
</glyph>
<glyph name="lslash" format="1">
  <advance width="326"/>
  <unicode hex="0142"/>
  <outline>
    <contour>
      <point x="77" y="0" type="line"/>
      <point x="248" y="0" type="line"/>
      <point x="248" y="720" type="line"/>
      <point x="77" y="720" type="line"/>
    </contour>
    <contour>
      <point x="12" y="256" type="line"/>
      <point x="314" y="347" type="line"/>
      <point x="314" y="492" type="line"/>
      <point x="12" y="401" type="line"/>
    </contour>
  </outline>
</glyph>
<glyph name="Ncommaaccent" format="1">
  <advance width="752"/>
  <unicode hex="0145"/>
  <outline>
    <contour>
      <point x="332" y="-310" type="line"/>
      <point x="427" y="-310"/>
      <point x="472" y="-248"/>
      <point x="472" y="-158" type="curve" smooth="yes"/>
      <point x="472" y="-122"/>
      <point x="466" y="-82"/>
      <point x="452" y="-40" type="curve"/>
      <point x="321" y="-40" type="line"/>
      <point x="321" y="-163" type="line"/>
      <point x="384" y="-163" type="line"/>
      <point x="384" y="-179" type="line" smooth="yes"/>
      <point x="384" y="-224"/>
      <point x="366" y="-245"/>
      <point x="332" y="-245" type="curve"/>
    </contour>
    <component base="N" identifier="B102A41C"/>
    <contour>
      <point x="389" y="0" type="move" name="_bottom"/>
    </contour>
  </outline>
</glyph>
<glyph name="ncommaaccent" format="1">
  <advance width="643"/>
  <unicode hex="0146"/>
  <outline>
    <contour>
      <point x="273" y="-310" type="line"/>
      <point x="368" y="-310"/>
      <point x="413" y="-248"/>
      <point x="413" y="-158" type="curve" smooth="yes"/>
      <point x="413" y="-122"/>
      <point x="407" y="-82"/>
      <point x="393" y="-40" type="curve"/>
      <point x="262" y="-40" type="line"/>
      <point x="262" y="-163" type="line"/>
      <point x="325" y="-163" type="line"/>
      <point x="325" y="-179" type="line" smooth="yes"/>
      <point x="325" y="-224"/>
      <point x="307" y="-245"/>
      <point x="273" y="-245" type="curve"/>
    </contour>
    <component base="n" identifier="2ECCD917"/>
  </outline>
</glyph>
<glyph name="OE" format="1">
  <advance width="1089"/>
  <unicode hex="0152"/>
  <outline>
    <contour>
      <point x="385" y="-12" type="curve" smooth="yes"/>
      <point x="459" y="-12"/>
      <point x="545" y="19"/>
      <point x="589" y="69" type="curve"/>
      <point x="589" y="0" type="line"/>
      <point x="1039" y="0" type="line"/>
      <point x="1039" y="137" type="line"/>
      <point x="760" y="137" type="line"/>
      <point x="760" y="291" type="line"/>
      <point x="1009" y="291" type="line"/>
      <point x="1009" y="423" type="line"/>
      <point x="760" y="423" type="line"/>
      <point x="760" y="563" type="line"/>
      <point x="1039" y="563" type="line"/>
      <point x="1039" y="700" type="line"/>
      <point x="589" y="700" type="line"/>
      <point x="589" y="627" type="line"/>
      <point x="544" y="681"/>
      <point x="459" y="712"/>
      <point x="385" y="712" type="curve" smooth="yes"/>
      <point x="189" y="712"/>
      <point x="43" y="564"/>
      <point x="43" y="350" type="curve" smooth="yes"/>
      <point x="43" y="136"/>
      <point x="189" y="-12"/>
    </contour>
    <contour>
      <point x="403" y="143" type="curve" smooth="yes"/>
      <point x="300" y="143"/>
      <point x="217" y="223"/>
      <point x="217" y="350" type="curve" smooth="yes"/>
      <point x="217" y="477"/>
      <point x="300" y="557"/>
      <point x="403" y="557" type="curve" smooth="yes"/>
      <point x="506" y="557"/>
      <point x="589" y="477"/>
      <point x="589" y="350" type="curve" smooth="yes"/>
      <point x="589" y="223"/>
      <point x="506" y="143"/>
    </contour>
  </outline>
</glyph>
<glyph name="oe" format="1">
  <advance width="972"/>
  <unicode hex="0153"/>
  <outline>
    <contour>
      <point x="310" y="-12" type="curve" smooth="yes"/>
      <point x="378" y="-12"/>
      <point x="435" y="12"/>
      <point x="477" y="53" type="curve"/>
      <point x="524" y="12"/>
      <point x="589" y="-12"/>
      <point x="666" y="-12" type="curve" smooth="yes"/>
      <point x="791" y="-12"/>
      <point x="890" y="71"/>
      <point x="917" y="176" type="curve"/>
      <point x="745" y="176" type="line"/>
      <point x="731" y="150"/>
      <point x="704" y="126"/>
      <point x="664" y="126" type="curve" smooth="yes"/>
      <point x="606" y="126"/>
      <point x="572" y="162"/>
      <point x="566" y="205" type="curve"/>
      <point x="925" y="205" type="line"/>
      <point x="927" y="222"/>
      <point x="928" y="240"/>
      <point x="928" y="254" type="curve" smooth="yes"/>
      <point x="928" y="405"/>
      <point x="814" y="508"/>
      <point x="665" y="508" type="curve" smooth="yes"/>
      <point x="589" y="508"/>
      <point x="525" y="483"/>
      <point x="479" y="441" type="curve"/>
      <point x="437" y="483"/>
      <point x="380" y="508"/>
      <point x="310" y="508" type="curve" smooth="yes"/>
      <point x="164" y="508"/>
      <point x="50" y="398"/>
      <point x="50" y="248" type="curve" smooth="yes"/>
      <point x="50" y="98"/>
      <point x="164" y="-12"/>
    </contour>
    <contour>
      <point x="310" y="136" type="curve" smooth="yes"/>
      <point x="261" y="136"/>
      <point x="224" y="174"/>
      <point x="224" y="248" type="curve" smooth="yes"/>
      <point x="224" y="322"/>
      <point x="261" y="360"/>
      <point x="310" y="360" type="curve" smooth="yes"/>
      <point x="359" y="360"/>
      <point x="396" y="322"/>
      <point x="396" y="248" type="curve" smooth="yes"/>
      <point x="396" y="174"/>
      <point x="359" y="136"/>
    </contour>
    <contour>
      <point x="571" y="300" type="line"/>
      <point x="585" y="349"/>
      <point x="621" y="372"/>
      <point x="667" y="372" type="curve" smooth="yes"/>
      <point x="714" y="372"/>
      <point x="749" y="341"/>
      <point x="753" y="300" type="curve"/>
    </contour>
  </outline>
</glyph>
<glyph name="Rcommaaccent" format="1">
  <advance width="652"/>
  <unicode hex="0156"/>
  <outline>
    <contour>
      <point x="277" y="-310" type="line"/>
      <point x="372" y="-310"/>
      <point x="417" y="-248"/>
      <point x="417" y="-158" type="curve" smooth="yes"/>
      <point x="417" y="-122"/>
      <point x="411" y="-82"/>
      <point x="397" y="-40" type="curve"/>
      <point x="266" y="-40" type="line"/>
      <point x="266" y="-163" type="line"/>
      <point x="329" y="-163" type="line"/>
      <point x="329" y="-179" type="line" smooth="yes"/>
      <point x="329" y="-224"/>
      <point x="311" y="-245"/>
      <point x="277" y="-245" type="curve"/>
    </contour>
    <component base="R" identifier="E4C228DC"/>
    <contour>
      <point x="334" y="0" type="move" name="_bottom"/>
    </contour>
  </outline>
</glyph>
<glyph name="rcommaaccent" format="1">
  <advance width="428"/>
  <unicode hex="0157"/>
  <outline>
    <contour>
      <point x="90" y="-310" type="line"/>
      <point x="185" y="-310"/>
      <point x="229" y="-248"/>
      <point x="229" y="-158" type="curve" smooth="yes"/>
      <point x="229" y="-122"/>
      <point x="224" y="-82"/>
      <point x="210" y="-40" type="curve"/>
      <point x="79" y="-40" type="line"/>
      <point x="79" y="-163" type="line"/>
      <point x="142" y="-163" type="line"/>
      <point x="142" y="-179" type="line" smooth="yes"/>
      <point x="142" y="-224"/>
      <point x="123" y="-245"/>
      <point x="90" y="-245" type="curve"/>
    </contour>
    <component base="r" identifier="2B3F6960"/>
  </outline>
</glyph>
<glyph name="tcedilla" format="1">
  <advance width="454"/>
  <unicode hex="0163"/>
  <outline>
    <contour>
      <point x="152" y="-271" type="line"/>
      <point x="306" y="-271" type="line" smooth="yes"/>
      <point x="375" y="-271"/>
      <point x="445" y="-237"/>
      <point x="445" y="-155" type="curve" smooth="yes"/>
      <point x="445" y="-72"/>
      <point x="375" y="-41"/>
      <point x="315" y="-41" type="curve"/>
      <point x="315" y="43" type="line"/>
      <point x="212" y="43" type="line"/>
      <point x="212" y="-126" type="line"/>
      <point x="283" y="-126" type="line" smooth="yes"/>
      <point x="308" y="-126"/>
      <point x="323" y="-132"/>
      <point x="323" y="-151" type="curve" smooth="yes"/>
      <point x="323" y="-171"/>
      <point x="308" y="-177"/>
      <point x="283" y="-177" type="curve" smooth="yes"/>
      <point x="152" y="-177" type="line"/>
    </contour>
    <component base="t"/>
  </outline>
</glyph>
<glyph name="tcaron" format="1">
  <advance width="454"/>
  <unicode hex="0165"/>
  <outline>
    <contour>
      <point x="342" y="600" type="line"/>
      <point x="437" y="600"/>
      <point x="482" y="652"/>
      <point x="482" y="732" type="curve" smooth="yes"/>
      <point x="482" y="768"/>
      <point x="476" y="798"/>
      <point x="462" y="840" type="curve"/>
      <point x="331" y="840" type="line"/>
      <point x="331" y="717" type="line"/>
      <point x="394" y="717" type="line"/>
      <point x="394" y="701" type="line" smooth="yes"/>
      <point x="394" y="676"/>
      <point x="376" y="665"/>
      <point x="342" y="665" type="curve"/>
    </contour>
    <component base="t"/>
  </outline>
</glyph>
<glyph name="Schwa" format="1">
  <advance width="776"/>
  <unicode hex="018F"/>
  <outline>
    <contour>
      <point x="387" y="-12" type="curve" smooth="yes"/>
      <point x="595" y="-12"/>
      <point x="733" y="132"/>
      <point x="733" y="350" type="curve" smooth="yes"/>
      <point x="733" y="569"/>
      <point x="593" y="712"/>
      <point x="386" y="712" type="curve" smooth="yes"/>
      <point x="216" y="712"/>
      <point x="92" y="611"/>
      <point x="54" y="468" type="curve"/>
      <point x="240" y="468" type="line"/>
      <point x="261" y="524"/>
      <point x="318" y="558"/>
      <point x="388" y="558" type="curve" smooth="yes"/>
      <point x="482" y="558"/>
      <point x="556" y="493"/>
      <point x="556" y="381" type="curve" smooth="yes"/>
      <point x="556" y="306" type="line" smooth="yes"/>
      <point x="556" y="203"/>
      <point x="477" y="145"/>
      <point x="384" y="145" type="curve" smooth="yes"/>
      <point x="291" y="145"/>
      <point x="223" y="200"/>
      <point x="219" y="282" type="curve"/>
      <point x="579" y="282" type="line"/>
      <point x="579" y="397" type="line"/>
      <point x="47" y="397" type="line"/>
      <point x="45" y="376"/>
      <point x="43" y="354"/>
      <point x="43" y="335" type="curve" smooth="yes"/>
      <point x="43" y="118"/>
      <point x="181" y="-12"/>
    </contour>
    <contour>
      <point x="386" y="700" type="move" name="top"/>
    </contour>
  </outline>
</glyph>
<glyph name="florin" format="1">
  <advance width="336"/>
  <unicode hex="0192"/>
  <outline>
    <contour>
      <point x="-63" y="-266" type="line"/>
      <point x="-36" y="-266" type="line" smooth="yes"/>
      <point x="81" y="-266"/>
      <point x="171" y="-225"/>
      <point x="186" y="-82" type="curve" smooth="yes"/>
      <point x="256" y="579" type="line" smooth="yes"/>
      <point x="260" y="624"/>
      <point x="284" y="638"/>
      <point x="335" y="638" type="curve"/>
      <point x="350" y="783" type="line"/>
      <point x="184" y="783"/>
      <point x="100" y="721"/>
      <point x="85" y="579" type="curve" smooth="yes"/>
      <point x="15" y="-82" type="line" smooth="yes"/>
      <point x="12" y="-108"/>
      <point x="0" y="-121"/>
      <point x="-22" y="-121" type="curve" smooth="yes"/>
      <point x="-49" y="-121" type="line"/>
    </contour>
    <contour>
      <point x="15" y="416" type="line"/>
      <point x="320" y="416" type="line"/>
      <point x="334" y="558" type="line"/>
      <point x="29" y="558" type="line"/>
    </contour>
  </outline>
</glyph>
<glyph name="Scommaaccent" format="1">
  <advance width="616"/>
  <unicode hex="0218"/>
  <outline>
    <contour>
      <point x="267" y="-310" type="line"/>
      <point x="362" y="-310"/>
      <point x="407" y="-248"/>
      <point x="407" y="-158" type="curve" smooth="yes"/>
      <point x="407" y="-122"/>
      <point x="401" y="-82"/>
      <point x="387" y="-40" type="curve"/>
      <point x="256" y="-40" type="line"/>
      <point x="256" y="-163" type="line"/>
      <point x="319" y="-163" type="line"/>
      <point x="319" y="-179" type="line" smooth="yes"/>
      <point x="319" y="-224"/>
      <point x="301" y="-245"/>
      <point x="267" y="-245" type="curve"/>
    </contour>
    <component base="S" identifier="4B1163CA"/>
    <contour>
      <point x="324" y="0" type="move" name="_bottom"/>
    </contour>
  </outline>
</glyph>
<glyph name="scommaaccent" format="1">
  <advance width="549"/>
  <unicode hex="0219"/>
  <outline>
    <contour>
      <point x="221" y="-310" type="line"/>
      <point x="316" y="-310"/>
      <point x="361" y="-248"/>
      <point x="361" y="-158" type="curve" smooth="yes"/>
      <point x="361" y="-122"/>
      <point x="355" y="-82"/>
      <point x="341" y="-40" type="curve"/>
      <point x="210" y="-40" type="line"/>
      <point x="210" y="-163" type="line"/>
      <point x="273" y="-163" type="line"/>
      <point x="273" y="-179" type="line" smooth="yes"/>
      <point x="273" y="-224"/>
      <point x="255" y="-245"/>
      <point x="221" y="-245" type="curve"/>
    </contour>
    <component base="s" identifier="F01BA1AB"/>
  </outline>
</glyph>
<glyph name="Tcommaaccent" format="1">
  <advance width="621"/>
  <unicode hex="021A"/>
  <outline>
    <contour>
      <point x="246" y="-310" type="line"/>
      <point x="341" y="-310"/>
      <point x="386" y="-248"/>
      <point x="386" y="-158" type="curve" smooth="yes"/>
      <point x="386" y="-122"/>
      <point x="380" y="-82"/>
      <point x="367" y="-40" type="curve"/>
      <point x="236" y="-40" type="line"/>
      <point x="236" y="-163" type="line"/>
      <point x="299" y="-163" type="line"/>
      <point x="299" y="-179" type="line" smooth="yes"/>
      <point x="299" y="-224"/>
      <point x="280" y="-245"/>
      <point x="246" y="-245" type="curve"/>
    </contour>
    <component base="T" identifier="5B27F176"/>
  </outline>
</glyph>
<glyph name="tcommaaccent" format="1">
  <advance width="454"/>
  <unicode hex="021B"/>
  <outline>
    <contour>
      <point x="212" y="-310" type="line"/>
      <point x="307" y="-310"/>
      <point x="352" y="-248"/>
      <point x="352" y="-158" type="curve" smooth="yes"/>
      <point x="352" y="-122"/>
      <point x="346" y="-82"/>
      <point x="332" y="-40" type="curve"/>
      <point x="201" y="-40" type="line"/>
      <point x="201" y="-163" type="line"/>
      <point x="264" y="-163" type="line"/>
      <point x="264" y="-179" type="line" smooth="yes"/>
      <point x="264" y="-224"/>
      <point x="246" y="-245"/>
      <point x="212" y="-245" type="curve"/>
    </contour>
    <contour>
      <point x="307" y="0" type="curve" smooth="yes"/>
      <point x="404" y="0" type="line"/>
      <point x="404" y="145" type="line"/>
      <point x="333" y="145" type="line" smooth="yes"/>
      <point x="295" y="145"/>
      <point x="281" y="159"/>
      <point x="281" y="192" type="curve" smooth="yes"/>
      <point x="281" y="354" type="line"/>
      <point x="403" y="354" type="line"/>
      <point x="403" y="496" type="line"/>
      <point x="281" y="496" type="line"/>
      <point x="281" y="642" type="line"/>
      <point x="128" y="642" type="line"/>
      <point x="110" y="496" type="line"/>
      <point x="26" y="496" type="line"/>
      <point x="26" y="354" type="line"/>
      <point x="110" y="354" type="line"/>
      <point x="110" y="194" type="line" smooth="yes"/>
      <point x="110" y="49"/>
      <point x="191" y="0"/>
    </contour>
  </outline>
</glyph>
<glyph name="schwa" format="1">
  <advance width="626"/>
  <unicode hex="0259"/>
  <outline>
    <contour>
      <point x="307" y="-12" type="curve" smooth="yes"/>
      <point x="470" y="-12"/>
      <point x="576" y="103"/>
      <point x="576" y="256" type="curve" smooth="yes"/>
      <point x="576" y="404"/>
      <point x="466" y="508"/>
      <point x="306" y="508" type="curve" smooth="yes"/>
      <point x="186" y="508"/>
      <point x="90" y="431"/>
      <point x="59" y="332" type="curve"/>
      <point x="235" y="332" type="line"/>
      <point x="250" y="353"/>
      <point x="274" y="370"/>
      <point x="308" y="370" type="curve" smooth="yes"/>
      <point x="373" y="370"/>
      <point x="407" y="326"/>
      <point x="407" y="276" type="curve" smooth="yes"/>
      <point x="407" y="246" type="line" smooth="yes"/>
      <point x="407" y="163"/>
      <point x="364" y="124"/>
      <point x="305" y="124" type="curve" smooth="yes"/>
      <point x="258" y="124"/>
      <point x="223" y="155"/>
      <point x="219" y="196" type="curve"/>
      <point x="456" y="196" type="line"/>
      <point x="456" y="291" type="line"/>
      <point x="47" y="291" type="line"/>
      <point x="45" y="274"/>
      <point x="44" y="256"/>
      <point x="44" y="242" type="curve" smooth="yes"/>
      <point x="44" y="91"/>
      <point x="158" y="-12"/>
    </contour>
    <contour>
      <point x="308" y="0" type="move" name="bottom"/>
    </contour>
    <contour>
      <point x="208" y="485" type="move" name="ogonek"/>
    </contour>
    <contour>
      <point x="310" y="500" type="move" name="top"/>
    </contour>
  </outline>
</glyph>
<glyph name="caron" format="1">
  <advance width="330"/>
  <unicode hex="02C7"/>
  <outline>
    <contour>
      <point x="165" y="534" type="line"/>
      <point x="320" y="613" type="line"/>
      <point x="320" y="731" type="line"/>
      <point x="165" y="644" type="line"/>
      <point x="10" y="731" type="line"/>
      <point x="10" y="613" type="line"/>
    </contour>
    <contour>
      <point x="165" y="496" type="move" name="_top"/>
    </contour>
  </outline>
</glyph>
<glyph name="breve" format="1">
  <advance width="361"/>
  <unicode hex="02D8"/>
  <outline>
    <contour>
      <point x="180" y="537" type="curve" smooth="yes"/>
      <point x="280" y="537"/>
      <point x="351" y="597"/>
      <point x="351" y="709" type="curve" smooth="yes"/>
      <point x="351" y="729" type="line"/>
      <point x="265" y="729" type="line"/>
      <point x="265" y="687"/>
      <point x="245" y="662"/>
      <point x="180" y="662" type="curve" smooth="yes"/>
      <point x="115" y="662"/>
      <point x="95" y="687"/>
      <point x="95" y="729" type="curve"/>
      <point x="10" y="729" type="line"/>
      <point x="10" y="710" type="line" smooth="yes"/>
      <point x="10" y="598"/>
      <point x="80" y="537"/>
    </contour>
    <contour>
      <point x="180" y="496" type="move" name="_top"/>
    </contour>
  </outline>
</glyph>
<glyph name="dotaccent" format="1">
  <advance width="167"/>
  <unicode hex="02D9"/>
  <outline>
    <contour>
      <point x="83" y="558" type="curve" smooth="yes"/>
      <point x="125" y="558"/>
      <point x="157" y="590"/>
      <point x="157" y="631" type="curve" smooth="yes"/>
      <point x="157" y="673"/>
      <point x="125" y="705"/>
      <point x="83" y="705" type="curve" smooth="yes"/>
      <point x="42" y="705"/>
      <point x="10" y="673"/>
      <point x="10" y="631" type="curve" smooth="yes"/>
      <point x="10" y="590"/>
      <point x="42" y="558"/>
    </contour>
    <contour>
      <point x="84" y="496" type="move" name="_top"/>
    </contour>
  </outline>
</glyph>
<glyph name="ring" format="1">
  <advance width="262"/>
  <unicode hex="02DA"/>
  <outline>
    <contour>
      <point x="131" y="537" type="curve" smooth="yes"/>
      <point x="199" y="537"/>
      <point x="254" y="583"/>
      <point x="254" y="658" type="curve" smooth="yes"/>
      <point x="254" y="733"/>
      <point x="199" y="779"/>
      <point x="131" y="779" type="curve" smooth="yes"/>
      <point x="64" y="779"/>
      <point x="9" y="733"/>
      <point x="9" y="658" type="curve" smooth="yes"/>
      <point x="9" y="583"/>
      <point x="64" y="537"/>
    </contour>
    <contour>
      <point x="131" y="609" type="curve" smooth="yes"/>
      <point x="105" y="609"/>
      <point x="84" y="629"/>
      <point x="84" y="658" type="curve" smooth="yes"/>
      <point x="84" y="688"/>
      <point x="105" y="707"/>
      <point x="131" y="707" type="curve" smooth="yes"/>
      <point x="158" y="707"/>
      <point x="179" y="688"/>
      <point x="179" y="658" type="curve" smooth="yes"/>
      <point x="179" y="629"/>
      <point x="158" y="609"/>
    </contour>
    <contour>
      <point x="131" y="496" type="move" name="_top"/>
    </contour>
  </outline>
</glyph>
<glyph name="ogonek" format="1">
  <advance width="270"/>
  <unicode hex="02DB"/>
  <outline>
    <contour>
      <point x="162" y="-217" type="curve" smooth="yes"/>
      <point x="198" y="-217"/>
      <point x="232" y="-211"/>
      <point x="260" y="-202" type="curve"/>
      <point x="260" y="-106" type="line"/>
      <point x="232" y="-116"/>
      <point x="205" y="-121"/>
      <point x="184" y="-121" type="curve" smooth="yes"/>
      <point x="156" y="-121"/>
      <point x="140" y="-108"/>
      <point x="140" y="-88" type="curve" smooth="yes"/>
      <point x="140" y="-66"/>
      <point x="158" y="-48"/>
      <point x="207" y="-23" type="curve" smooth="yes"/>
      <point x="253" y="0" type="line"/>
      <point x="217" y="77" type="line"/>
      <point x="177" y="60" type="line" smooth="yes"/>
      <point x="50" y="7"/>
      <point x="14" y="-44"/>
      <point x="14" y="-103" type="curve" smooth="yes"/>
      <point x="14" y="-180"/>
      <point x="79" y="-217"/>
    </contour>
    <contour>
      <point x="253" y="0" type="move" name="_ogonek"/>
    </contour>
  </outline>
</glyph>
<glyph name="tilde" format="1">
  <advance width="410"/>
  <unicode hex="02DC"/>
  <outline>
    <contour>
      <point x="267" y="543" type="curve" smooth="yes"/>
      <point x="337" y="543"/>
      <point x="388" y="586"/>
      <point x="405" y="691" type="curve"/>
      <point x="317" y="691" type="line"/>
      <point x="313" y="660"/>
      <point x="297" y="646"/>
      <point x="274" y="646" type="curve" smooth="yes"/>
      <point x="234" y="646"/>
      <point x="203" y="691"/>
      <point x="143" y="691" type="curve" smooth="yes"/>
      <point x="72" y="691"/>
      <point x="22" y="648"/>
      <point x="5" y="543" type="curve"/>
      <point x="92" y="543" type="line"/>
      <point x="97" y="574"/>
      <point x="113" y="588"/>
      <point x="136" y="588" type="curve" smooth="yes"/>
      <point x="176" y="588"/>
      <point x="207" y="543"/>
    </contour>
    <contour>
      <point x="205" y="496" type="move" name="_top"/>
    </contour>
  </outline>
</glyph>
<glyph name="hungarumlaut" format="1">
  <advance width="443"/>
  <unicode hex="02DD"/>
  <outline>
    <contour>
      <point x="203" y="539" type="line"/>
      <point x="308" y="539" type="line"/>
      <point x="429" y="748" type="line"/>
      <point x="293" y="748" type="line"/>
    </contour>
    <contour>
      <point x="10" y="539" type="line"/>
      <point x="115" y="539" type="line"/>
      <point x="220" y="748" type="line"/>
      <point x="85" y="748" type="line"/>
    </contour>
    <contour>
      <point x="172" y="496" type="move" name="_top"/>
    </contour>
  </outline>
</glyph>
<glyph name="acutecomb" format="1">
  <advance width="241"/>
  <unicode hex="0301"/>
  <outline>
    <contour>
      <point x="0" y="534" type="line"/>
      <point x="241" y="635" type="line"/>
      <point x="241" y="768" type="line"/>
      <point x="0" y="652" type="line"/>
    </contour>
    <contour>
      <point x="55" y="496" type="move" name="_top"/>
    </contour>
  </outline>
</glyph>
<glyph name="tildecomb" format="1">
  <advance width="400"/>
  <unicode hex="0303"/>
  <outline>
    <contour>
      <point x="262" y="543" type="curve" smooth="yes"/>
      <point x="332" y="543"/>
      <point x="383" y="586"/>
      <point x="400" y="691" type="curve"/>
      <point x="312" y="691" type="line"/>
      <point x="308" y="660"/>
      <point x="292" y="646"/>
      <point x="269" y="646" type="curve" smooth="yes"/>
      <point x="229" y="646"/>
      <point x="198" y="691"/>
      <point x="138" y="691" type="curve" smooth="yes"/>
      <point x="67" y="691"/>
      <point x="17" y="648"/>
      <point x="0" y="543" type="curve"/>
      <point x="87" y="543" type="line"/>
      <point x="92" y="574"/>
      <point x="108" y="588"/>
      <point x="131" y="588" type="curve" smooth="yes"/>
      <point x="171" y="588"/>
      <point x="202" y="543"/>
    </contour>
    <contour>
      <point x="200" y="496" type="move" name="_top"/>
    </contour>
  </outline>
</glyph>
<glyph name="brevecomb" format="1">
  <advance width="341"/>
  <unicode hex="0306"/>
  <outline>
    <contour>
      <point x="170" y="537" type="curve" smooth="yes"/>
      <point x="270" y="537"/>
      <point x="341" y="597"/>
      <point x="341" y="709" type="curve" smooth="yes"/>
      <point x="341" y="729" type="line"/>
      <point x="255" y="729" type="line"/>
      <point x="255" y="687"/>
      <point x="235" y="662"/>
      <point x="170" y="662" type="curve" smooth="yes"/>
      <point x="105" y="662"/>
      <point x="85" y="687"/>
      <point x="85" y="729" type="curve"/>
      <point x="0" y="729" type="line"/>
      <point x="0" y="710" type="line" smooth="yes"/>
      <point x="0" y="598"/>
      <point x="70" y="537"/>
    </contour>
    <contour>
      <point x="170" y="496" type="move" name="_top"/>
    </contour>
  </outline>
</glyph>
<glyph name="dieresiscomb" format="1">
  <advance width="347"/>
  <unicode hex="0308"/>
  <outline>
    <contour>
      <point x="273" y="558" type="curve" smooth="yes"/>
      <point x="315" y="558"/>
      <point x="347" y="590"/>
      <point x="347" y="631" type="curve" smooth="yes"/>
      <point x="347" y="673"/>
      <point x="315" y="705"/>
      <point x="273" y="705" type="curve" smooth="yes"/>
      <point x="232" y="705"/>
      <point x="200" y="673"/>
      <point x="200" y="631" type="curve" smooth="yes"/>
      <point x="200" y="590"/>
      <point x="232" y="558"/>
    </contour>
    <contour>
      <point x="73" y="558" type="curve" smooth="yes"/>
      <point x="115" y="558"/>
      <point x="147" y="590"/>
      <point x="147" y="631" type="curve" smooth="yes"/>
      <point x="147" y="673"/>
      <point x="115" y="705"/>
      <point x="73" y="705" type="curve" smooth="yes"/>
      <point x="32" y="705"/>
      <point x="0" y="673"/>
      <point x="0" y="631" type="curve" smooth="yes"/>
      <point x="0" y="590"/>
      <point x="32" y="558"/>
    </contour>
    <contour>
      <point x="174" y="496" type="move" name="_top"/>
    </contour>
  </outline>
</glyph>
<glyph name="ringcomb" format="1">
  <advance width="245"/>
  <unicode hex="030A"/>
  <outline>
    <contour>
      <point x="122" y="537" type="curve" smooth="yes"/>
      <point x="190" y="537"/>
      <point x="245" y="583"/>
      <point x="245" y="658" type="curve" smooth="yes"/>
      <point x="245" y="733"/>
      <point x="190" y="779"/>
      <point x="122" y="779" type="curve" smooth="yes"/>
      <point x="55" y="779"/>
      <point x="0" y="733"/>
      <point x="0" y="658" type="curve" smooth="yes"/>
      <point x="0" y="583"/>
      <point x="55" y="537"/>
    </contour>
    <contour>
      <point x="122" y="609" type="curve" smooth="yes"/>
      <point x="96" y="609"/>
      <point x="75" y="629"/>
      <point x="75" y="658" type="curve" smooth="yes"/>
      <point x="75" y="688"/>
      <point x="96" y="707"/>
      <point x="122" y="707" type="curve" smooth="yes"/>
      <point x="149" y="707"/>
      <point x="170" y="688"/>
      <point x="170" y="658" type="curve" smooth="yes"/>
      <point x="170" y="629"/>
      <point x="149" y="609"/>
    </contour>
    <contour>
      <point x="122" y="496" type="move" name="_top"/>
    </contour>
  </outline>
</glyph>
<glyph name="caroncomb" format="1">
  <advance width="310"/>
  <unicode hex="030C"/>
  <outline>
    <contour>
      <point x="155" y="534" type="line"/>
      <point x="310" y="613" type="line"/>
      <point x="310" y="731" type="line"/>
      <point x="155" y="644" type="line"/>
      <point x="0" y="731" type="line"/>
      <point x="0" y="613" type="line"/>
    </contour>
    <contour>
      <point x="155" y="496" type="move" name="_top"/>
    </contour>
  </outline>
</glyph>
<glyph name="cedillacomb" format="1">
  <advance width="293"/>
  <unicode hex="0327"/>
  <outline>
    <contour>
      <point x="0" y="-267" type="line"/>
      <point x="154" y="-267" type="line" smooth="yes"/>
      <point x="223" y="-267"/>
      <point x="293" y="-233"/>
      <point x="293" y="-151" type="curve" smooth="yes"/>
      <point x="293" y="-68"/>
      <point x="223" y="-37"/>
      <point x="163" y="-37" type="curve"/>
      <point x="163" y="7" type="line"/>
      <point x="60" y="7" type="line"/>
      <point x="60" y="-122" type="line"/>
      <point x="131" y="-122" type="line" smooth="yes"/>
      <point x="156" y="-122"/>
      <point x="171" y="-128"/>
      <point x="171" y="-147" type="curve" smooth="yes"/>
      <point x="171" y="-167"/>
      <point x="156" y="-173"/>
      <point x="131" y="-173" type="curve" smooth="yes"/>
      <point x="0" y="-173" type="line"/>
    </contour>
    <contour>
      <point x="104" y="4" type="move" name="_bottom"/>
    </contour>
  </outline>
</glyph>
<glyph name="pi" format="1">
  <advance width="647"/>
  <unicode hex="03C0"/>
  <outline>
    <contour>
      <point x="90" y="0" type="line"/>
      <point x="261" y="0" type="line"/>
      <point x="261" y="366" type="line"/>
      <point x="386" y="366" type="line"/>
      <point x="386" y="0" type="line"/>
      <point x="557" y="0" type="line"/>
      <point x="557" y="366" type="line"/>
      <point x="627" y="366" type="line"/>
      <point x="627" y="496" type="line"/>
      <point x="20" y="496" type="line"/>
      <point x="20" y="366" type="line"/>
      <point x="90" y="366" type="line"/>
    </contour>
  </outline>
</glyph>
<glyph name="e_t" format="1">
  <advance width="996"/>
  <unicode hex="1960"/>
  <outline>
    <contour>
      <point x="945" y="496" type="line"/>
      <point x="823" y="496" type="line"/>
      <point x="823" y="642" type="line"/>
      <point x="670" y="642" type="line"/>
      <point x="652" y="496" type="line"/>
      <point x="319" y="496" type="line" smooth="yes"/>
      <point x="156" y="496"/>
      <point x="50" y="393"/>
      <point x="50" y="240" type="curve" smooth="yes"/>
      <point x="50" y="92"/>
      <point x="160" y="-12"/>
      <point x="320" y="-12" type="curve" smooth="yes"/>
      <point x="440" y="-12"/>
      <point x="536" y="65"/>
      <point x="567" y="164" type="curve"/>
      <point x="391" y="164" type="line"/>
      <point x="376" y="143"/>
      <point x="352" y="126"/>
      <point x="318" y="126" type="curve" smooth="yes"/>
      <point x="253" y="126"/>
      <point x="219" y="170"/>
      <point x="219" y="220" type="curve" smooth="yes"/>
      <point x="219" y="250" type="line" smooth="yes"/>
      <point x="219" y="327"/>
      <point x="262" y="364"/>
      <point x="321" y="364" type="curve" smooth="yes"/>
      <point x="652" y="364" type="line"/>
      <point x="652" y="194" type="line" smooth="yes"/>
      <point x="652" y="49"/>
      <point x="733" y="0"/>
      <point x="849" y="0" type="curve" smooth="yes"/>
      <point x="946" y="0" type="line"/>
      <point x="946" y="145" type="line"/>
      <point x="875" y="145" type="line" smooth="yes"/>
      <point x="837" y="145"/>
      <point x="823" y="159"/>
      <point x="823" y="192" type="curve" smooth="yes"/>
      <point x="823" y="364" type="line"/>
      <point x="945" y="364" type="line"/>
    </contour>
    <contour>
      <point x="577" y="294" type="curve"/>
      <point x="419" y="294" type="line"/>
      <point x="416" y="294"/>
      <point x="410" y="294"/>
      <point x="407" y="294" type="curve"/>
      <point x="170" y="294" type="line"/>
      <point x="170" y="205" type="line"/>
      <point x="579" y="205" type="line"/>
      <point x="581" y="222"/>
      <point x="582" y="240"/>
      <point x="582" y="254" type="curve" smooth="yes"/>
      <point x="582" y="272"/>
      <point x="580" y="278"/>
    </contour>
  </outline>
</glyph>
<glyph name="emdash" format="1">
  <advance width="890"/>
  <unicode hex="2014"/>
  <outline>
    <contour>
      <point x="50" y="218" type="line"/>
      <point x="840" y="218" type="line"/>
      <point x="840" y="360" type="line"/>
      <point x="50" y="360" type="line"/>
    </contour>
  </outline>
</glyph>
<glyph name="quotedblleft" format="1">
  <advance width="541"/>
  <unicode hex="201C"/>
  <outline>
    <contour>
      <point x="38" y="432" type="line"/>
      <point x="213" y="432" type="line"/>
      <point x="265" y="700" type="line"/>
      <point x="150" y="700" type="line"/>
    </contour>
    <contour>
      <point x="266" y="432" type="line"/>
      <point x="440" y="432" type="line"/>
      <point x="492" y="700" type="line"/>
      <point x="378" y="700" type="line"/>
    </contour>
  </outline>
</glyph>
<glyph name="quotedblright" format="1">
  <advance width="541"/>
  <unicode hex="201D"/>
  <outline>
    <contour>
      <point x="276" y="434" type="line"/>
      <point x="391" y="434" type="line"/>
      <point x="503" y="702" type="line"/>
      <point x="328" y="702" type="line"/>
    </contour>
    <contour>
      <point x="49" y="434" type="line"/>
      <point x="164" y="434" type="line"/>
      <point x="276" y="702" type="line"/>
      <point x="101" y="702" type="line"/>
    </contour>
  </outline>
</glyph>
<glyph name="quotedblbase" format="1">
  <advance width="520"/>
  <unicode hex="201E"/>
  <outline>
    <contour>
      <point x="26" y="-104" type="line"/>
      <point x="141" y="-104" type="line"/>
      <point x="253" y="164" type="line"/>
      <point x="78" y="164" type="line"/>
    </contour>
    <contour>
      <point x="253" y="-104" type="line"/>
      <point x="367" y="-104" type="line"/>
      <point x="479" y="164" type="line"/>
      <point x="305" y="164" type="line"/>
    </contour>
  </outline>
</glyph>
<glyph name="bullet" format="1">
  <advance width="401"/>
  <unicode hex="2022"/>
  <outline>
    <contour>
      <point x="200" y="183" type="curve" smooth="yes"/>
      <point x="285" y="183"/>
      <point x="351" y="249"/>
      <point x="351" y="333" type="curve" smooth="yes"/>
      <point x="351" y="418"/>
      <point x="285" y="484"/>
      <point x="200" y="484" type="curve" smooth="yes"/>
      <point x="116" y="484"/>
      <point x="50" y="418"/>
      <point x="50" y="333" type="curve" smooth="yes"/>
      <point x="50" y="249"/>
      <point x="116" y="183"/>
    </contour>
  </outline>
</glyph>
<glyph name="perthousand" format="1">
  <advance width="1366"/>
  <unicode hex="2030"/>
  <outline>
    <contour>
      <point x="209" y="0" type="line"/>
      <point x="374" y="0" type="line"/>
      <point x="757" y="700" type="line"/>
      <point x="592" y="700" type="line"/>
    </contour>
    <contour>
      <point x="224" y="338" type="curve" smooth="yes"/>
      <point x="327" y="338"/>
      <point x="407" y="408"/>
      <point x="407" y="525" type="curve" smooth="yes"/>
      <point x="407" y="642"/>
      <point x="327" y="712"/>
      <point x="224" y="712" type="curve" smooth="yes"/>
      <point x="121" y="712"/>
      <point x="40" y="642"/>
      <point x="40" y="525" type="curve" smooth="yes"/>
      <point x="40" y="408"/>
      <point x="121" y="338"/>
    </contour>
    <contour>
      <point x="223" y="450" type="curve" smooth="yes"/>
      <point x="190" y="450"/>
      <point x="170" y="477"/>
      <point x="170" y="525" type="curve" smooth="yes"/>
      <point x="170" y="574"/>
      <point x="190" y="601"/>
      <point x="223" y="601" type="curve" smooth="yes"/>
      <point x="256" y="601"/>
      <point x="277" y="574"/>
      <point x="277" y="525" type="curve" smooth="yes"/>
      <point x="277" y="477"/>
      <point x="256" y="450"/>
    </contour>
    <contour>
      <point x="745" y="-12" type="curve" smooth="yes"/>
      <point x="848" y="-12"/>
      <point x="928" y="58"/>
      <point x="928" y="175" type="curve" smooth="yes"/>
      <point x="928" y="292"/>
      <point x="848" y="362"/>
      <point x="745" y="362" type="curve" smooth="yes"/>
      <point x="642" y="362"/>
      <point x="561" y="292"/>
      <point x="561" y="175" type="curve" smooth="yes"/>
      <point x="561" y="58"/>
      <point x="642" y="-12"/>
    </contour>
    <contour>
      <point x="744" y="100" type="curve" smooth="yes"/>
      <point x="711" y="100"/>
      <point x="691" y="127"/>
      <point x="691" y="175" type="curve" smooth="yes"/>
      <point x="691" y="224"/>
      <point x="711" y="251"/>
      <point x="744" y="251" type="curve" smooth="yes"/>
      <point x="777" y="251"/>
      <point x="798" y="224"/>
      <point x="798" y="175" type="curve" smooth="yes"/>
      <point x="798" y="127"/>
      <point x="777" y="100"/>
    </contour>
    <contour>
      <point x="1143" y="-12" type="curve" smooth="yes"/>
      <point x="1246" y="-12"/>
      <point x="1326" y="58"/>
      <point x="1326" y="175" type="curve" smooth="yes"/>
      <point x="1326" y="292"/>
      <point x="1246" y="362"/>
      <point x="1143" y="362" type="curve" smooth="yes"/>
      <point x="1040" y="362"/>
      <point x="959" y="292"/>
      <point x="959" y="175" type="curve" smooth="yes"/>
      <point x="959" y="58"/>
      <point x="1040" y="-12"/>
    </contour>
    <contour>
      <point x="1142" y="100" type="curve" smooth="yes"/>
      <point x="1109" y="100"/>
      <point x="1089" y="127"/>
      <point x="1089" y="175" type="curve" smooth="yes"/>
      <point x="1089" y="224"/>
      <point x="1109" y="251"/>
      <point x="1142" y="251" type="curve" smooth="yes"/>
      <point x="1175" y="251"/>
      <point x="1196" y="224"/>
      <point x="1196" y="175" type="curve" smooth="yes"/>
      <point x="1196" y="127"/>
      <point x="1175" y="100"/>
    </contour>
  </outline>
</glyph>
<glyph name="guilsinglleft" format="1">
  <advance width="332"/>
  <unicode hex="2039"/>
  <outline>
    <contour>
      <point x="124" y="120" type="line"/>
      <point x="282" y="120" type="line"/>
      <point x="195" y="295" type="line"/>
      <point x="282" y="470" type="line"/>
      <point x="124" y="470" type="line"/>
      <point x="40" y="295" type="line"/>
    </contour>
  </outline>
</glyph>
<glyph name="guilsinglright" format="1">
  <advance width="332"/>
  <unicode hex="203A"/>
  <outline>
    <contour>
      <point x="50" y="120" type="line"/>
      <point x="208" y="120" type="line"/>
      <point x="292" y="295" type="line"/>
      <point x="208" y="470" type="line"/>
      <point x="50" y="470" type="line"/>
      <point x="137" y="295" type="line"/>
    </contour>
  </outline>
</glyph>
<glyph name="foursuperior" format="1">
  <advance width="370"/>
  <unicode hex="2074"/>
  <outline>
    <contour>
      <point x="190" y="352" type="line"/>
      <point x="314" y="352" type="line"/>
      <point x="314" y="409" type="line"/>
      <point x="345" y="409" type="line"/>
      <point x="345" y="490" type="line"/>
      <point x="314" y="490" type="line"/>
      <point x="314" y="700" type="line"/>
      <point x="177" y="700" type="line"/>
      <point x="30" y="490" type="line"/>
      <point x="30" y="409" type="line"/>
      <point x="190" y="409" type="line"/>
    </contour>
    <contour>
      <point x="154" y="490" type="line"/>
      <point x="199" y="564" type="line"/>
      <point x="199" y="490" type="line"/>
    </contour>
  </outline>
</glyph>
<glyph name="rupee" format="1">
  <advance width="1190"/>
  <unicode hex="20A8"/>
  <outline>
    <contour>
      <point x="62" y="0" type="line"/>
      <point x="233" y="0" type="line"/>
      <point x="233" y="267" type="line"/>
      <point x="349" y="267" type="line" smooth="yes"/>
      <point x="529" y="267"/>
      <point x="607" y="369"/>
      <point x="607" y="482" type="curve" smooth="yes"/>
      <point x="607" y="604"/>
      <point x="521" y="702"/>
      <point x="349" y="702" type="curve" smooth="yes"/>
      <point x="62" y="702" type="line"/>
    </contour>
    <contour>
      <point x="419" y="0" type="line"/>
      <point x="613" y="0" type="line"/>
      <point x="426" y="310" type="line"/>
      <point x="242" y="310" type="line"/>
    </contour>
    <contour>
      <point x="233" y="387" type="line"/>
      <point x="233" y="562" type="line"/>
      <point x="339" y="562" type="line" smooth="yes"/>
      <point x="403" y="562"/>
      <point x="433" y="527"/>
      <point x="433" y="474" type="curve" smooth="yes"/>
      <point x="433" y="419"/>
      <point x="403" y="387"/>
      <point x="339" y="387" type="curve" smooth="yes"/>
    </contour>
    <contour>
      <point x="911" y="-8" type="curve" smooth="yes"/>
      <point x="1051" y="-8"/>
      <point x="1137" y="65"/>
      <point x="1137" y="164" type="curve" smooth="yes"/>
      <point x="1137" y="369"/>
      <point x="807" y="298"/>
      <point x="807" y="391" type="curve" smooth="yes"/>
      <point x="807" y="418"/>
      <point x="833" y="437"/>
      <point x="876" y="437" type="curve" smooth="yes"/>
      <point x="922" y="437"/>
      <point x="955" y="416"/>
      <point x="961" y="376" type="curve"/>
      <point x="1131" y="376" type="line"/>
      <point x="1116" y="488"/>
      <point x="1030" y="566"/>
      <point x="882" y="566" type="curve" smooth="yes"/>
      <point x="732" y="566"/>
      <point x="650" y="486"/>
      <point x="650" y="393" type="curve" smooth="yes"/>
      <point x="650" y="188"/>
      <point x="979" y="263"/>
      <point x="979" y="167" type="curve" smooth="yes"/>
      <point x="979" y="140"/>
      <point x="957" y="121"/>
      <point x="910" y="121" type="curve" smooth="yes"/>
      <point x="864" y="121"/>
      <point x="827" y="140"/>
      <point x="823" y="182" type="curve"/>
      <point x="653" y="182" type="line"/>
      <point x="669" y="59"/>
      <point x="765" y="-8"/>
    </contour>
  </outline>
</glyph>
<glyph name="euro" format="1">
  <advance width="804"/>
  <unicode hex="20AC"/>
  <outline>
    <contour>
      <point x="20" y="232" type="line"/>
      <point x="452" y="232" type="line"/>
      <point x="452" y="321" type="line"/>
      <point x="20" y="321" type="line"/>
    </contour>
    <contour>
      <point x="20" y="377" type="line"/>
      <point x="452" y="377" type="line"/>
      <point x="452" y="467" type="line"/>
      <point x="20" y="467" type="line"/>
    </contour>
    <component base="C" xOffset="50"/>
  </outline>
</glyph>
<glyph name="ruble" format="1">
  <advance width="674"/>
  <unicode hex="20BD"/>
  <outline>
    <contour>
      <point x="112" y="0" type="line"/>
      <point x="283" y="0" type="line"/>
      <point x="283" y="572" type="line"/>
      <point x="382" y="572" type="line" smooth="yes"/>
      <point x="444" y="572"/>
      <point x="473" y="536"/>
      <point x="473" y="487" type="curve" smooth="yes"/>
      <point x="473" y="437"/>
      <point x="444" y="403"/>
      <point x="382" y="403" type="curve" smooth="yes"/>
      <point x="18" y="403" type="line"/>
      <point x="18" y="272" type="line"/>
      <point x="389" y="272" type="line" smooth="yes"/>
      <point x="569" y="272"/>
      <point x="647" y="372"/>
      <point x="647" y="487" type="curve" smooth="yes"/>
      <point x="647" y="608"/>
      <point x="561" y="702"/>
      <point x="389" y="702" type="curve" smooth="yes"/>
      <point x="112" y="702" type="line"/>
    </contour>
    <contour>
      <point x="18" y="82" type="line"/>
      <point x="438" y="82" type="line"/>
      <point x="438" y="212" type="line"/>
      <point x="18" y="212" type="line"/>
    </contour>
  </outline>
</glyph>
<glyph name="literSign" format="1">
  <advance width="295"/>
  <unicode hex="2113"/>
  <outline>
    <contour>
      <point x="62" y="-100" type="line"/>
      <point x="233" y="-100" type="line"/>
      <point x="233" y="720" type="line"/>
      <point x="62" y="720" type="line"/>
    </contour>
  </outline>
</glyph>
<glyph name="trademark" format="1">
  <advance width="883"/>
  <unicode hex="2122"/>
  <outline>
    <contour>
      <point x="366" y="349" type="line"/>
      <point x="475" y="349" type="line"/>
      <point x="475" y="639" type="line"/>
      <point x="445" y="637" type="line"/>
      <point x="557" y="349" type="line"/>
      <point x="640" y="349" type="line"/>
      <point x="758" y="637" type="line"/>
      <point x="721" y="639" type="line"/>
      <point x="725" y="349" type="line"/>
      <point x="838" y="349" type="line"/>
      <point x="838" y="700" type="line"/>
      <point x="685" y="700" type="line"/>
      <point x="566" y="407" type="line"/>
      <point x="635" y="409" type="line"/>
      <point x="532" y="700" type="line"/>
      <point x="366" y="700" type="line"/>
    </contour>
    <contour>
      <point x="109" y="349" type="line"/>
      <point x="233" y="349" type="line"/>
      <point x="232" y="601" type="line"/>
      <point x="315" y="601" type="line"/>
      <point x="315" y="700" type="line"/>
      <point x="27" y="700" type="line"/>
      <point x="27" y="601" type="line"/>
      <point x="110" y="601" type="line"/>
    </contour>
  </outline>
</glyph>
<glyph name="Ohm" format="1">
  <advance width="788"/>
  <unicode hex="2126"/>
  <outline>
    <contour>
      <point x="40" y="0" type="line"/>
      <point x="310" y="0" type="line"/>
      <point x="310" y="134" type="line"/>
      <point x="251" y="183"/>
      <point x="209" y="252"/>
      <point x="209" y="349" type="curve" smooth="yes"/>
      <point x="209" y="480"/>
      <point x="282" y="555"/>
      <point x="394" y="555" type="curve" smooth="yes"/>
      <point x="506" y="555"/>
      <point x="579" y="480"/>
      <point x="579" y="349" type="curve" smooth="yes"/>
      <point x="579" y="252"/>
      <point x="538" y="183"/>
      <point x="478" y="134" type="curve"/>
      <point x="478" y="0" type="line"/>
      <point x="748" y="0" type="line"/>
      <point x="748" y="130" type="line"/>
      <point x="554" y="130" type="line"/>
      <point x="580" y="86" type="line"/>
      <point x="709" y="145"/>
      <point x="753" y="249"/>
      <point x="753" y="369" type="curve" smooth="yes"/>
      <point x="753" y="581"/>
      <point x="594" y="712"/>
      <point x="394" y="712" type="curve" smooth="yes"/>
      <point x="194" y="712"/>
      <point x="35" y="581"/>
      <point x="35" y="369" type="curve" smooth="yes"/>
      <point x="35" y="249"/>
      <point x="80" y="145"/>
      <point x="208" y="86" type="curve"/>
      <point x="234" y="130" type="line"/>
      <point x="40" y="130" type="line"/>
    </contour>
  </outline>
</glyph>
<glyph name="partialdiff" format="1">
  <advance width="615"/>
  <unicode hex="2202"/>
  <outline>
    <contour>
      <point x="268" y="-7" type="curve" smooth="yes"/>
      <point x="455" y="-7"/>
      <point x="581" y="148"/>
      <point x="581" y="405" type="curve" smooth="yes"/>
      <point x="581" y="608"/>
      <point x="491" y="740"/>
      <point x="319" y="740" type="curve" smooth="yes"/>
      <point x="284" y="740"/>
      <point x="245" y="735"/>
      <point x="203" y="723" type="curve"/>
      <point x="203" y="636" type="line"/>
      <point x="227" y="641"/>
      <point x="249" y="643"/>
      <point x="269" y="643" type="curve" smooth="yes"/>
      <point x="360" y="643"/>
      <point x="402" y="593"/>
      <point x="417" y="518" type="curve"/>
      <point x="388" y="548"/>
      <point x="351" y="561"/>
      <point x="307" y="561" type="curve" smooth="yes"/>
      <point x="157" y="561"/>
      <point x="34" y="434"/>
      <point x="34" y="249" type="curve" smooth="yes"/>
      <point x="34" y="74"/>
      <point x="141" y="-7"/>
    </contour>
    <contour>
      <point x="285" y="139" type="curve" smooth="yes"/>
      <point x="241" y="139"/>
      <point x="207" y="172"/>
      <point x="207" y="250" type="curve" smooth="yes"/>
      <point x="207" y="346"/>
      <point x="250" y="418"/>
      <point x="321" y="418" type="curve" smooth="yes"/>
      <point x="365" y="418"/>
      <point x="398" y="385"/>
      <point x="398" y="316" type="curve" smooth="yes"/>
      <point x="398" y="216"/>
      <point x="354" y="139"/>
    </contour>
  </outline>
</glyph>
<glyph name="increment" format="1">
  <advance width="727"/>
  <unicode hex="2206"/>
  <outline>
    <contour>
      <point x="16" y="0" type="line"/>
      <point x="711" y="0" type="line"/>
      <point x="711" y="130" type="line"/>
      <point x="433" y="700" type="line"/>
      <point x="294" y="700" type="line"/>
      <point x="16" y="130" type="line"/>
    </contour>
    <contour>
      <point x="192" y="130" type="line"/>
      <point x="364" y="506" type="line"/>
      <point x="535" y="130" type="line"/>
    </contour>
  </outline>
</glyph>
<glyph name="product" format="1">
  <advance width="747"/>
  <unicode hex="220F"/>
  <outline>
    <contour>
      <point x="90" y="0" type="line"/>
      <point x="261" y="0" type="line"/>
      <point x="261" y="570" type="line"/>
      <point x="486" y="570" type="line"/>
      <point x="486" y="0" type="line"/>
      <point x="657" y="0" type="line"/>
      <point x="657" y="570" type="line"/>
      <point x="727" y="570" type="line"/>
      <point x="727" y="700" type="line"/>
      <point x="20" y="700" type="line"/>
      <point x="20" y="570" type="line"/>
      <point x="90" y="570" type="line"/>
    </contour>
  </outline>
</glyph>
<glyph name="summation" format="1">
  <advance width="536"/>
  <unicode hex="2211"/>
  <outline>
    <contour>
      <point x="46" y="-50" type="line"/>
      <point x="502" y="-50" type="line"/>
      <point x="503" y="80" type="line"/>
      <point x="108" y="80" type="line"/>
      <point x="127" y="24" type="line"/>
      <point x="445" y="273" type="line"/>
      <point x="445" y="394" type="line"/>
      <point x="119" y="622" type="line"/>
      <point x="103" y="570" type="line"/>
      <point x="504" y="570" type="line"/>
      <point x="504" y="700" type="line"/>
      <point x="48" y="700" type="line"/>
      <point x="47" y="501" type="line"/>
      <point x="281" y="334" type="line"/>
      <point x="47" y="149" type="line"/>
    </contour>
  </outline>
</glyph>
<glyph name="minus" format="1">
  <advance width="540"/>
  <unicode hex="2212"/>
  <outline>
    <contour>
      <point x="50" y="218" type="line"/>
      <point x="490" y="218" type="line"/>
      <point x="490" y="360" type="line"/>
      <point x="50" y="360" type="line"/>
    </contour>
  </outline>
</glyph>
<glyph name="infinity" format="1">
  <advance width="777"/>
  <unicode hex="221E"/>
  <outline>
    <contour>
      <point x="207" y="115" type="curve" smooth="yes"/>
      <point x="324" y="115"/>
      <point x="400" y="197"/>
      <point x="422" y="288" type="curve"/>
      <point x="337" y="319" type="line"/>
      <point x="315" y="262"/>
      <point x="267" y="229"/>
      <point x="222" y="229" type="curve" smooth="yes"/>
      <point x="189" y="229"/>
      <point x="165" y="249"/>
      <point x="165" y="287" type="curve" smooth="yes"/>
      <point x="165" y="325"/>
      <point x="189" y="346"/>
      <point x="219" y="346" type="curve" smooth="yes"/>
      <point x="318" y="346"/>
      <point x="368" y="115"/>
      <point x="565" y="115" type="curve" smooth="yes"/>
      <point x="668" y="115"/>
      <point x="747" y="179"/>
      <point x="747" y="290" type="curve" smooth="yes"/>
      <point x="747" y="397"/>
      <point x="673" y="460"/>
      <point x="570" y="460" type="curve" smooth="yes"/>
      <point x="454" y="460"/>
      <point x="378" y="380"/>
      <point x="355" y="287" type="curve"/>
      <point x="440" y="256" type="line"/>
      <point x="462" y="313"/>
      <point x="510" y="346"/>
      <point x="555" y="346" type="curve" smooth="yes"/>
      <point x="588" y="346"/>
      <point x="612" y="326"/>
      <point x="612" y="288" type="curve" smooth="yes"/>
      <point x="612" y="250"/>
      <point x="588" y="229"/>
      <point x="552" y="229" type="curve" smooth="yes"/>
      <point x="434" y="229"/>
      <point x="408" y="460"/>
      <point x="212" y="460" type="curve" smooth="yes"/>
      <point x="109" y="460"/>
      <point x="30" y="396"/>
      <point x="30" y="285" type="curve" smooth="yes"/>
      <point x="30" y="178"/>
      <point x="104" y="115"/>
    </contour>
  </outline>
</glyph>
<glyph name="notequal" format="1">
  <advance width="558"/>
  <unicode hex="2260"/>
  <outline>
    <contour>
      <point x="80" y="28" type="line"/>
      <point x="206" y="28" type="line"/>
      <point x="478" y="549" type="line"/>
      <point x="353" y="549" type="line"/>
    </contour>
    <component base="equal" yOffset="-1" identifier="36A15961"/>
  </outline>
</glyph>
<glyph name="lessequal" format="1">
  <advance width="518"/>
  <unicode hex="2264"/>
  <outline>
    <contour>
      <point x="253" y="201" type="line"/>
      <point x="468" y="201" type="line"/>
      <point x="256" y="395" type="line"/>
      <point x="256" y="378" type="line"/>
      <point x="468" y="571" type="line"/>
      <point x="253" y="571" type="line"/>
      <point x="50" y="386" type="line"/>
    </contour>
    <contour>
      <point x="67" y="0" type="line"/>
      <point x="465" y="0" type="line"/>
      <point x="465" y="131" type="line"/>
      <point x="67" y="131" type="line"/>
    </contour>
  </outline>
</glyph>
<glyph name="greaterequal" format="1">
  <advance width="518"/>
  <unicode hex="2265"/>
  <outline>
    <contour>
      <point x="50" y="201" type="line"/>
      <point x="264" y="201" type="line"/>
      <point x="468" y="386" type="line"/>
      <point x="264" y="571" type="line"/>
      <point x="50" y="571" type="line"/>
      <point x="261" y="378" type="line"/>
      <point x="261" y="395" type="line"/>
    </contour>
    <contour>
      <point x="52" y="0" type="line"/>
      <point x="450" y="0" type="line"/>
      <point x="450" y="131" type="line"/>
      <point x="52" y="131" type="line"/>
    </contour>
  </outline>
</glyph>
<glyph name="lozenge" format="1">
  <advance width="565"/>
  <unicode hex="25CA"/>
  <outline>
    <contour>
      <point x="283" y="90" type="line"/>
      <point x="545" y="353" type="line"/>
      <point x="283" y="615" type="line"/>
      <point x="20" y="353" type="line"/>
    </contour>
    <contour>
      <point x="283" y="257" type="line"/>
      <point x="188" y="353" type="line"/>
      <point x="283" y="448" type="line"/>
      <point x="378" y="353" type="line"/>
    </contour>
  </outline>
</glyph>
<glyph name="fi" format="1">
  <advance width="645"/>
  <unicode hex="FB01"/>
  <outline>
    <contour>
      <point x="80" y="0" type="line"/>
      <point x="251" y="0" type="line"/>
      <point x="251" y="354" type="line"/>
      <point x="412" y="354" type="line"/>
      <point x="412" y="0" type="line"/>
      <point x="583" y="0" type="line"/>
      <point x="583" y="496" type="line"/>
      <point x="251" y="496" type="line"/>
      <point x="251" y="528" type="line" smooth="yes"/>
      <point x="251" y="561"/>
      <point x="265" y="575"/>
      <point x="303" y="575" type="curve" smooth="yes"/>
      <point x="336" y="575" type="line"/>
      <point x="336" y="720" type="line"/>
      <point x="277" y="720" type="line" smooth="yes"/>
      <point x="161" y="720"/>
      <point x="80" y="671"/>
      <point x="80" y="526" type="curve" smooth="yes"/>
      <point x="80" y="496" type="line"/>
      <point x="18" y="496" type="line"/>
      <point x="18" y="354" type="line"/>
      <point x="80" y="354" type="line"/>
    </contour>
    <contour>
      <point x="498" y="544" type="curve" smooth="yes"/>
      <point x="559" y="544"/>
      <point x="600" y="582"/>
      <point x="600" y="633" type="curve" smooth="yes"/>
      <point x="600" y="685"/>
      <point x="559" y="723"/>
      <point x="498" y="723" type="curve" smooth="yes"/>
      <point x="438" y="723"/>
      <point x="397" y="685"/>
      <point x="397" y="633" type="curve" smooth="yes"/>
      <point x="397" y="582"/>
      <point x="438" y="544"/>
    </contour>
    <contour>
      <point x="330" y="0" type="move" name="caret_1"/>
    </contour>
  </outline>
</glyph>
<glyph name="fl" format="1">
  <advance width="680"/>
  <unicode hex="FB02"/>
  <outline>
    <component base="f"/>
    <component base="l" xOffset="385"/>
    <contour>
      <point x="340" y="0" type="move" name="caret_1"/>
    </contour>
  </outline>
</glyph>
<glyph name="A_E" format="1">
  <advance width="1031"/>
  <unicode hex="F1010"/>
  <outline>
    <contour>
      <point x="195" y="0" type="line"/>
      <point x="386" y="563" type="line"/>
      <point x="501" y="563" type="line"/>
      <point x="501" y="0" type="line"/>
      <point x="981" y="0" type="line"/>
      <point x="981" y="137" type="line"/>
      <point x="672" y="137" type="line"/>
      <point x="672" y="291" type="line"/>
      <point x="951" y="291" type="line"/>
      <point x="951" y="423" type="line"/>
      <point x="672" y="423" type="line"/>
      <point x="672" y="563" type="line"/>
      <point x="981" y="563" type="line"/>
      <point x="981" y="700" type="line"/>
      <point x="270" y="700" type="line"/>
      <point x="16" y="0" type="line"/>
    </contour>
    <contour>
      <point x="431" y="144" type="line"/>
      <point x="431" y="276" type="line"/>
      <point x="169" y="276" type="line"/>
      <point x="125" y="144" type="line"/>
    </contour>
  </outline>
</glyph>
<glyph name="A_O" format="1">
  <advance width="1201"/>
  <unicode hex="F1030"/>
  <outline>
    <contour>
      <point x="16" y="0" type="line"/>
      <point x="195" y="0" type="line"/>
      <point x="368" y="511" type="line"/>
      <point x="465" y="223" type="line" smooth="yes"/>
      <point x="511" y="80"/>
      <point x="637" y="-12"/>
      <point x="802" y="-12" type="curve" smooth="yes"/>
      <point x="1012" y="-12"/>
      <point x="1158" y="136"/>
      <point x="1158" y="350" type="curve" smooth="yes"/>
      <point x="1158" y="564"/>
      <point x="1012" y="712"/>
      <point x="802" y="712" type="curve" smooth="yes"/>
      <point x="678" y="712"/>
      <point x="577" y="661"/>
      <point x="514" y="574" type="curve"/>
      <point x="468" y="700" type="line"/>
      <point x="270" y="700" type="line"/>
    </contour>
    <contour>
      <point x="802" y="143" type="curve" smooth="yes"/>
      <point x="689" y="143"/>
      <point x="620" y="223"/>
      <point x="620" y="350" type="curve" smooth="yes"/>
      <point x="620" y="477"/>
      <point x="689" y="557"/>
      <point x="802" y="557" type="curve" smooth="yes"/>
      <point x="915" y="557"/>
      <point x="984" y="477"/>
      <point x="984" y="350" type="curve" smooth="yes"/>
      <point x="984" y="223"/>
      <point x="915" y="143"/>
    </contour>
    <contour>
      <point x="125" y="144" type="line"/>
      <point x="417" y="144" type="line"/>
      <point x="374" y="276" type="line"/>
      <point x="169" y="276" type="line"/>
    </contour>
  </outline>
</glyph>
<glyph name="A_U_L_A" format="1">
  <advance width="1917"/>
  <unicode hex="F1050"/>
  <outline>
    <contour>
      <point x="1374" y="0" type="line"/>
      <point x="1419" y="132" type="line"/>
      <point x="1125" y="132" type="line"/>
      <point x="1125" y="700" type="line"/>
      <point x="954" y="700" type="line"/>
      <point x="954" y="57" type="line" smooth="yes"/>
      <point x="954" y="-26"/>
      <point x="911" y="-74"/>
      <point x="830" y="-74" type="curve" smooth="yes"/>
      <point x="772" y="-74"/>
      <point x="730" y="-27"/>
      <point x="713" y="19" type="curve" smooth="yes"/>
      <point x="468" y="700" type="line"/>
      <point x="270" y="700" type="line"/>
      <point x="16" y="0" type="line"/>
      <point x="195" y="0" type="line"/>
      <point x="368" y="511" type="line"/>
      <point x="549" y="-28" type="line" smooth="yes"/>
      <point x="598" y="-174"/>
      <point x="713" y="-232"/>
      <point x="827" y="-232" type="curve" smooth="yes"/>
      <point x="972" y="-232"/>
      <point x="1096" y="-156"/>
      <point x="1121" y="0" type="curve"/>
    </contour>
    <contour>
      <point x="1281" y="240" type="line"/>
      <point x="1460" y="240" type="line"/>
      <point x="1581" y="610" type="line"/>
      <point x="1514" y="610" type="line"/>
      <point x="1720" y="0" type="line"/>
      <point x="1901" y="0" type="line"/>
      <point x="1647" y="700" type="line"/>
      <point x="1449" y="700" type="line"/>
    </contour>
    <contour>
      <point x="1268" y="202" type="line"/>
      <point x="1785" y="202" type="line"/>
      <point x="1742" y="334" type="line"/>
      <point x="1314" y="334" type="line"/>
    </contour>
    <contour>
      <point x="125" y="144" type="line"/>
      <point x="417" y="144" type="line"/>
      <point x="374" y="276" type="line"/>
      <point x="169" y="276" type="line"/>
    </contour>
    <component base="gravecomb.cap" xOffset="183"/>
  </outline>
</glyph>
<glyph name="a_e" format="1">
  <advance width="969"/>
  <unicode hex="F1110"/>
  <outline>
    <contour>
      <point x="380" y="48" type="curve"/>
      <point x="361" y="74"/>
      <point x="348" y="102"/>
      <point x="336" y="130" type="curve"/>
      <point x="322" y="121"/>
      <point x="305" y="116"/>
      <point x="283" y="116" type="curve" smooth="yes"/>
      <point x="255" y="116"/>
      <point x="231" y="129"/>
      <point x="231" y="155" type="curve" smooth="yes"/>
      <point x="231" y="179"/>
      <point x="250" y="199"/>
      <point x="287" y="199" type="curve" smooth="yes"/>
      <point x="414" y="199" type="line"/>
      <point x="414" y="294" type="line"/>
      <point x="266" y="294" type="line" smooth="yes"/>
      <point x="110" y="294"/>
      <point x="50" y="219"/>
      <point x="50" y="135" type="curve" smooth="yes"/>
      <point x="50" y="53"/>
      <point x="108" y="-12"/>
      <point x="233" y="-12" type="curve" smooth="yes"/>
      <point x="298" y="-12"/>
      <point x="347" y="11"/>
    </contour>
    <contour>
      <point x="64" y="321" type="curve"/>
      <point x="227" y="321" type="line"/>
      <point x="233" y="354"/>
      <point x="266" y="371"/>
      <point x="306" y="371" type="curve" smooth="yes"/>
      <point x="362" y="371"/>
      <point x="387" y="341"/>
      <point x="387" y="300" type="curve" smooth="yes"/>
      <point x="387" y="247" type="line" smooth="yes"/>
      <point x="387" y="86"/>
      <point x="508" y="-12"/>
      <point x="663" y="-12" type="curve" smooth="yes"/>
      <point x="783" y="-12"/>
      <point x="879" y="65"/>
      <point x="910" y="164" type="curve"/>
      <point x="734" y="164" type="line"/>
      <point x="719" y="143"/>
      <point x="695" y="126"/>
      <point x="661" y="126" type="curve" smooth="yes"/>
      <point x="596" y="126"/>
      <point x="562" y="170"/>
      <point x="562" y="220" type="curve" smooth="yes"/>
      <point x="562" y="254" type="line" smooth="yes"/>
      <point x="562" y="405"/>
      <point x="496" y="508"/>
      <point x="307" y="508" type="curve" smooth="yes"/>
      <point x="174" y="508"/>
      <point x="74" y="436"/>
    </contour>
    <contour>
      <point x="553" y="489" type="curve"/>
      <point x="588" y="450"/>
      <point x="607" y="413"/>
      <point x="619" y="364" type="curve"/>
      <point x="632" y="369"/>
      <point x="646" y="372"/>
      <point x="663" y="372" type="curve" smooth="yes"/>
      <point x="709" y="372"/>
      <point x="746" y="340"/>
      <point x="750" y="294" type="curve"/>
      <point x="413" y="294" type="line"/>
      <point x="413" y="199" type="line"/>
      <point x="922" y="199" type="line"/>
      <point x="924" y="217"/>
      <point x="925" y="240"/>
      <point x="925" y="254" type="curve" smooth="yes"/>
      <point x="925" y="405"/>
      <point x="811" y="508"/>
      <point x="662" y="508" type="curve" smooth="yes"/>
      <point x="617" y="508"/>
      <point x="581" y="500"/>
    </contour>
  </outline>
</glyph>
